<svg xmlns="http://www.w3.org/2000/svg" id="_3d-modeling" width="78" height="78" data-name="3d-modeling" viewBox="0 0 78 78"><path id="Path_1117" fill="#09a1e5" d="M128,68.143h28.641v54.572H128Z" data-name="Path 1117" transform="translate(-108.5 -57.762)"/><path id="Path_1118" fill="#3ec3ff" d="M147.5,0,128,10.381l19.5,10.381H167V10.381Z" data-name="Path 1118" transform="translate(-108.5)"/><path id="Path_1119" fill="#962b7c" d="M324,136.286l9.141,57.238,19.5-10.381V136.286Z" data-name="Path 1119" transform="translate(-274.641 -115.524)"/><path id="Path_1120" fill="#cb2e81" d="M213.617,136.286v20.762L206,170.1l7.617,13.047,19.5,10.381V136.286Z" data-name="Path 1120" transform="translate(-174.617 -115.524)"/><path id="Path_1121" fill="#ff3187" d="M295,78.524,275.5,68.143,256,78.524l19.5,10.381Z" data-name="Path 1121" transform="translate(-217 -57.762)"/><path id="Path_1122" fill="#ff9259" d="M68,272.572l9.141,36.475,19.5-10.381V272.572Z" data-name="Path 1122" transform="translate(-57.641 -231.047)"/><path id="Path_1123" fill="#ffb24a" d="M0,272.572v26.094l19.5,10.381V272.572Z" data-name="Path 1123" transform="translate(0 -231.047)"/><path id="Path_1124" fill="#ffd23b" d="M19.5,204.428,0,214.809,19.5,225.19,39,214.809Z" data-name="Path 1124" transform="translate(0 -173.285)"/></svg>