<svg id="_3d-modeling" data-name="3d-modeling" xmlns="http://www.w3.org/2000/svg" width="78" height="78" viewBox="0 0 78 78">
  <path id="Path_1117" data-name="Path 1117" d="M128,68.143h28.641v54.572H128Z" transform="translate(-108.5 -57.762)" fill="#09a1e5"/>
  <path id="Path_1118" data-name="Path 1118" d="M147.5,0,128,10.381l19.5,10.381H167V10.381Z" transform="translate(-108.5)" fill="#3ec3ff"/>
  <path id="Path_1119" data-name="Path 1119" d="M324,136.286l9.141,57.238,19.5-10.381V136.286Z" transform="translate(-274.641 -115.524)" fill="#962b7c"/>
  <path id="Path_1120" data-name="Path 1120" d="M213.617,136.286v20.762L206,170.1l7.617,13.047,19.5,10.381V136.286Z" transform="translate(-174.617 -115.524)" fill="#cb2e81"/>
  <path id="Path_1121" data-name="Path 1121" d="M295,78.524,275.5,68.143,256,78.524l19.5,10.381Z" transform="translate(-217 -57.762)" fill="#ff3187"/>
  <path id="Path_1122" data-name="Path 1122" d="M68,272.572l9.141,36.475,19.5-10.381V272.572Z" transform="translate(-57.641 -231.047)" fill="#ff9259"/>
  <path id="Path_1123" data-name="Path 1123" d="M0,272.572v26.094l19.5,10.381V272.572Z" transform="translate(0 -231.047)" fill="#ffb24a"/>
  <path id="Path_1124" data-name="Path 1124" d="M19.5,204.428,0,214.809,19.5,225.19,39,214.809Z" transform="translate(0 -173.285)" fill="#ffd23b"/>
</svg>
