<svg xmlns="http://www.w3.org/2000/svg" width="2119.846" height="2235.141"><path d="M6458.292 2514.433H3791.633V-152.225h2666.659v2666.658" fill="#fff"/><path d="M632.895 1322.567L608 1327.261l-6.374 25.04-28.28 3.28 1.432 28.76-31.815 5.133-1.947 26.64-29.805 9.933-3.76-11.28 22.284-7.426 2.053-28.12 30.584-4.92-1.456-29.254 31.206-3.613 6.228-24.453 23.073-4.347.73-16.92 11.88.52-1.138 26.333" fill="#f7cc7f"/><path d="M1318.527 1159.78l28.64-27.72c-8.96-50.106-55.987-74.226-86.947-77.52-83.36-8.84-125.866 48.48-143.746 140.414-32.64 167.8 8.453 872.373 8.453 872.373 3.08-18.706 229.507-726.266 223.707-920.666l-30.107 13.12" fill="#96d9c9"/><path d="M253.85 1770.274l-3.082 22.8-7.38-26.373c-20.741-6.534-38.758-8.774-53.036-5.52-127.598 29 92.896 204.48 92.896 204.48s-70.273-44.12-138.328-72.054l-.864 23.12-8.705-26.12c-52.883-20.706-101.944-30.266-111.747-.386-9.23 28.146 9.343 54.786 41.304 78.493l36.739 1.293-21.656 9.08c73.81 47.28 195.91 81.094 238.056 88.787-40.317-6.333-138.881-19.16-197.293-6.547l9.165 15.254-23.065-11.534c-20.444 6.587-33.143 17.507-31.775 34.707 2.613 32.867 145.24 44.707 145.24 44.707l521.03-4.84 2.9 1.453s-322.43-309.267-490.398-370.8" fill="#3c8f7c"/><path d="M2063.197 2063.66c-11.583-53.8-129.235-69.613-279.175-40.119 53.397-18.24 126.745-59.774 164.737-78.747l-25.99-16.533 52.182 2.427c42.697-24.987 64.024-49.534 50.08-71.747-10.41-16.574-33.256-23.48-64.212-23.4l-16.317 29.187 3.388-28.775c-78.112 4.507-95.833-8.24-201.208 34.348 65.863-34.174 75.36-44.787 79.704-58.507l-35.675-15.6h41.785c33.779-36.347 87.378-108.227 65.154-141.36-18.345-27.347-98.889 10.614-150.273 30.32l-21.863 49.187 4.43-42.027c-163.418 71.187-108.024 14.08-108.024 14.08s170.587-352.908 70.091-344.973c-39.686 3.133-82.34 27.053-124.24 65.36l-1.057 35.079-12.466-22.267c-30.521 29.92-60.752 66.161-89.593 105.055 39.106-82.161 68.773-162.855 71.726-222.935l-29.854-3.612 29.463-20.494c-2.765-30.36-14.797-53.32-39.15-65.454-37.369-18.613-76.577 9.548-115.19 65.522l9.526 50.505-23.947-28.292c-138.241 225.293-264.635 779.986-264.635 779.986l-10.026 30.08 406.14 20.053s587.886 22.307 564.49-86.347" fill="#50bfa5"/><path d="M2113.518 2152.674H6.341c-3.5 0-6.341-3.013-6.341-6.734 0-3.706 2.841-6.72 6.341-6.72h2107.177c3.495 0 6.328 3.014 6.328 6.72 0 3.72-2.833 6.734-6.328 6.734" fill="#184655"/><path d="M1465.927 1913.687H513.403c-36.381 0-65.875-26.76-65.875-59.76v-35.546c0-33 29.494-59.76 65.875-59.76h952.524c-43.573 43.213-44.32 109.24-1.747 153.266l1.747 1.8" fill="#86b1f2"/><path d="M1452.594 1776.38H973.259c-33.01 0-59.768 26.76-59.768 59.774 0 33.013 26.759 59.773 59.768 59.773h479.375c-22.4-36.666-22.36-82.973-.04-119.546" fill="#fae0b2"/><path d="M1547.18 1589.1c2.094-3.586-1.08-7.733-5.906-7.733H658.55c-59.458 0-107.658 39.774-107.658 88.84 0 49.067 48.2 88.84 107.658 88.84h882.937c4.84 0 8.027-4.173 5.92-7.773-30.04-51.36-29.973-111.053-.227-162.173" fill="#100062"/><path d="M1541.14 1600.487H908.026c-37.596 0-68.075 30.467-68.075 68.067v5.107c0 37.6 30.479 68.08 68.075 68.08h634.194c-22.8-45.267-23.053-96.014-1.08-141.254" fill="#fae0b2"/><path d="M1096.247 1671.674h-52.39c-11.267 0-20.4 3.493-20.4 7.8v.693h72.79v-8.493" fill="#ff4c16"/><path d="M1140.94 1691.234c0-10.8-13.693-19.56-30.56-19.56h-67.238c12.8 0 23.172 6.64 23.172 14.84l-.307 209.787 37.147-26.974 37.853 26.974-.067-205.067" fill="#f47458"/><path d="M1857.58 1913.367H442.22c-43.95 0-79.581 35.64-79.581 79.587v66.933c0 43.96 35.63 79.587 79.58 79.587H1857.58l-.746-.773c-60.547-63.027-60.214-162.707.746-225.334" fill="#ff3b3b"/><path d="M1832.527 1946.847H1075.9c-43.957 0-79.586 35.627-79.586 79.574 0 43.96 35.629 79.586 79.586 79.586h756.6c-27.813-49.28-27.76-109.92.027-159.16" fill="#fae0b2"/><path d="M1461.02 2026.834h-61.36c-13.2 0-23.893 10.693-23.893 23.893v2.147h85.253v-26.04" fill="#13375b"/><path d="M1402.167 2026.927c14.667-.013 36.573 12.4 48.92 27.72l145.533 180.494 85.494-.04-138.414-171.667c-16.293-20.2-45.173-36.56-64.506-36.547l-77.027.04" fill="#355389"/><path d="M596 92.229c-30.178 20.847-19.595 68.39 16.69 74.737 6.516 1.139 12.351 4.739 16.535 9.862l14.394 17.631a12.026 12.026 0 0016.167 2.291l11.43-7.898c5.163-3.571 6.718-10.501 3.574-15.923-11.47-19.823-17.133-26.298-14.778-38.664 6.89-36.173-33.828-62.898-64.012-42.036" fill="#f7cc7f"/><path d="M649.05 182.72c-.01.013-.022.013-.022.013a3.34 3.34 0 01-4.643-.887l-27.297-40.462-14.43-3.744a3.325 3.325 0 01-2.393-4.062 3.34 3.34 0 014.067-2.4l16.875 4.382 28.712 42.556a3.33 3.33 0 01-.868 4.603M663.945 174.92c.01-.013.02-.013.03-.027a3.329 3.329 0 00.797-4.643l-28.19-39.85 1.603-14.822a3.338 3.338 0 00-2.96-3.678 3.345 3.345 0 00-3.677 2.965l-1.874 17.324 29.648 41.907a3.342 3.342 0 004.623.825" fill="#fae0b2"/><path d="M628.845 176.402c.123.15.26.274.379.425l14.394 17.645c3.967 4.847 11.003 5.85 16.166 2.28l11.431-7.896c5.162-3.57 6.717-10.505 3.574-15.928-5.102-8.816-9.051-14.981-11.662-20.213l-34.282 23.687" fill="#96d9c9"/><path d="M1806.247 994.114l-14.36-20.786-25.267.053c-2.88.013-4.52-3.293-2.773-5.573l15.32-20.094-7.853-24.013c-.907-2.733 1.733-5.307 4.44-4.36l23.84 8.373 20.413-14.893c2.32-1.707 5.587 0 5.52 2.88l-.587 25.253 20.467 14.814c2.333 1.68 1.72 5.32-1.04 6.146l-24.2 7.24-7.76 24.04c-.88 2.747-4.52 3.28-6.16.92M263.428 1070.194l-24.498 6.173-8.796 23.694c-1.002 2.693-4.663 3.066-6.194.64l-13.45-21.387-25.244-1.053c-2.876-.12-4.367-3.48-2.523-5.694l16.185-19.4-6.805-24.333c-.776-2.773 1.963-5.226 4.635-4.16l23.453 9.4 21.039-13.986c2.394-1.6 5.58.253 5.386 3.12l-1.69 25.213 19.808 15.68c2.256 1.786 1.484 5.386-1.306 6.093" fill="#f47458"/><path d="M1733.3 1168.1l-10.546-15.266-18.56.053c-2.12 0-3.32-2.426-2.04-4.106l11.253-14.76-5.773-17.627c-.654-2.013 1.28-3.907 3.266-3.2l17.52 6.133 14.987-10.933c1.707-1.253 4.107 0 4.053 2.12l-.426 18.547 15.04 10.88c1.706 1.24 1.253 3.906-.76 4.506l-17.787 5.32-5.693 17.667c-.654 2.013-3.32 2.413-4.534.667" fill="#9bc1f9"/><path d="M1818.007 672.78l-16.133-9.16-16.707 8.094c-1.907.934-4.04-.733-3.613-2.8l3.733-18.186-12.853-13.387c-1.467-1.52-.547-4.067 1.546-4.293l18.44-2.067 8.76-16.373c1-1.867 3.694-1.774 4.574.146l7.666 16.907 18.267 3.267c2.08.373 2.827 2.96 1.267 4.386l-13.694 12.52 2.534 18.387c.293 2.093-1.947 3.613-3.787 2.56" fill="#f7cc7f"/><path d="M612.908 426.888l-16.462-8.574-16.395 8.694c-1.868 1-4.06-.587-3.71-2.667l3.066-18.307-13.34-12.906c-1.519-1.467-.693-4.04 1.397-4.36l18.358-2.734 8.149-16.68c.928-1.893 3.632-1.906 4.575-.013l8.277 16.613 18.379 2.6c2.092.294 2.937 2.867 1.429 4.347l-13.24 13 3.207 18.28c.365 2.08-1.816 3.68-3.69 2.707M877.564 121.148l-16.462-8.574-16.396 8.702c-1.866 1-4.058-.586-3.71-2.672l3.068-18.305-13.34-12.903c-1.52-1.472-.694-4.044 1.397-4.358l18.356-2.73 8.15-16.675c.928-1.9 3.632-1.915 4.575-.029l8.278 16.619 18.378 2.6c2.092.286 2.938 2.858 1.43 4.344l-13.24 13.004 3.206 18.276c.366 2.086-1.818 3.687-3.69 2.7M191.988 779.634l-16.462-8.573-16.396 8.707c-1.867.986-4.06-.587-3.711-2.68l3.068-18.307-13.34-12.907c-1.52-1.466-.693-4.04 1.397-4.346l18.356-2.747 8.15-16.667c.929-1.906 3.633-1.92 4.576-.026l8.277 16.613 18.379 2.6c2.092.293 2.937 2.867 1.429 4.347l-13.241 13 3.208 18.293c.365 2.08-1.818 3.68-3.69 2.693M1344.154 516.888l-10.56-15.267-18.56.04c-2.107.013-3.307-2.413-2.027-4.093l11.253-14.76-5.773-17.64c-.653-2 1.267-3.894 3.267-3.2l17.506 6.146 15-10.933c1.707-1.253 4.107 0 4.054 2.12l-.44 18.547 15.04 10.88c1.72 1.24 1.266 3.906-.76 4.506l-17.774 5.32-5.706 17.667c-.64 2.013-3.32 2.413-4.52.667M1699.634 523.554l-10.56-15.266-18.56.04c-2.107.013-3.307-2.414-2.027-4.094l11.253-14.76-5.773-17.626c-.653-2.014 1.267-3.907 3.267-3.2l17.506 6.133 15-10.933c1.707-1.254 4.107 0 4.054 2.12l-.44 18.546 15.04 10.88c1.72 1.24 1.266 3.907-.76 4.507l-17.774 5.32-5.706 17.667c-.64 2.013-3.32 2.413-4.52.666" fill="#9bc1f9"/><path d="M1467.46 842.128l-23.346-3.934-13.667 19.894-25.853-6.254-8.027 25.68-29.547-5.786-10.306 22.733-29.334-.92.347-11.093 21.933.68 10.88-23.987 28.4 5.56 8.16-26.107 28.52 6.894 13.36-19.414 21.627 3.64 6.107-14.586 10.24 4.28-9.494 22.72" fill="#f48c7f"/><path d="M1336.572 88.608l-7.129 22.567 17.78 16.303-9.799 24.725 24.313 11.532-9.841 28.46 21.06 13.364-4.984 28.928-10.95-1.889 3.735-21.629-22.225-14.116 9.458-27.338-24.71-11.73 10.807-27.282-17.383-15.92 6.618-20.919-13.59-8.066 5.666-9.558 21.174 12.568" fill="#466eb6"/><path d="M737.919 1000.714l-17.09 5.24-11.475-26.56-25.931 4.587-11.839-18.48-9.353 6 15.833 24.707 24.575-4.347 11.94 27.64 25.715-7.893-2.375-10.894" fill="#50bfa5"/><path d="M364.66 1294.807l-4.901-21.893 17.223 14.4zm-17.301-71.813l-25.577 15.56 26.53 119.187c2.292 10.293 14.026 15.293 23.039 9.813a15.408 15.408 0 007-16.64l-6.484-27.973 26.839-16.334 22.19 18.574a15.419 15.419 0 0017.89 1.346l.486-.293c9.022-5.493 9.97-18.227 1.864-24.987l-93.777-78.253M1576.623 231.913l9.685-20.245 4.637 21.968zm30.778-67.151l-29.724-3.57-52.816 110.09c-4.555 9.506 1.573 20.696 12.065 21.955a15.416 15.416 0 0015.786-8.755l12.202-26.004 31.175 3.748 5.964 28.316a15.399 15.399 0 0013.241 12.12l.561.068c10.479 1.258 19.11-8.167 16.908-18.494L1607.4 164.762" fill="#f48c7f"/><path d="M431.216 866.834c2.195-8.653 9.808-13.32 18.298-11.173 8.817 2.24 12.957 9.893 10.928 18.587-2.152 8.493-9.644 13.36-18.462 11.133-8.652-2.2-12.916-10.053-10.764-18.547zm9.958-21.453c1.237-3.4.51-15.48 17.042-27.48 6.798-4.88 12.368-9.027 13.775-14.573 2.43-9.574-7.69-13.92-17.667-13.654-5.16.147-9.472-3.893-9.752-9.053-.284-5.24 3.686-9.72 8.918-10.093 5.713-.414 12.466-.014 19.584 1.8 21.552 5.466 28.326 19.866 24.892 33.413-3.147 12.413-12.891 18.627-20.834 23.907-13.37 8.92-13.145 18.52-14.244 21.24l-21.714-5.507" fill="#466eb6"/><path d="M535.928 1170.7c2.238.974 5.028 1.774 9.06 2.92 10.7 3.067 21.31 1.734 24.458-9.28 3.014-10.546-5.248-17.426-17.034-20.8l-8.062-2.306zm13.25-46.36l7.756 2.214c12.405 3.547 20.534.333 22.75-7.427 2.26-7.906-2.59-13.813-13.29-16.88-5.116-1.453-8.152-1.986-10.256-2.253zm-11.98-46.706c6.558.533 19.385 3.2 31.169 6.56 14.421 4.12 22.861 8.04 29.175 14.72 6.18 5.96 9.413 14.6 6.71 24.053-2.66 9.307-10.568 16.44-23.596 17.414l-.088.306c11.01 6.667 17.279 18.187 13.423 31.68-2.704 9.454-9.173 15.667-17.193 19.067-9.326 3.88-23.016 3.653-43.795-2.28-11.63-3.32-20.092-6.587-25.144-8.867l29.34-102.653" fill="#96d9c9"/><path d="M390.063 386.194c2.368-.586 5.068-1.653 8.968-3.2 10.348-4.08 17.955-11.6 13.743-22.253-4.034-10.2-14.783-10.627-26.182-6.12l-7.797 3.08zm-17.733-44.84l7.498-2.96c11.998-4.746 16.49-12.24 13.524-19.746-3.025-7.64-10.474-9.387-20.824-5.294-4.95 1.96-7.68 3.387-9.51 4.454zm-37.948-29.733c5.524-3.573 17.317-9.28 28.714-13.787 13.947-5.506 23.03-7.546 32.099-6.106 8.53.973 16.359 5.853 19.976 15 3.559 9 1.632 19.466-8.107 28.173l.119.307c12.795-1.414 24.783 3.893 29.943 16.946 3.617 9.147 2.265 18.014-2.018 25.6-5.034 8.747-16.028 16.92-36.124 24.867-11.248 4.44-19.944 7.013-25.338 8.28l-39.264-99.28" fill="#f47458"/><path d="M1549.247 1122.847c1.333 5.814-2.227 11.654-8.027 13.054-5.413 1.306-12.306 2.333-20.213 2.6-41.187 1.386-63.267-23.534-64.413-57.48-1.374-40.653 26.853-64.267 62.92-65.48 7.16-.24 13.453.293 18.546 1.173 6.134 1.067 10.12 7.067 8.774 13.134l-.08.386c-1.267 5.694-6.774 9.454-12.52 8.427a61.088 61.088 0 00-12.734-.88c-21.386.72-37.573 14.173-36.68 40.693.814 23.867 15.454 38.427 39.494 37.613 4-.133 8.2-.706 12.066-1.52 5.814-1.24 11.547 2.48 12.867 8.28M281.739 639.394c-.896 5.894-6.353 10.027-12.263 9.2-5.513-.773-12.292-2.346-19.75-5-38.832-13.8-50.24-45.08-38.86-77.08 13.63-38.333 48.549-49.946 82.549-37.853 6.745 2.4 12.412 5.2 16.828 7.893 5.312 3.24 6.816 10.267 3.343 15.427l-.22.333c-3.256 4.84-9.764 6.307-14.734 3.254-3.26-2.014-7.08-3.92-11.521-5.494-20.165-7.173-40.157-.573-49.048 24.427-8 22.493.296 41.4 22.961 49.467 3.77 1.333 7.888 2.346 11.776 3 5.868.986 9.83 6.533 8.939 12.426" fill="#f7cc7f"/><path d="M1546.047 700.74l-25.453-67.16c-2.107-5.56.88-11.76 6.533-13.572l6.84-2.2c5.64-1.814 11.667 1.453 13.213 7.186l18.667 69.374zm2.027 25.92c-2.587-8.626 2.533-18.052 11.186-20.572 8.987-2.64 16.947 2 20.027 10.986 2.907 9.027-.987 17.76-10.373 20.774-9.52 3.066-18.067-1.894-20.84-11.187" fill="#466eb6"/><path d="M965.92 808.688c1.534.64-20.254 28.72-41.476 48.573-17.112 21.48-33.16 46.893-38.688 74.613-8.398 42.147-1.41 250.347-8.721 265.16-62.797 61.4-108.27 215.48-121.036 262.48-2.485 9.16-7.53 17.413-14.515 23.84l2.792 53.12 31.203 28.747s-6.941-43.28 6.93-75.4c0 0 158.105-239.44 167.494-257.747 17.933-52.107 83.228-319.16 83.228-319.16l15.16-61.386s-82.24-42.787-82.37-42.84" fill="#f7a491"/><path d="M707.304 1500.447s19.748 30.44 21.432 42.294c1.688 11.853 12.21 38.76 23.842 40.466 2.642.387 47.889 3.707 47.558-1.946-.252-4.32-16.63-10.494-24.236-15.747-13.141-9.08-33.546-83.027-33.546-83.027s-34.198 8.48-35.05 17.96" fill="#ff3b3b"/><path d="M1101.06 900.968s101.84 217.746 102.48 256.026c.56 32.813-17.8 216.933-12.666 370.253.173 5.534 7.186 12.894 17.386 17.574 5.747 2.626 33.48 15.013 33.48 15.013l3.814 9.92-95.507-6.8-1.36-26.08s-38.013-229.36-34.147-294.227c.614-10.186 5.574-71.2 5.574-71.2l-114.855-221.733 72.228-94.92 23.573 46.174" fill="#f7a491"/><path d="M771.124 419.874c-.758-24.413 9.015-63.306 38.727-99.28l3.392 2.8c-28.93 35.027-38.453 72.734-37.72 96.334l-4.399.146" fill="#f7cc7f"/><path d="M772.296 414.128c8.539.693 4.234 10.026 3.267 12.2 4.89 6.6 1.956 37.413.49 39.613-4.158 2.2-4.08-4.4-4.08-4.4-2.034 7.573-4.967 0-5.7.973-2.69 5.387-4.891-2.346-4.891-2.346-4.89 7.973-4.156-1.32-4.156-1.32 2.444-27.627 10.504-34.72 10.504-34.72-1.423-6.44-.376-9.387 3.922-9.987.207-.027.436-.027.644-.013" fill="#f7cc7f"/><path d="M915.848 451.168c-25.428 16.306-107.765 29.2-107.765 29.2 32.275-103.667-8.041-160.4-8.041-160.4 73.177-1.867 147.805-26.4 193.865-50.854-20.539 110.214 4.83 127.147 4.83 127.147-43.951 29.333-82.889 54.907-82.889 54.907" fill="#100062"/><path d="M1110.607 412.248c-15.427-41.12-55.736-66.014-97.716-58.32-12.881-20.787-34.357-36.227-57.723-41.227-46.092-9.88-108.424 8.333-106.742 57.133-17.882 32.787-18.567 79.667 8.789 104.6-9.515 44.08 31.779 86.72 85.45 85.16 18.695 30.827 54.309 50.654 89.718 46.427 8.499-1.027 21.461-3.133 23.608-2.6-2.699-.507 56.883 45.173 107.376-25.08 51.52-71.68 15.32-158.453-52.76-166.093" fill="#ff3b3b"/><path d="M1104.511 165.66a95.83 95.83 0 019.174-16.802l3.973-5.797c.493-1.039.88-1.895 1.067-2.484 1.746-5.138-6.96-37.718-6.96-37.718l-27.467 24.467 1.467 12.731c-7.76-3.58-14.426-32.608-17.454-25.112-9.365 23.26-3.439 31.611.027 58.184 1.187 9.053-18.51 148.287-24.343 175.954-5.837 27.667-45.259 104.913-45.259 104.913l31.539 40.006s62.316-112.016 66.116-147.965c.4-3.776.855-9.447 1.333-16.451l6.787-163.925" fill="#f7a491"/><path d="M1055.038 379.13c-15.923-5.123-13.692-32.27-13.692-32.27 11.493-83.62 22.492-159.176 22.492-159.176 10.266-5.868 45.86 5.137 45.86 5.137-6.248 101.957-8.688 158.525-11.14 165.288-2.44 6.75-16.657 29.667-43.52 21.02" fill="#100062"/><path d="M864.37 601.914l-42.812-36.293s-34.667 57.8-62.434 104.933c-27.544-9.96-98.725-56.373-102.236-58.493-3.524-2.147-11.32-54.587-17.352-51.8-6.03 2.787 4.634 27.68-2.682 29.533-7.32 1.867-62.12-34.76-63.246-29.866-2.106 9.146 32.719 23.733 30.96 27.813-1.757 4.08-35.006-18.68-40.306-13-5.296 5.693 33.406 18.533 33.609 22.24.196 3.707-37.933-7.053-36.93.933.545 4.347 34.129 8.734 32.018 13.347-2.117 4.613-28.284 5.387-27.193 10.32 1.093 4.947 21.837-3.68 34.502 1.867 12.664 5.546 24.548 2.813 42.224 17.72 17.664 14.88 104.5 99.893 131.55 92.6 23.633-6.374 90.329-131.854 90.329-131.854" fill="#f7a491"/><path d="M867.63 1162.527c.013.04.028.04.037-.013-.004.013-.037.013-.037.013" fill="#f47458"/><path d="M1015.632 539.714c2.736-16.746 32.659-41.746 82.922-181.6 0 0-32.827-14.133-57.212-11.253 0 0-82.496 151.187-101.123 153.013-18.625 1.814-84.155 4.667-95.64 11.627-11.49 6.973-89.841 157.32-89.841 157.32s2.776 79.36 16.18 73.213c27.873-12.76 84.217-122.533 87.95-126.573 2.655 8.573 43.463 140.787 43.403 170.733l.315.254c38.145 30.933 93.802 23.786 123.222-15.84 0 0-6.692-40.854 1.516-78.014 13.83-62.613 31.524-80.96-11.692-152.88" fill="#100062"/><path d="M1235.767 1186.954s-40.84-186.053-64.133-266.693c-23.294-80.64-132.343-329.64-132.343-329.64-27.57-42.773-180.477 24.04-180.423 24.84 9.647 145.627-.268 241.573-6.774 313.813-7.387 82.014-54.456 262.173-51.956 271.533 132.886-16.16 397.922 25.72 435.629-13.853" fill="#100062"/><path d="M1104.012 144.017s-3.547 9.893-13.148 6.499c-10.386-3.657-16.586-8.624-16.586-8.624s5.293 12.1 14.6 15.44c18.207 6.526 15.134-13.315 15.134-13.315" fill="#f47458"/><path d="M1084.488 10.991c4.147 59.562 23.307 142.79 55.734 218.1 4.386 14.88-36.333 26.919-40.734 12.04-5.24-55.56-27.587-151.297-61.184-218.056-4.983-19.06 41.198-31.143 46.184-12.084" fill="#c98c53"/><path d="M1121.517 216.617c-5.894-38.02-35.173-165.703-46.427-214.278-14.76-4.213-40.576 6.224-36.785 20.728 33.6 66.763 55.946 162.503 61.185 218.05 1.854-15.692 11.76-22.665 22.027-24.5" fill="#e8b16b"/><path d="M1114.91 232.038c.76-12.237 21.146-14.189 24.946-2.935-2.946-13.704-20.906-64.253-34.612-112.498-13.707-48.23-19.188-97.048-20.654-107.568-3.066-7.63-13.4-9.846-26.288-8.79 1.196 3.14 56.609 231.79 56.609 231.79" fill="#f7cc7f"/><path d="M1068.03 103.596c7.653 14.668 18.146 61.608 18.146 61.608 20.2 0 31.973-9.938 31.973-9.938-10.187-27.317-16.907-55.961-17.827-62.003-11.546-3.487-25.493-.438-32.292 10.333" fill="#ff3b3b"/><path d="M906.512 451.728s7.026 37.866 5.619 52.8c-1.401 14.933 46.812 99.8 51.153 98.093 4.15-1.64-5.497-89.973-12.53-110.707-4.792-14.12-3.536-59.933-3.536-59.933l-40.706 19.747" fill="#f7a491"/><path d="M947.847 454.714c-.472-12.4-.63-22.733-.63-22.733l-40.705 19.747s1.436 7.733 2.879 17.613c17.821 3.72 30.73-3.147 38.456-14.627" fill="#f47458"/><path d="M891.63 347.248s-15.683 9.053-21.42 28.693c-5.738 19.64.792 70.32 41.314 82.547 40.52 12.24 58.076-27.894 49.73-59.267-8.35-31.373-26.503-71.107-69.623-51.973" fill="#f7a491"/><path d="M966.323 387.06c-.795 8.428-5.264 14.868-9.975 14.388-4.713-.48-7.89-7.707-7.096-16.134.788-8.426 5.258-14.866 9.968-14.386 4.714.48 7.898 7.706 7.103 16.133M881.875 419.528c4.76 7.373 4.744 16.053-.033 19.413-4.784 3.347-12.522.093-17.282-7.28-4.757-7.36-4.742-16.053.043-19.4 4.78-3.347 12.517-.093 17.272 7.267M1108.451 98.967c-7.854-1.52-35.28 23.779-34.987 27.69.307 4.038 26.92-11.847 27.84-9.202.734 2.097-30.493 11.003-28.546 14.718 1.32 2.547 28.72-3.658 29.6-2.04 1.387 2.56-21.894 2.842-20.014 5.656 2.174 3.264 33.826 6.106 33.826 6.106s-4.173-12.367-3.599-15.716c.24-1.435.253-3.447.134-5.74-.12-1.858.706-3.448.439-5.53-1.04-8.4-.346-15.098-4.693-15.942M1083.349 110.154l-11.079 13.81-4.227-5.608s-.147-1.753.547-3.968c.44-1.43 13.386-8.79 14.759-4.234" fill="#f7a491"/><path d="M1149.727 1581.127h120.653c4.467-.4 5.547-4 4-6.213-3.186-4.573-17.266-7.933-33.08-15.213-27.746 2.893-88.186-16.067-92.56-22.427-2.533 12.733-1.493 43.307.987 43.853" fill="#ff3b3b"/><path d="M1068.431 130.04c-.4-3.21 5.668.166 14.92 16.084 6.774 11.682 0 35.461 0 35.461l-16.172-43.003 1.252-8.543" fill="#f7a491"/><path d="M754.738 668.82c-37.123-22.68-90.026-53.826-93.938-55.292-3.912-1.467-22.894 30.653-20.45 33.586 2.446 2.934 120.309 103.64 130.568 94.92 10.258-8.706-16.18-73.213-16.18-73.213" fill="#100062"/><path d="M912.987 510.514c6.472 24.227 46.367 93.654 50.297 92.107 3.722-1.467-3.65-72.64-10.282-102.267-5.446 7.827-21.652 15.027-40.015 10.16" fill="#fff"/><path d="M911.614 487.34c-14.836 13.014-19.422 29.974-29.202 85.454-7.226 40.987-16.626 297.8-53.302 356.48 58.68 38.147 118.737 20.547 118.737 20.547-20.445-209.787-31.999-442.867-36.233-462.48M948.846 482.7c42.785 26.774 125.254 238.254 219.148 217.72 4.4 36.68-49.027 108.268-49.027 108.268-113.812-92.134-165.965-308.334-165.965-308.334-3-6.733-4.156-17.653-4.156-17.653" fill="#f7cc7f"/></svg>