<svg xmlns="http://www.w3.org/2000/svg" width="3422.178" height="2553.367"><path d="M1683.064 1933.714l-404.587 162.493L777.651 849.141l341.992-137.334c34.57-13.893 73.848 2.88 87.741 37.454l475.68 1184.453" fill="#f4a640"/><path d="M1730.664 1887.314l-774.67 137.333-193.091-1089.2 774.68-137.333 193.08 1089.2" fill="#adcfd8"/><path d="M1343.29 952.06l-345.946 61.334-1.377-7.773 345.937-61.32 1.387 7.76M1412.464 919.487l-491.284 87.094-1.377-7.76 491.288-87.094 1.373 7.76M1482.797 1011.447L886.75 1117.114l-1.377-7.773 596.052-105.667 1.373 7.773M1489.41 1048.807l-596.038 105.654-1.377-7.76 596.042-105.667 1.374 7.773M1502.664 1123.514l-596.05 105.653-1.375-7.76 596.052-105.666 1.373 7.773M1509.277 1160.86l-596.04 105.667-1.376-7.76 596.043-105.666 1.373 7.76M1515.904 1198.22l-596.045 105.667-1.376-7.773 596.048-105.667 1.373 7.774M1545.037 1362.514l-596.052 105.667-1.377-7.774 596.043-105.666 1.386 7.773M1551.904 1401.247l-596.052 105.667-1.377-7.773 596.042-105.667 1.387 7.773M1558.77 1439.98L962.72 1545.648l-1.378-7.76 596.043-105.666 1.387 7.76M1565.624 1478.714l-596.037 105.667-1.379-7.76 596.043-105.667 1.373 7.76M1572.504 1517.447l-596.05 105.667-1.378-7.76 596.041-105.667 1.387 7.76M1579.37 1556.18L983.32 1661.848l-1.376-7.76 596.04-105.666 1.388 7.76M1586.237 1594.914l-596.052 105.667-1.376-7.76 596.042-105.667 1.386 7.76" fill="#55769f"/><path d="M1707.464 1840.674l-760.847 200.227L665.085 971.154l760.846-200.24 281.533 1069.76" fill="#daeef7"/><path d="M1244.877 940.247l-339.76 89.414-2.006-7.627 339.766-89.413 2 7.626M1311.17 902.114l-482.52 126.987-2.006-7.627 482.513-126.987 2.014 7.627M1388.784 988.007l-585.407 154.067-2.008-7.627 585.402-154.066 2.013 7.626M1398.437 1024.7l-585.405 154.067-2.008-7.626 585.4-154.067 2.013 7.627M1417.744 1098.074L832.34 1252.141l-2.006-7.627 585.409-154.067 2 7.627M1427.397 1134.767l-585.4 154.054-2.008-7.627 585.408-154.053 2 7.626M1437.064 1171.447l-585.412 154.067-2.007-7.627 585.406-154.066 2.013 7.626M1479.53 1332.807l-585.41 154.067-2.008-7.627 585.405-154.066 2.014 7.626M1489.53 1370.86l-585.4 154.054-2.006-7.627 585.407-154.053 2 7.627M1499.544 1408.9l-585.401 154.067-2.008-7.626 585.409-154.067 2 7.627M1509.557 1446.94l-585.402 154.067-2.008-7.626 585.41-154.067 2 7.627M1519.57 1484.98l-585.403 154.067-2.008-7.626 585.412-154.067 2 7.627M1529.584 1523.02l-585.405 154.067-2.008-7.626 585.4-154.054 2.013 7.614M1539.597 1561.074L954.19 1715.141l-2.006-7.64 585.4-154.054 2.014 7.627" fill="#55769f"/><path d="M1529.544 1995.367l-814.525 327.12-475.072-1182.92 684.458-422.226c38.467-23.734 89.035-7.08 105.878 34.853l499.26 1243.173" fill="#feb546"/><path d="M452.167 2131.06l-116.199-2.106c-40.339-73.107-69.94-136.68-69.94-136.68 131.236-30.253 241.993-17.84 334.27 17.64l50.849 123.52 10.885-95.12c228.69 123.413 322.913 384.666 322.913 384.666s-404.161-43.053-489.842-82.906c-33.083-15.387-74.77-70.747-113.483-132.907 30.975-29.493 70.547-76.106 70.547-76.106" fill="#ff5b7e"/><path d="M266.028 1992.274s518.892 218.36 718.917 430.706c0 0-404.161-43.053-489.842-82.906-33.083-15.387-74.77-70.747-113.483-132.907 30.975-29.493 70.547-76.106 70.547-76.106l-116.199-2.107c-40.339-73.107-69.94-136.68-69.94-136.68" fill="#e03268"/><path d="M282.584 2341.274c69.87-42.547 140.356-65.32 208.572-74.4 19.992 24.867 44.537 54.093 44.537 54.093l2.59-58.266c261.726-11.92 478.598 163.44 478.598 163.44-151.589 95.546-280.898 121.88-386.82 113.346-6.274-20.386-15.158-50.8-15.158-50.8l-18.712 46.814c-50.778-7.934-95.586-23.774-134.28-43.134 9.912-24.28 20.349-52.053 20.349-52.053l-56.41 32.053c-94.527-57.8-143.266-131.093-143.266-131.093" fill="#ff5b7e"/><path d="M630.061 2539.487c-6.274-20.386-15.158-50.8-15.158-50.8l-18.712 46.814c-50.778-7.934-95.586-23.774-134.28-43.134 9.912-24.28 20.349-52.053 20.349-52.053l-56.41 32.053c-94.527-57.8-143.266-131.093-143.266-131.093 304.948-35.227 734.297 84.866 734.297 84.866-151.589 95.547-280.898 121.88-386.82 113.347" fill="#e03268"/><path d="M1809.744 769.074l93.667-68.787c-9.267-82.986-21.787-151.986-21.787-151.986-124.627 51.04-207.893 125.12-262.773 207.346l29.773 130.227-63.787-71.387c-115.52 232.774-41.666 500.494-41.666 500.494s305.186-268.44 352.16-350.44c18.133-31.654 20.213-100.92 15.946-174.04-42.32-6.2-101.533-21.427-101.533-21.427" fill="#02ccc0"/><path d="M1881.624 548.3s-297.68 477.827-338.453 766.68c0 0 305.186-268.44 352.16-350.44 18.133-31.653 20.213-100.92 15.946-174.04-42.32-6.2-101.533-21.426-101.533-21.426l93.667-68.787c-9.267-82.986-21.787-151.986-21.787-151.986" fill="#06bfad"/><path d="M2069.557 842.856c-81.62 5.576-152.32 27.678-213.267 59.64-1.972 31.841-5.155 69.87-5.155 69.87l-35.744-46.094c-220.598 141.343-296.479 409.725-296.479 409.725 178.938-9.481 299.73-62.6 381.31-130.714-6.651-20.276-16.947-50.239-16.947-50.239l42.3 27.434c36.886-35.785 64.32-74.59 84.749-112.727-22.102-14.118-46.652-30.766-46.652-30.766l64.564-6.393c43.824-101.75 41.32-189.736 41.32-189.736" fill="#02ccc0"/><path d="M1900.222 1205.283c-6.651-20.276-16.947-50.239-16.947-50.239l42.3 27.434c36.886-35.785 64.32-74.59 84.749-112.727-22.102-14.118-46.652-30.766-46.652-30.766l64.564-6.393c43.824-101.75 41.32-189.736 41.32-189.736-269.357 147.246-550.644 493.141-550.644 493.141 178.938-9.481 299.73-62.6 381.31-130.714" fill="#06bfad"/><path d="M2818.33 1183.24h55.711c-9.112-6.233-20.503-9.963-32.912-9.963H1445.72c-73.002 0-132.19 52.461-132.19 117.182v74.427c0 64.72 59.188 117.173 132.19 117.173l1379.794-.413-7.186-298.407" fill="#e03268"/><path d="M1430.584 1364.887v-74.426c0-64.72 59.187-117.187 132.187-117.187h-29.96c-73.014 0-132.187 52.467-132.187 117.187v74.426c0 64.707 59.173 117.174 132.187 117.174h29.56c-72.814-.2-131.787-52.574-131.787-117.174M1757.384 1364.887v-74.426c0-64.72 59.187-117.187 132.2-117.187h-29.973c-73 0-132.187 52.467-132.187 117.187v74.426c0 64.707 59.187 117.174 132.187 117.174h29.573c-72.827-.2-131.8-52.574-131.8-117.174" fill="#feb546"/><path d="M2026.157 1173.553c-69.84 0-126.42 50.17-126.42 112.064v84.108c0 61.893 56.58 112.066 126.42 112.066h868.661v-18.826h-3.58l-220.84-18.533-44.626-155.229s86.139-85.77 91.752-87.981c5.613-2.214 173.714-8.924 173.714-8.924l3.58-.033v-18.712h-868.66" fill="#ff5b7e"/><path d="M2838.482 1327.114c0-90.747 52.902-134.744 52.902-134.744h-847.45c-64.135 0-116.125 46.078-116.125 102.93v64.748c0 56.839 51.99 102.92 116.125 102.92h847.45s-52.902-21.575-52.902-135.854" fill="#daeef7"/><path d="M1927.81 1360.46v-.026.027m0-.187v-.04.04" fill="#da557a"/><path d="M1931.2 1384.728c-2.161-7.773-3.354-15.908-3.39-24.266v-.028-.16-.04V1295.3c0-56.852 51.99-102.93 116.124-102.93h847.45s-529.083 6.641-772.548 51.463c-104.278 19.202-159.043 78.907-187.637 140.895" fill="#badeef"/><path d="M2795.363 1800.433h63.052c-10.318-7.8-23.235-12.467-37.256-12.467H1241.825c-82.627 0-149.61 65.667-149.61 146.667v93.16c0 81.014 66.983 146.68 149.61 146.68l1561.664-.52-8.126-373.52" fill="#07085b"/><path d="M1898.741 1788.316c-79.013 0-143.078 62.8-143.078 140.267v105.279c0 77.466 64.065 140.267 143.078 140.267h983.168v-23.548h-4.067l-249.947-23.212-50.51-194.294s97.491-107.36 103.86-110.133c6.351-2.772 196.597-11.173 196.597-11.173l4.067-.039v-23.414H1898.74" fill="#55769f"/><path d="M2818.134 1980.529c0-113.6 59.884-168.666 59.884-168.666H1918.87c-72.57 0-131.415 57.679-131.415 128.839v81.039c0 71.147 58.846 128.84 131.415 128.84h959.148s-59.884-27.026-59.884-170.052" fill="#daeef7"/><path d="M1787.464 2022.261v-.04.04m0-.227v-.053.053" fill="#496e9a"/><path d="M1791.294 2052.634a127.264 127.264 0 01-3.839-30.146v-.226-.04-.186-.054-81.281c0-71.16 58.846-128.838 131.415-128.838h959.148s-598.804 8.306-874.357 64.413c-118.006 24.039-180.023 98.772-212.367 176.358" fill="#badeef"/><path d="M1040.16 1491.169H977.09c10.319-6.187 23.228-9.893 37.269-9.893h1579.934c82.68 0 149.673 52.106 149.673 116.385v73.92c0 64.28-66.994 116.388-149.673 116.388l-1562.262-.415 8.127-296.385" fill="#02ccc0"/><path d="M1937.117 1481.56c79.056 0 143.136 49.826 143.136 111.292v83.547c0 61.466-64.08 111.292-143.136 111.292h-983.55v-18.68h4.067l250.036-18.412 50.533-154.173s-97.535-85.187-103.895-87.387c-6.361-2.2-196.674-8.867-196.674-8.867l-4.067-.026v-18.586h983.55" fill="#06bfad"/><path d="M1017.369 1634.07c0-90.145-59.904-133.84-59.904-133.84h959.523c72.61 0 131.47 45.775 131.47 102.241v64.307c0 56.454-58.86 102.227-131.47 102.227H957.465s59.904-21.44 59.904-134.934" fill="#daeef7"/><path d="M2048.457 1667.191v-.039.039m0-.186v-.054.054" fill="#05b2a8"/><path d="M2044.636 1691.285c-32.363-61.56-94.397-120.867-212.464-139.933-275.667-44.52-874.707-51.121-874.707-51.121h959.523c72.61 0 131.47 45.774 131.47 102.24V1667.191c-.041 8.308-1.387 16.374-3.822 24.094" fill="#badeef"/><path d="M2455.955 1787.968h-11.39l-137.709-.04 2.253-.04 149.673.04-2.827.04" fill="#aabacf"/><path d="M2454.904 1787.968h-10.34 11.393-1.053" fill="#2e3f7d"/><path d="M2458.778 1787.927l-149.654-.039c80.68-1.747 145.42-53.135 145.42-116.307v-73.92c0-64.28-67.017-116.387-149.687-116.387h150.042c82.654 0 149.67 52.108 149.67 116.387v73.92c0 63.267-64.925 114.747-145.79 116.346" fill="#2ca1af"/><path d="M920.88 2186.314h-67.986c11.122-6.92 25.039-11.053 40.175-11.053h1703.217c89.108 0 161.352 58.213 161.352 130.026v82.6c0 71.813-72.244 130.027-161.352 130.027l-1684.167-.453 8.761-331.147" fill="#feb546"/><path d="M1887.844 2175.567c85.215 0 154.289 55.667 154.289 124.346v93.348c0 68.68-69.074 124.346-154.29 124.346H827.539v-20.88h4.38l269.552-20.573 54.481-172.24s-105.15-95.187-112.01-97.64c-6.858-2.453-212.022-9.907-212.022-9.907l-4.38-.04v-20.76h1060.305" fill="#f4a640"/><path d="M896.307 2345.98c0-100.72-64.578-149.533-64.578-149.533h1034.388c78.267 0 141.72 51.134 141.72 114.214v71.853c0 63.08-63.453 114.213-141.72 114.213H831.73s64.578-23.947 64.578-150.746" fill="#daeef7"/><path d="M955.099 2420.54l14.476 32.28a5.296 5.296 0 01-2.664 7l-75.611 33.894c-5.472 2.453-10.757-3.76-7.461-8.76l29.26-45.587s23.132 4.227 42-18.826M1051.16 2420.54l14.476 32.28a5.296 5.296 0 01-2.664 7l-75.61 33.894c-5.471 2.453-10.758-3.76-7.462-8.76l29.26-45.587s23.13 4.227 42-18.826M2672.966 1452.234l-14.462 32.293a5.28 5.28 0 002.662 7l75.612 33.894c5.465 2.452 10.754-3.76 7.453-8.773l-29.262-45.588s-23.122 4.24-42.003-18.826M2574.994 1448.397l-14.487 32.294c-1.2 2.666 0 5.8 2.675 6.986l75.588 33.894c5.486 2.453 10.766-3.748 7.474-8.761l-29.247-45.586s-23.145 4.24-42.003-18.827" fill="#07085b"/><path d="M2007.837 2382.98v-.04.04m0-.213v-.04.04" fill="#d19b3e"/><path d="M2003.704 2409.9c-34.88-68.786-101.747-135.04-229.027-156.346-297.173-49.733-942.948-57.107-942.948-57.107h1034.388c78.267 0 141.72 51.134 141.72 114.214V2382.98c-.04 9.28-1.493 18.293-4.133 26.92" fill="#badeef"/><path d="M1214.477 1530.287l8.04 50.427 16.987-67.227s-23.813-11.56-24.853-7.346c-1.054 4.2-.174 24.146-.174 24.146" fill="#07085b"/><path d="M1349.61 1638.82l7.347 87.174-76.92-3.68 8.867-77.187 60.707-6.306" fill="#ffc0bb"/><path d="M1284.69 1681.834l4.214-36.707 60.707-6.306 2.546 30.186c-12.066 12.027-33.773 24.494-67.466 12.827M1237.517 1580.087c4.627 9.56 2.174 20.32-5.48 24.014-7.653 3.706-17.6-1.054-22.226-10.614-4.627-9.573-2.174-20.32 5.48-24.026 7.653-3.694 17.6 1.053 22.226 10.626" fill="#f99893"/><path d="M1226.357 1587.087c-.4-2.493-.946-4.96-1.546-7.413-2.387-9.92-3.027-20.56-1.36-31.64 5.346-35.667 34.04-64.107 69.773-69.053 48.133-6.654 90.533 28.986 93.52 76.186 4.96-3.173 10.68-4.2 15.893-2.253 10.014 3.733 14.347 16.893 9.68 29.413-4.666 12.507-16.56 19.627-26.573 15.907a15.794 15.794 0 01-3.813-2.093c-1.547 40.413-32.494 73.506-72 75.36-19.32.906-37.294-5.827-51.254-17.627-18.973-13.947-28.56-43.547-32.32-66.787" fill="#ffc0bb"/><path d="M1286.277 1560.74c-.16 4.707-.2 9.294-.44 13.8-.293 4.4-.773 9.107-2.533 12.214-1.8 2.507-3.213 4.12-3.267 7.2-.106 3.12 1.547 5.907 3.587 7.613 4.2 3.534 9.64 3.867 14.147 2.76-4.587-.813-9-2.4-11.56-5.4-1.187-1.493-1.974-3.16-1.707-4.72.2-1.72.733-2.08 2.813-4.96 1.48-2.52 1.947-5.066 2.227-7.52.227-2.466.2-4.866-.027-7.253-.466-4.733-1.466-9.347-3.24-13.733" fill="#f99893"/><path d="M1313.544 1566.954c.187 3.96 3.547 7.027 7.507 6.84a7.172 7.172 0 006.826-7.507 7.172 7.172 0 00-7.506-6.826 7.16 7.16 0 00-6.827 7.493M1252.184 1573.874c.187 3.96 3.547 7.013 7.507 6.84a7.172 7.172 0 006.826-7.507c-.186-3.96-3.546-7.013-7.506-6.84a7.181 7.181 0 00-6.827 7.507" fill="#333"/><path d="M1325.584 1615.54c-1.893 1.64-3.853 3.16-5.933 4.494-2.054 1.387-4.174 2.64-6.387 3.707-4.413 2.133-9.107 3.693-13.933 4.28-4.814.6-9.72.186-14.454-1.067-4.706-1.32-9.186-3.493-13.44-6.107 4.614 3.88 8.414 5.8 13.027 7.494 4.827 1.613 9.667 2.16 15.107 1.546 5.066-.666 9.973-2.36 14.36-4.866 4.386-2.507 8.426-5.654 11.653-9.48" fill="#f99893"/><path d="M1304.53 1550.754c3.654-1.133 7.094-1.987 10.494-2.52 3.4-.52 6.72-.613 9.973-.213 3.214.426 6.467 1.12 9.587 2.533 2.387.747 8.173 4.16 9.693 4.813-1.773-3.253-4.346-6.746-7.533-8.68-3.147-2.4-7.12-3.786-11.12-4.28a24.187 24.187 0 00-11.787 1.574c-3.626 1.48-6.96 3.706-9.306 6.773M1272.93 1554.314c-2.893-2.56-6.586-4.093-10.44-4.84a24.128 24.128 0 00-11.866.747c-3.827 1.266-7.453 3.386-10.08 6.346-2.747 2.52-4.6 6.454-5.693 10 1.373-.96 6.373-5.426 8.573-6.613 2.787-1.987 5.827-3.307 8.907-4.36 3.106-1.013 6.386-1.56 9.813-1.707 3.44-.146 6.987.027 10.787.427" fill="#07085b"/><path d="M1307.25 2047.74s16.04 108.827-89.106 127.787c-105.139 18.96-235.964 13.294-235.964 13.294l-18.204 249.973-54.89 2.8s-141.34-347.32 54.294-401.613l175.813.866 72.391-5.173s73.253-18.093 74.12-14.653c.867 3.453 19.827 28.44 21.547 26.72" fill="#06bfad"/><path d="M1403.877 2048.314s16.04 108.827-89.106 127.787c-105.134 18.96-235.963 13.293-235.963 13.293l-18.205 249.973-54.891 2.8s-141.34-347.306 54.296-401.613l175.816.867 72.387-5.174s73.253-18.093 74.12-14.653c.866 3.453 19.826 28.44 21.546 26.72" fill="#02ccc0"/><path d="M1271.437 1691.234s-72.386 9.187-90.774 24.133c-18.386 14.934-106.867 234.414-106.867 234.414l73.543 86.186 156.285 1.147s117.2 63.2 190.747 3.44c73.546-59.747 35.626-267.733-6.894-312.547-42.52-44.813-118.36-43.666-118.36-43.666s-68.946 48.253-97.68 6.893" fill="#ff5b7e"/><path d="M1411.637 1800.394c-2.6 11.96-4.173 24.107-5.306 36.293-.627 6.08-.894 12.2-1.24 18.307-.187 6.12-.334 12.253-.24 18.387.24 12.253.906 24.546 3.013 36.68 2.053 12.08 5.04 24.2 10.667 35.12-3.787-11.64-5.654-23.614-7.014-35.627-1.333-12.013-1.786-24.133-1.946-36.24-.254-12.12.04-24.253.426-36.4.427-12.147.987-24.307 1.64-36.52M1195.024 1792.354c-3.307 17.8-6.807 35.533-10.367 53.24-3.636 17.693-7.396 35.347-11.677 52.867-4.233 17.52-8.937 34.92-14.628 52-2.85 8.52-6.033 16.946-9.764 25.106-3.68 8.2-8.041 16.12-13.89 23.054 6.653-6.214 11.545-14.08 15.963-22.014 4.284-8.04 7.98-16.386 11.162-24.906 3.253-8.494 6.044-17.147 8.686-25.84 2.551-8.707 4.884-17.48 7.062-26.294 2.074-8.826 4.066-17.68 5.853-26.56 1.725-8.893 3.421-17.8 4.847-26.746 2.953-17.88 5.26-35.854 6.753-53.907" fill="#fff"/><path d="M1158.648 1986.287c.46-3.64 28.079-7.693 38.23-8.226 7.693-.387 58.68-2.094 76.026-2.88l-1.28 4.466.267 19.694 2.84 13.04c-15.214.973-52.4 2.426-60.147 3.96-10.347 2.04-28.295 9.84-28.295 9.84s-7.464-1.694 2.02-5.787c7.608-3.28 12.955-8.373 15.222-10.907 1.306-1.453-.107-4.053-1.054-3.8-25.825 6.774-28.481 7.894-28.481 7.894s-30.35-.174-.172-7c18.093-4.08 24.573-6.467 26.187-8.494.68-.866-.547-3.8-1.64-3.866-15.676-.974-43.807 4.586-36.102.933 6.284-2.96 26.072-6.227 33.768-7.453.467-.067 1.24-2.934-.866-3.12-14.927-1.24-36.95 5.093-36.523 1.706" fill="#ffc0bb"/><path d="M1429.304 1942.167c-6.36 1.547-12.627 3.32-19.013 4.654-6.334 1.506-12.76 2.613-19.12 3.96a942.717 942.717 0 01-38.56 6.173c-12.894 1.693-25.814 3.253-38.774 4.507-12.906 1.28-26.026 2.373-38.8 3.093l-1.72.093-.373 1.494c-1.107 4.32-1.813 8.546-2.36 12.88-.547 4.32-.773 8.666-.76 13.013.027 4.36.4 8.72 1.12 13.04a60.07 60.07 0 003.787 12.56l.146.347.28.186 14.187 9.534c4.733 3.173 9.48 6.32 14.28 9.413-4.453-3.573-8.947-7.067-13.467-10.547l-13.52-10.44.427.534a56.945 56.945 0 01-2.973-12.08c-.507-4.147-.734-8.32-.614-12.507.147-4.187.56-8.36 1.147-12.507.6-4.133 1.413-8.32 2.507-12.24l-2.094 1.587c6.747-.187 13.147-.613 19.707-1.093 6.533-.48 13.053-1 19.56-1.694 13.013-1.333 26-2.96 38.933-5.026a547.27 547.27 0 0038.507-7.614c6.347-1.626 12.693-3.186 18.947-5.16 6.293-1.773 12.466-3.973 18.613-6.16" fill="#fff"/><path d="M831.73 1840.034h282.68l80.147 195.64h136.174c3.8 0 6.893 3.093 6.893 6.893a6.894 6.894 0 01-6.893 6.894H925.668l-93.939-209.427" fill="#07085b"/><path d="M971.897 1951.674c1.67 8.347 8.936 13.92 16.234 12.453 7.296-1.453 11.857-9.4 10.189-17.733-1.668-8.347-8.935-13.92-16.23-12.453-7.298 1.453-11.86 9.4-10.193 17.733" fill="#daeef7"/><path d="M1212.93 1482.58s-24.133.774 1.2-19.626c25.32-20.413 93.32-44.347 136.907-21.32 0 0 8.72-18.533 21.32-14.107 12.6 4.427-8.2 17.174-8.2 17.174s16.094-.52 21 7.373c3.627 5.827-6.213 6.08-11.6 5.827 9.147 1.56 44.267 23.733 26.64 94.533-6.266-1.373-41.96-53.133-41.96-53.133s-81.626 45.346-73.546 9.28c0 0-84.574 52.786-72.574 9.186 0 0-32.702 2.4.814-35.186" fill="#07085b"/><path d="M1400.264 1552.86s-6.76-2.373-14.027 3.387c-7.266 5.774-6.466 26.04-6.466 26.04s-34.694 22.374-31.04-72.306c3.893-100.72 28.946 8.08 28.946 8.08l22.587 34.8" fill="#07085b"/><path d="M2489.504 2452.927h717.579v-39.8h-717.579v39.8M3187.076 2105.232l10.883 50.054c4.169 19.187-8.07 38.12-27.29 42.173l-640.85 135.24c-19.671 4.148-38.85-8.865-42.218-28.678l-5.646-32.867c-2.547-14.935 4.681-29.855 17.987-37.095l191.933-104.385a35.293 35.293 0 0113.121-4.095l439.616-47.508 3.162-.412c18.296-2.44 35.38 9.56 39.302 27.573" fill="#daeef7"/><path d="M2538.913 2253.969s-91.514 66.651-24.879 176.572l-3.968 28.346-117.398 7.96-107.436-21.88-19.89-179.066 257.65-76.6 15.921 64.668" fill="#e03268"/><path d="M2270.479 2517.914h996.458c9.446 0 17.082-7.64 17.082-17.067v-53.227c0-9.426-7.636-17.08-17.082-17.08H2270.48c-9.425 0-17.06 7.654-17.06 17.08v53.227c0 9.427 7.635 17.067 17.06 17.067M3260.989 2093.741l-732.42 172.708c-5.869 1.386-11.968 1.199-17.773-.455-28.815-8.28-126.533-28.92-208.729 41.254-19.413 16.574-49.405 7.76-56.388-16.774l-13.103-46.08c-4.249-14.919 1.871-30.853 15.038-39.079 106.341-66.547 571.878-345.24 878.366-324.027a87.97 87.97 0 0169.681 43.054l79.84 135.32c7.888 13.36.568 30.52-14.512 34.079M2354.214 2360.54c0 24.173 19.599 43.773 43.784 43.773 24.169 0 43.767-19.6 43.767-43.773 0-24.173-19.598-43.773-43.767-43.773-24.185 0-43.784 19.6-43.784 43.773M2486.629 402.75s82.4-13.892 110.051 78.162l-34.127 51.082s-71.585-27.5-71.854-30.192c-.286-2.691-4.07-99.051-4.07-99.051M2353.993 444.219s-24.04 36.155-36.3 50.481c-30.832 36.058-34.8 24.749-53.983 55.757-20.683 33.477.242 54.435 12.148 64.066 11.89 9.648-8.018 45.335 14.166 65.34 16.359 14.763 32.024 13.36 46.157 11.94 10.939-1.081 20.958-2.178 29.67 4.227 19.957 14.665 24.33 36.397 71.649 32.299 47.319-4.114 46.867-158.834 46.867-158.834s-38.752-82.039-40.285-82.716c-1.533-.678-90.09-42.56-90.09-42.56" fill="#ff5b7e"/><path d="M2596.667 480.924s2.818 28.381 12.22 44.75c23.611 41.137 36.35 27.655 49.417 61.688 14.139 36.73-10.336 53.444-23.8 60.72-13.483 7.278-.537 46.03-26.031 61.568-18.477 11.27-33.411 7.33-46.859 3.388-10.82-3.18-20.69-6.343-30.645-1.573-22.332 10.717-30.68 31.268-76.398 18.46-45.752-12.808-16.61-164.773-16.61-164.773s53.288-73.425 54.913-73.805c1.642-.38 103.793-10.423 103.793-10.423" fill="#ff5b7e"/><path d="M2477.111 664.16s-78.99-14.539-115.314-13.315c-36.307 1.224 22.01 95.671 22.01 95.671l59.332 1.32s36.355-40.622 33.972-45.34c-2.399-4.733.097-35.711.097-35.711l-.097-2.625" fill="#ffc0bb"/><path d="M2406.69 588.776l-20.827 63.233s18.131 37.497 73.679 21.324c0 0-6.338-13.093 2.166-40.064 8.68-27.55-55.018-44.493-55.018-44.493" fill="#ffc0bb"/><path d="M2457.288 659.176h-.016c0-4.666.527-10.498 2.14-17.512-1.613 7.03-2.14 12.846-2.124 17.512M2396.934 618.397c0-.032-.016-.047-.016-.078l2.545-7.696c.015 0 .015.016.03.016l-2.56 7.758" fill="#fd7982"/><path d="M2457.272 659.176c-35.598-4.57-54.484-19.237-60.332-40.775l2.557-7.75c14.172 18.343 35.662 30.294 59.916 31.013-1.614 7.014-2.141 12.846-2.141 17.512" fill="#fda19a"/><path d="M2533.744 542.5c-4.51 10.269-1.497 21.52 6.725 25.115 8.205 3.612 18.524-1.797 23.018-12.05 4.527-10.27 1.515-21.52-6.707-25.132-8.206-3.595-18.508 1.797-23.036 12.066" fill="#f99893"/><path d="M2536.068 589.125c5.323-13.225 8.2-27.342 9.737-39.674.33-2.644.81-5.273 1.339-7.885 2.149-10.546 2.397-21.787.231-33.424-7.042-37.409-38.4-66.288-76.272-70.106-51.013-5.158-94.356 34.07-95.678 83.958-5.356-3.157-11.423-4.017-16.861-1.769-10.415 4.331-14.465 18.382-9.06 31.408 5.39 13.01 18.218 20.052 28.632 15.738 1.438-.596 2.744-1.406 3.95-2.348 3.207 42.566 37.112 76.256 78.851 76.685 31.342.314 62.172-18.68 75.131-52.583" fill="#ffc0bb"/><path d="M2481.61 523.961c-1.664 4.703-2.505 9.617-2.796 14.627a41.862 41.862 0 00.275 7.63c.404 2.569 1.002 5.22 2.618 7.773 1.908 2.44 2.894 3.25 3.184 5.205.34 1.664-.452 3.49-1.664 5.123-2.635 3.281-7.241 5.075-12.058 6.061 4.8.938 10.49.34 14.725-3.523 2.084-1.875 3.685-4.849 3.442-8.081-.226-3.362-1.745-4.865-3.685-7.403-1.05-1.552-1.665-3.734-2.166-5.932-.533-2.214-.695-4.574-.986-6.933-.42-4.736-.598-9.585-.889-14.547" fill="#f99893"/><path d="M2453.062 531.596c-.032 4.191-3.458 7.539-7.65 7.49-4.176-.031-7.524-3.458-7.492-7.634.064-4.192 3.475-7.539 7.651-7.507 4.192.048 7.54 3.475 7.491 7.65M2518.082 536.511c-.066 4.183-3.48 7.532-7.663 7.483-4.182-.033-7.531-3.464-7.499-7.646.05-4.182 3.48-7.532 7.646-7.499 4.183.049 7.548 3.48 7.516 7.662" fill="#333"/><path d="M2472.066 607.005c-.55 0-1.133-.017-1.715-.049-18.106-1.116-18.608-17.798-18.608-17.798s3.14-1.117 7.621-1.117c3.851 0 8.689.825 13.414 3.916 0 0 5.032-3.155 11.002-3.155 2.832 0 5.89.728 8.69 2.847 0 0-3.77 15.356-20.404 15.356" fill="#fda8a3"/><path d="M2442.273 583.28a52.776 52.776 0 006.424 4.526 53.691 53.691 0 006.88 3.65c4.753 2.077 9.75 3.553 14.844 3.975 5.111.454 10.27-.178 15.202-1.687 4.932-1.574 9.572-4.024 13.953-6.96a48.333 48.333 0 01-6.295 4.834c-2.239 1.428-4.672 2.564-7.139 3.57-2.514.94-5.143 1.638-7.803 2.011a39.56 39.56 0 01-8.08.211c-5.37-.503-10.61-2.093-15.332-4.575-4.72-2.482-9.101-5.63-12.654-9.556" fill="#f99893"/><path d="M2461.934 514.156c-3.887-1.04-7.549-1.808-11.163-2.24-3.599-.415-7.101-.383-10.524.16-3.374.576-6.765 1.424-9.995 3.04-2.495.879-8.477 4.701-10.044 5.453 1.743-3.487 4.334-7.293 7.613-9.452 3.214-2.655 7.356-4.254 11.547-4.942 4.238-.672 8.588-.208 12.506 1.2 3.886 1.423 7.469 3.63 10.06 6.78M2495.424 516.678c2.96-2.812 6.792-4.556 10.822-5.51a25.569 25.569 0 0112.55.33c4.079 1.183 7.994 3.289 10.872 6.315 2.993 2.55 5.099 6.612 6.398 10.313-1.48-.954-6.94-5.477-9.31-6.629-3.01-2.006-6.282-3.273-9.556-4.26-3.322-.954-6.792-1.414-10.427-1.43-3.619-.017-7.353.312-11.35.871" fill="#ff5b7e"/><path d="M2339.727 1050.473s-23.275 109.61 82.411 135.636c105.667 26.025 239.052 28.67 239.052 28.67l2.454 255.321 55.64 6.362s165.993-344.045-29.427-411.805l-178.802-10.408-73.282-9.905s-73.32-23.1-74.417-19.652c-1.097 3.452-21.974 27.646-23.629 25.781" fill="#f4a640"/><path d="M2241.461 1044.855s-23.293 109.61 82.4 135.635c105.676 26.024 239.052 28.67 239.052 28.67l2.464 255.314 55.617 6.373s166.005-344.049-29.427-411.81l-178.794-10.407-73.28-9.903s-73.317-23.103-74.414-19.653c-1.097 3.45-21.98 27.643-23.618 25.78" fill="#feb546"/><path d="M2594.861 1216.487c-3.052-.553-6.105-1.07-9.09-1.78-3.019-.692-5.987-1.509-8.921-2.39a97.86 97.86 0 01-4.42-1.493 33.093 33.093 0 004.487-1.285c2.9-1.027 5.6-2.503 8.146-4.181 2.479-1.811 4.806-3.773 6.83-6.01 2.058-2.227 3.812-4.684 5.363-7.238l-3.019 3.286c-1.096 1.013-2.108 2.09-3.238 3.035-2.158 2.006-4.553 3.694-7.015 5.218a42.948 42.948 0 01-7.843 3.677c-2.715.912-5.633 1.579-8.314 1.675l-4.942.18 4.385 2.037c2.968 1.383 5.937 2.292 8.972 3.144 3.036.848 6.122 1.445 9.209 1.973 3.07.5 6.172.936 9.292 1.164 3.104.231 6.224.381 9.327.37-3.087-.45-6.156-.829-9.209-1.382" fill="#daeef7"/><path d="M2566.862 818.02s7.209 179.085 27.34 207.135l-110.758-25.173v-194.92l83.418 12.957" fill="#ffc0bb"/><path d="M2519.678 842.467s-15.402 45.075-18.21 69.016c-6.963 59.463.607 101.404 12.906 135.247 17.259 47.47-123.696 30.21-126.586 28.77-2.874-1.44-123.697-48.189-123.697-48.189l-23.022-66.888V842.467l6.47-53.942 272.14 53.942" fill="#02ccc0"/><path d="M2182.063 788.544l88.706 30.195s-15.326 141.933-10.539 162.07c4.101 17.214 68.43 51.438 109.196 70.599a41.36 41.36 0 0021.012 3.81c23.235-1.906 64.394-5.503 70.848-5.947 10.146-.698 38.054.02 38.936 3.575.834 3.304-21.796-.335-36.453 2.693-2.075.424-.964 3.18-.49 3.199 7.794.292 27.81 1.149 34.41 3.345 8.089 2.692-20.505.557-35.946 3.398-1.078.201-1.944 3.266-1.16 4.042 1.846 1.822 8.562 3.402 27.025 5.29 30.767 3.146.654 6.96.654 6.96s-2.761-.79-29.215-4.408c-.964-.133-2.059 2.61-.588 3.898 2.549 2.239 8.464 6.654 16.421 9 9.902 2.925 2.696 5.503 2.696 5.503s-18.741-5.588-29.264-6.376c-7.875-.591-44.982 2.43-60.21 3.303l-1.16-2.608c-20.62-.601-185.19-4.874-201.04-106.877-16.306-105.01-3.84-194.664-3.84-194.664" fill="#ffc0bb"/><path d="M2826.858 890.17h-282.685l-80.147 195.635H2327.87c-3.81 0-6.91 3.088-6.91 6.895 0 3.808 3.1 6.895 6.91 6.895h405.058l93.93-209.426" fill="#07085b"/><path d="M2686.683 1001.812c-1.669 8.34-8.952 13.917-16.235 12.456-7.3-1.46-11.855-9.405-10.186-17.742 1.669-8.338 8.935-13.914 16.218-12.452 7.318 1.458 11.872 9.402 10.203 17.738" fill="#daeef7"/><path d="M2477.115 664.142s-53.694 62.677-115.31-13.297c0 0-67.31-5.477-116.926 29.763-49.632 35.24-79.344 114.399-79.344 114.399s89.911 45.317 112.208 47.475h249.577s38.122-2.882 74.794-21.59c0 0-6.337-125.824-125-156.75" fill="#02ccc0"/><path d="M2310.565 771.061c-2.326 7.766-4.396 15.607-6.466 23.448-3.883 15.396-7.433 30.066-10.047 45.809-4.865.226-10.334-.484-15.154-1.179-25.926-4.608-42.953-11.86-66.023-21.318-34.583-15.742-29.914-14.217-47.319-22.828 20.23 12.812 31.138 18.583 45.869 25.956 20.23 9.367 39.553 18.039 66.748 22.828 11.89 1.632 15.305 1.27 19.837.756 1.738-11.543 3.747-23.373 9.277-49.283l5.137-23.72 5.287-23.72c-2.568 7.69-4.834 15.47-7.146 23.251M2507.437 729.619a430.33 430.33 0 019.588 27.761c2.79 9.326 5.27 18.733 6.928 28.255 1.576 8.094 2.643 18.781 2.282 28.747-.361 9.62-14.595 54.818-18.798 63.765 5.927-7.93 21.425-53.52 22.476-63.47 1.198-9.981.377-20.062-1.314-29.863-1.871-9.883-4.35-19.093-8.094-28.632-3.562-9.227-7.782-18.207-13.068-26.563" fill="#07085b"/><path d="M2375.416 521.995s92.21-22.237 136.26-84.89c0 0 .766-57.06-83.895-44.115-82.248 12.57-101.502 92.617-52.365 129.005" fill="#ff5b7e"/><path d="M3289.755 2553.367H417.24c-8.49 0-15.37-6.88-15.37-15.373v-7.067c0-8.493 6.88-15.373 15.37-15.373h2872.516c8.488 0 15.367 6.88 15.367 15.373v7.067c0 8.493-6.879 15.373-15.367 15.373" fill="#c4dfe8"/><path d="M384.263 1270.167l554.556-317.186 74.953 148.466-567.437 300.2-62.072-131.48" fill="#f4a640"/><path d="M1429.304 366.663s-4.375 43.128-38.405 46.12c34.03 2.98 38.405 46.107 38.405 46.107s4.374-43.128 38.418-46.107c-34.044-2.992-38.418-46.12-38.418-46.12" fill="#02ccc0"/><path d="M841.254 35.338s-5.827 57.449-51.162 61.42c45.335 3.971 51.162 61.42 51.162 61.42s5.827-57.449 51.161-61.42c-45.334-3.971-51.161-61.42-51.161-61.42" fill="#feb546"/><path d="M603.743 549.167s-3.914 38.574-34.355 41.24c30.441 2.667 34.355 41.254 34.355 41.254s3.912-38.587 34.353-41.254c-30.441-2.666-34.353-41.24-34.353-41.24M3198.767 1340.233s-5.81 57.44-51.172 61.414c45.361 3.974 51.172 61.426 51.172 61.426s5.811-57.452 51.152-61.426c-45.34-3.974-51.152-61.414-51.152-61.414" fill="#ff5b7e"/><path d="M51.161 963.74S45.335 1021.18 0 1025.155c45.335 3.973 51.161 61.427 51.161 61.427s5.827-57.454 51.162-61.427c-45.335-3.973-51.162-61.413-51.162-61.413M3371.013 891.558s-5.822 57.45-51.166 61.422c45.344 3.977 51.166 61.423 51.166 61.423s5.82-57.446 51.165-61.423c-45.344-3.971-51.165-61.422-51.165-61.422" fill="#02ccc0"/><path d="M2007.837 0s-5.829 57.455-51.157 61.42c45.328 3.98 51.157 61.42 51.157 61.42s5.828-57.44 51.172-61.42C2013.665 57.455 2007.837 0 2007.837 0" fill="#ff5b7e"/><path d="M2979.048 440.99s-3.17 36.275-27.805 38.79c24.634 2.513 27.805 38.787 27.805 38.787s3.171-36.274 27.806-38.788c-24.635-2.514-27.806-38.788-27.806-38.788" fill="#feb546"/></svg>