<svg xmlns="http://www.w3.org/2000/svg" width="76.697" height="79" viewBox="0 0 76.697 79"><g id="cat" transform="translate(-7.461 0)"><path id="Path_1093" fill="#ffc850" d="M313.09.577a2.557,2.557,0,0,1,4.169,1.984V36.817L289.137,20.2Z" data-name="Path 1093" transform="translate(-238.214 0)"/><path id="Path_1094" fill="#ebaf4b" d="M360.978,82.175,343.855,72.057l14.267-16.084a1.634,1.634,0,0,1,2.856,1.084Z" data-name="Path 1094" transform="translate(-284.49 -46.869)"/><path id="Path_1095" fill="#ffc850" d="M44.77.577A2.557,2.557,0,0,0,40.6,2.561V36.817L68.723,20.2Z" data-name="Path 1095" transform="translate(-28.027 0)"/><path id="Path_1096" fill="#ebaf4b" d="M57.17,82.175,74.293,72.057,60.026,55.973a1.634,1.634,0,0,0-2.856,1.084Z" data-name="Path 1096" transform="translate(-42.039 -46.869)"/><ellipse id="Ellipse_169" cx="35.792" cy="33.874" fill="#ffdc64" data-name="Ellipse 169" rx="35.792" ry="33.874" transform="translate(10.017 11.251)"/><path id="Path_1097" fill="#ff8087" d="M233.087,415.143V417.7a5.113,5.113,0,0,1-5.113,5.113h0a5.113,5.113,0,0,1-5.113-5.113v-2.557l5.113-2.557Z" data-name="Path 1097" transform="translate(-182.165 -348.925)"/><path id="Path_1098" fill="#5d5360" d="M235.39,343.862h-5.645a1.45,1.45,0,0,0-1.127,2.361l2.823,3.492a1.45,1.45,0,0,0,2.255,0l2.823-3.492A1.45,1.45,0,0,0,235.39,343.862Z" data-name="Path 1098" transform="translate(-186.758 -290.805)"/><g id="Group_361" data-name="Group 361" transform="translate(58.752 54.357)"><path id="Path_1099" fill="#e1a546" d="M361.449,387.517a1.273,1.273,0,0,1-.589-.144c-7.729-4.019-19.826-6.407-19.947-6.431a1.278,1.278,0,0,1,.489-2.509c.509.1,12.578,2.48,20.638,6.672a1.278,1.278,0,0,1-.591,2.412Z" data-name="Path 1099" transform="translate(-339.879 -374.379)"/><path id="Path_1100" fill="#e1a546" d="M375.832,356.482a1.276,1.276,0,0,1-.333-.044c-7.165-1.926-20.193-1.56-20.321-1.555a1.278,1.278,0,0,1-.077-2.555c.549-.017,13.537-.382,21.063,1.641a1.279,1.279,0,0,1-.332,2.513Z" data-name="Path 1100" transform="translate(-351.704 -352.291)"/></g><path id="Path_1101" fill="#ffc850" d="M68.772,140.556C49,140.556,32.98,125.39,32.98,106.682c0-13.738,8.646-25.557,21.064-30.872-17.018,2.616-30.012,16.583-30.012,33.428,0,18.708,16.024,33.874,35.792,33.874a37.358,37.358,0,0,0,14.727-3A38.013,38.013,0,0,1,68.772,140.556Z" data-name="Path 1101" transform="translate(-14.014 -64.113)"/><g id="Group_362" data-name="Group 362" transform="translate(7.461 54.358)"><path id="Path_1102" fill="#e1a546" d="M25.309,387.512a1.278,1.278,0,0,1-.591-2.412c8.06-4.191,20.128-6.572,20.638-6.672a1.278,1.278,0,0,1,.489,2.509c-.122.024-12.219,2.412-19.947,6.431A1.273,1.273,0,0,1,25.309,387.512Z" data-name="Path 1102" transform="translate(-21.473 -374.375)"/><path id="Path_1103" fill="#e1a546" d="M8.739,356.485a1.279,1.279,0,0,1-.331-2.513c7.526-2.024,20.512-1.656,21.063-1.641a1.278,1.278,0,1,1-.077,2.555c-.131,0-13.161-.371-20.321,1.555A1.278,1.278,0,0,1,8.739,356.485Z" data-name="Path 1103" transform="translate(-7.461 -352.296)"/></g><path id="Path_1104" fill="#4b3f4e" d="M136.205,258.4h0a4.487,4.487,0,0,1-4.474-4.474v-2.557a4.487,4.487,0,0,1,4.474-4.474h0a4.487,4.487,0,0,1,4.474,4.474v2.557A4.487,4.487,0,0,1,136.205,258.4Z" data-name="Path 1104" transform="translate(-105.096 -208.8)"/><path id="Path_1105" fill="#5d5360" d="M157.224,246.9a4.368,4.368,0,0,0-.639.065v6.327a2.557,2.557,0,0,0,5.113,0v-1.917A4.487,4.487,0,0,0,157.224,246.9Z" data-name="Path 1105" transform="translate(-126.115 -208.8)"/><circle id="Ellipse_170" cx="1.917" cy="1.917" r="1.917" fill="#fff" data-name="Ellipse 170" transform="translate(29.192 39.374)"/><path id="Path_1106" fill="#4b3f4e" d="M326.749,258.4h0a4.487,4.487,0,0,1-4.474-4.474v-2.557a4.487,4.487,0,0,1,4.474-4.474h0a4.487,4.487,0,0,1,4.474,4.474v2.557A4.487,4.487,0,0,1,326.749,258.4Z" data-name="Path 1106" transform="translate(-266.239 -208.8)"/><path id="Path_1107" fill="#5d5360" d="M347.768,246.9a4.368,4.368,0,0,0-.639.065v6.327a2.557,2.557,0,0,0,5.113,0v-1.917A4.487,4.487,0,0,0,347.768,246.9Z" data-name="Path 1107" transform="translate(-287.258 -208.8)"/><circle id="Ellipse_171" cx="1.917" cy="1.917" r="1.917" fill="#fff" data-name="Ellipse 171" transform="translate(58.592 39.374)"/><path id="Path_1108" fill="#4b3f4e" d="M233.556,349.769l-2.823-5.588a2.825,2.825,0,0,1-.119-.32h-.87a1.45,1.45,0,0,0-1.128,2.361l2.823,3.492a1.434,1.434,0,0,0,2.139.091C233.572,349.792,233.563,349.783,233.556,349.769Z" data-name="Path 1108" transform="translate(-186.757 -290.804)"/><path id="Path_1109" fill="#e6646e" d="M227.974,412.586l-5.113,2.557V417.7a5.093,5.093,0,0,0,.148,1.174,11.517,11.517,0,0,0,3.686-1.1v1.208a1.278,1.278,0,0,0,2.557,0v-1.208a11.516,11.516,0,0,0,3.686,1.1,5.1,5.1,0,0,0,.148-1.174v-2.557Z" data-name="Path 1109" transform="translate(-182.165 -348.925)"/><path id="Path_1110" fill="#ebaf4b" d="M192.326,412.655a8.891,8.891,0,0,1-5.038-1.554,2.448,2.448,0,0,0-2.707,0,8.927,8.927,0,0,1-11-.737,1.279,1.279,0,1,1,1.708-1.9,6.5,6.5,0,0,0,7.854.53,4.991,4.991,0,0,1,5.592,0,6.507,6.507,0,0,0,7.856-.529,1.278,1.278,0,0,1,1.707,1.9A8.929,8.929,0,0,1,192.326,412.655Z" data-name="Path 1110" transform="translate(-140.125 -345.159)"/></g></svg>