<svg id="Capa_1" enable-background="new 0 0 512 512" height="512" viewBox="0 0 512 512" width="512" xmlns="http://www.w3.org/2000/svg"><g><g><path d="m454.616 323.36v-252.92c0-29.121-23.607-52.728-52.728-52.728h57.386c-.001 0-.002 0-.002 0h-406.544c-29.121.001-52.728 23.608-52.728 52.729v252.919c0 29.121 23.607 52.728 52.728 52.728h114.937c6.834 0 13.151 3.641 16.576 9.555l39.568 68.314h25l39.568-68.314c3.425-5.914 9.742-9.555 16.576-9.555h39.382.002 57.555c29.119-.002 52.724-23.608 52.724-52.728z" fill="#e28086"/><g fill="#dd636e"><path d="m263.376 385.642-39.568 68.314 18.934 32.689c5.902 10.189 20.614 10.189 26.516 0l58.502-101.003c3.425-5.914 9.742-9.555 16.576-9.555h-64.384c-6.834.001-13.151 3.641-16.576 9.555z"/><path d="m459.272 17.713h-64.384c29.121 0 52.728 23.607 52.728 52.728v252.919c0 29.121-23.607 52.728-52.728 52.728h64.384c29.121 0 52.728-23.607 52.728-52.728v-252.92c0-29.12-23.607-52.727-52.728-52.727z"/></g></g><g><circle cx="256" cy="200.134" fill="#f0f7ff" r="134.733"/><path d="m316.435 184.998-82.066-47.381c-11.249-6.494-25.309 1.624-25.309 14.612v94.761c0 12.989 14.061 21.107 25.309 14.612l82.066-47.381c11.248-6.493 11.248-22.729 0-29.223z" fill="#e03268"/></g></g></svg>