<svg xmlns="http://www.w3.org/2000/svg" viewBox="0 0 37.96 26.74"><defs><style>.cls-1{fill:#222221;}.cls-2{fill:#fff;}</style></defs><title>2Asset 5</title><g id="Layer_2" data-name="Layer 2"><g id="Capa_1" data-name="Capa 1"><path class="cls-1" d="M37.16,4.18A4.75,4.75,0,0,0,33.81.8C30.85,0,19,0,19,0S7.11,0,4.15.8A4.78,4.78,0,0,0,.79,4.18C0,7.16,0,13.37,0,13.37s0,6.22.79,9.2a4.78,4.78,0,0,0,3.36,3.37c3,.8,14.83.8,14.83.8s11.87,0,14.83-.8a4.75,4.75,0,0,0,3.35-3.37c.8-3,.8-9.2.8-9.2S38,7.16,37.16,4.18Z"/><polygon class="cls-2" points="15.1 19.02 15.1 7.73 25.02 13.37 15.1 19.02"/></g></g></svg>