<svg xmlns="http://www.w3.org/2000/svg" xmlns:xlink="http://www.w3.org/1999/xlink" id="Layer_1" data-name="Layer 1" viewBox="0 0 330.23 359.82"><defs><style>.cls-1{fill:#a7c2c1}.cls-2{fill:#b2cfce}.cls-20,.cls-3{fill:none}.cls-3{stroke:#ff2ca5;stroke-miterlimit:10;stroke-width:7px}.cls-4{fill:#dd3887}.cls-5{opacity:.26;isolation:isolate;fill:url(#linear-gradient)}.cls-6{fill:#0accb9}.cls-7{fill:#03403a}.cls-8{fill:url(#linear-gradient-2)}.cls-9{fill:#b70060}.cls-10{fill:#ff2ca5}.cls-11{fill:#990058}.cls-12{fill:#f3f3f5}.cls-13{fill:url(#linear-gradient-3)}.cls-14{fill:#9e9e9e}.cls-15{fill:#d6d6d6}.cls-16{fill:#ededed}.cls-17{fill:url(#linear-gradient-4)}.cls-18{opacity:.38}.cls-19{fill:#606060}.cls-21{fill:#08a696}</style><linearGradient id="linear-gradient" x1="202.64" x2="202.64" y1="224.17" y2="258.43" gradientTransform="matrix(1, 0, 0, -1, 0, 362)" gradientUnits="userSpaceOnUse"><stop offset=".06" stop-color="#fff"/><stop offset=".14" stop-color="#fff" stop-opacity=".98"/><stop offset=".26" stop-color="#fff" stop-opacity=".9"/><stop offset=".4" stop-color="#fff" stop-opacity=".79"/><stop offset=".55" stop-color="#fff" stop-opacity=".63"/><stop offset=".72" stop-color="#fff" stop-opacity=".42"/><stop offset=".89" stop-color="#fff" stop-opacity=".18"/><stop offset="1" stop-color="#fff" stop-opacity="0"/></linearGradient><linearGradient id="linear-gradient-2" x1="217.27" x2="217.27" y1="174.14" y2="197.26" gradientTransform="matrix(1, 0, 0, -1, 0, 362)" gradientUnits="userSpaceOnUse"><stop offset="0" stop-color="#b70060"/><stop offset="1" stop-color="#b70060" stop-opacity="0"/></linearGradient><linearGradient id="linear-gradient-3" x1="69.06" x2="122.7" y1="210.37" y2="210.37" gradientTransform="matrix(1, 0, 0, -1, 0, 362)" gradientUnits="userSpaceOnUse"><stop offset="0" stop-color="#fff"/><stop offset="1" stop-color="#fff" stop-opacity="0"/></linearGradient><linearGradient id="linear-gradient-4" x1="99.33" x2="153.93" y1="204.47" y2="204.47" gradientTransform="matrix(1, 0, 0, -1, 0, 362)" gradientUnits="userSpaceOnUse"><stop offset=".35" stop-color="#fff"/><stop offset=".41" stop-color="#fff" stop-opacity=".98"/><stop offset=".49" stop-color="#fff" stop-opacity=".91"/><stop offset=".58" stop-color="#fff" stop-opacity=".8"/><stop offset=".69" stop-color="#fff" stop-opacity=".65"/><stop offset=".79" stop-color="#fff" stop-opacity=".45"/><stop offset=".91" stop-color="#fff" stop-opacity=".22"/><stop offset="1" stop-color="#fff" stop-opacity="0"/></linearGradient></defs><title>contact-us</title><g id="Layer_2" data-name="Layer 2"><g id="OBJECTS"><path d="M58.64,263.35l76.7,96.47h98.89c-100.74-33.88-154.94-143-121.06-243.76A192.46,192.46,0,0,1,221,0H84.37C6.42,66.16-5.45,182.74,58.64,263.35Z" class="cls-1"/><path d="M103.12,177.41A192.44,192.44,0,0,0,234.23,359.82h96V0H221A192.4,192.4,0,0,0,103.12,177.41Z" class="cls-2"/><path d="M180.23,187.86V138.4a41,41,0,0,1,41-41h2.5a41,41,0,0,1,41,41v49.46" class="cls-3"/><path d="M261.29,187.86H129.22V97.42h91.87c18,0,40.2,14.59,40.2,32.59Z" class="cls-4"/><path d="M238.24,137.83h-63A13.53,13.53,0,0,1,161.84,126l-7.57-22.43h71.34c11.64,0,27.49,9.46,25.18,22.85-1,5.93-5.38,11-11.63,11.37C238.86,137.82,238.55,137.83,238.24,137.83Z" class="cls-5"/><path d="M207.11,63.25H187.6V138.8a11.29,11.29,0,0,0,22.57,0V124.45l-14.44-9.76V78.5h11.38A5.47,5.47,0,0,0,212.58,73V68.72a5.47,5.47,0,0,0-5.47-5.47Z" class="cls-6"/><path d="M202.66,137.83a4,4,0,1,1-4-4A4,4,0,0,1,202.66,137.83Z" class="cls-7"/><rect width="88.05" height="23.12" x="173.24" y="164.74" class="cls-8"/><path d="M171.45,187.86H87V138.4a41,41,0,0,1,41-41h2.5a41,41,0,0,1,41,41Z" class="cls-9"/><rect width="129.14" height="8.42" x="42.31" y="179.44" class="cls-10"/><polygon points="202.17 209.34 181.87 219.34 181.87 187.86 202.17 187.86 202.17 209.34" class="cls-11"/><path d="M165.3,123.82H69.06v55.62h99.19v-41A37.26,37.26,0,0,0,165.3,123.82Z" class="cls-12"/><rect width="53.64" height="55.62" x="69.06" y="123.82" class="cls-13"/><rect width="17.53" height="1.54" x="75.8" y="131.05" class="cls-14"/><rect width="17.53" height="1.54" x="75.8" y="134.79" class="cls-14"/><rect width="17.53" height="1.54" x="75.8" y="138.52" class="cls-14"/><rect width="6.45" height="1.54" x="75.8" y="142.25" class="cls-14"/><circle cx="146.75" cy="144.73" r="11.54" class="cls-15"/><rect width="54.6" height="31.63" x="99.33" y="147.81" class="cls-16"/><polygon points="99.33 147.81 126.63 167.24 153.93 147.81 99.33 147.81" class="cls-17"/><g class="cls-18"><path d="M127.27,97.42h-2.5a41.24,41.24,0,0,0-10.14,1.26,41,41,0,0,1,30.83,39.72v49.46h22.79V138.4A41,41,0,0,0,127.27,97.42Z" class="cls-19"/></g><path d="M130.47,93.92H128a44.12,44.12,0,0,0-42.06,29.9h7.55A37.15,37.15,0,0,1,128,100.92h2.5A37.52,37.52,0,0,1,168,138.4v49.46h7V138.4A44.54,44.54,0,0,0,130.47,93.92Z" class="cls-10"/><path d="M35.76,334.17c11.19-2.85,22.9-2.46,34.37-3.7s23.43-4.53,31.28-13c4.85-5.24,7.71-12,12.23-17.56,8.85-10.86,23.16-15.81,37.06-17.44,5.17-.61,10.56-.81,15.44,1s8.67,5.26,12.77,8.28c1,.71,2,1.4,3,2.06V187.86h20.3V303.09A73.88,73.88,0,0,0,234.6,305c10.12-1.71,20.66-5.51,30.33-2.05,13.3,4.76,18.59,20.78,29.63,29.6,10,7.95,23.39,9.23,35.67,12.8V0H0V359.74A61.89,61.89,0,0,1,35.76,334.17Z" class="cls-20"/><path d="M147.67,352.07c3.63-3.92,5.77-9,9.15-13.15,6.06-7.43,15.52-11.15,25.05-12.68V293.8c-1-.66-2-1.35-3-2.06-4.1-3-8-6.52-12.77-8.28s-10.27-1.6-15.44-1c-13.9,1.63-28.21,6.58-37.06,17.44-4.52,5.53-7.38,12.32-12.23,17.56-7.85,8.47-19.81,11.75-31.28,13s-23.18.85-34.37,3.7A61.9,61.9,0,0,0,0,359.74v.08H134.4A29.08,29.08,0,0,0,147.67,352.07Z" class="cls-21"/><path d="M264.89,302.94c-9.67-3.46-20.21.34-30.33,2.05a73.88,73.88,0,0,1-32.39-1.9v27c1.19.89,2.35,1.81,3.53,2.68a55.61,55.61,0,0,0,41.67,9.93c7.58-1.28,15.47-4.13,22.71-1.54,8.37,3,12.51,11.93,18.52,18.63h41.59V345.34c-12.28-3.57-25.71-4.85-35.67-12.8C283.48,323.72,278.19,307.7,264.89,302.94Z" class="cls-21"/><path d="M184.58,325.86c3.87-.45,7.9-.6,11.56.74a24.43,24.43,0,0,1,6,3.52V187.86h-20.3V326.24C182.78,326.1,183.68,326,184.58,325.86Z" class="cls-9"/><path d="M270.08,341.19c-7.24-2.59-15.13.26-22.71,1.54a55.61,55.61,0,0,1-41.67-9.93c-1.18-.87-2.34-1.79-3.53-2.68a24.43,24.43,0,0,0-6-3.52c-3.66-1.34-7.69-1.19-11.56-.74-.9.11-1.8.24-2.71.38-9.53,1.53-19,5.25-25.05,12.68-3.38,4.14-5.52,9.23-9.15,13.15a29.08,29.08,0,0,1-13.27,7.75H288.6C282.59,353.12,278.45,344.18,270.08,341.19Z" class="cls-6"/></g></g></svg>