<svg xmlns="http://www.w3.org/2000/svg" viewBox="0 0 480.8 480.8"><path d="M448.784 48h-160V32c0-17.6-14.4-32-32-32h-224c-17.6 0-32 14.4-32 32v176c0 88 84 88 112 88 4.8 0 8-3.2 8-8s-3.2-8-8-8c-17.6 0-32-14.4-32-32v-3.2c2.4-16.8 16.8-28.8 33.6-28.8h110.4v16h-72c-4.8 0-8 3.2-8 8 0 18.4 7.2 36 19.2 48.8-2.4 8-3.2 15.2-3.2 23.2 0 32 19.2 60.8 48 73.6 0 4.8-2.4 14.4-24 14.4-22.4 0-40 17.6-40 40v40h16v-40c0-12.8 9.6-23.2 22.4-24l39.2 19.2c3.2 1.6 7.2 3.2 10.4 4V480h16v-40.8c4-.8 7.2-1.6 10.4-3.2l39.2-19.2c12.8.8 22.4 11.2 22.4 24v40h16v-40c0-22.4-17.6-40-40-40-21.6 0-24-9.6-24-14.4 30.4-12.8 48.8-43.2 48-76v-5.6c0-11.2-2.4-22.4-8-32h53.6c16.8 0 31.2 12 33.6 28.8 1.6 17.6-11.2 33.6-28.8 35.2h-3.2c-4.8 0-8 3.2-8 8s3.2 8 8 8c28 0 112 0 112-88V80c.8-17.6-13.6-32-31.2-32zm-334.4 152c-24.8 0-46.4 18.4-49.6 43.2-.8 12 2.4 24 9.6 33.6-39.2-8-57.6-29.6-57.6-68.8V32c0-8.8 7.2-16 16-16h224c8.8 0 16 7.2 16 16v152c0 8.8-7.2 16-16 16h-142.4zm47.2 48h87.2c28 0 51.2 20.8 55.2 48h-87.2c-28 0-51.2-20.8-55.2-48zm100.8 124c-3.2.8-5.6 4-5.6 7.2v4.8c-.8 11.2 5.6 22.4 16 27.2l-20.8 10.4c-7.2 3.2-16 3.2-23.2 0l-20-10.4c10.4-4.8 16.8-16 16-27.2v-4c0-3.2-2.4-6.4-5.6-7.2-25.6-9.6-42.4-33.6-42.4-60.8 0-4 0-8 .8-11.2 11.2 7.2 24.8 11.2 39.2 11.2h88c0 27.2-16.8 51.2-42.4 60zm202.4-108c0 39.2-18.4 60.8-57.6 68.8 7.2-9.6 10.4-21.6 9.6-33.6-3.2-24.8-24-43.2-49.6-43.2h-64.8c-13.6-15.2-32.8-24-53.6-24h-8v-16h16c17.6 0 32-14.4 32-32V64h160c8.8 0 16 7.2 16 16v184z"/><path d="M184.784 88h-8c-4.8 0-8-3.2-8-8V56c0-13.6-10.4-24-24-24s-24 10.4-24 24v24c0 4.8-3.2 8-8 8 0-4.8-3.2-8-8-8h-32c-4.8 0-8 3.2-8 8v88c0 4.8 3.2 8 8 8h32c4.8 0 8-3.2 8-8h72c13.6 0 24-10.4 24-24v-40c0-13.6-10.4-24-24-24zm-88 80h-16V96h16v72zm96-16c0 4.8-3.2 8-8 8h-72v-56c13.6 0 24-10.4 24-24V56c0-4.8 3.2-8 8-8s8 3.2 8 8v24c0 13.6 10.4 24 24 24h8c4.8 0 8 3.2 8 8v40zM440.784 80h-32c-4.8 0-8 3.2-8 8h-72c-13.6 0-24 10.4-24 24v40c0 13.6 10.4 24 24 24h8c4.8 0 8 3.2 8 8v24c0 13.6 10.4 24 24 24s24-10.4 24-24v-24c0-4.8 3.2-8 8-8 0 4.8 3.2 8 8 8h32c4.8 0 8-3.2 8-8V88c0-4.8-3.2-8-8-8zm-40 80c-13.6 0-24 10.4-24 24v24c0 4.8-3.2 8-8 8s-8-3.2-8-8v-24c0-13.6-10.4-24-24-24h-8c-4.8 0-8-3.2-8-8v-40c0-4.8 3.2-8 8-8h72v56zm32 8h-16V96h16v72zM296.784 208h32v16h-32zM216.784 40v-8h-16v8h-8v16h8v8h16v-8h8V40z"/></svg>