<svg xmlns="http://www.w3.org/2000/svg" xmlns:xlink="http://www.w3.org/1999/xlink" width="196" height="112" viewBox="0 0 196 112"><defs><path id="a" d="M4 0h188.4a3.6 3.6 0 0 1 3.6 3.6V112H0V4a4 4 0 0 1 4-4z"/><filter id="c" width="98.7%" height="98.7%" x=".6%" y="1.3%" filterUnits="objectBoundingBox"><feGaussianBlur in="SourceGraphic"/></filter><circle id="d" cx="13" cy="13" r="13"/><circle id="f" cx="13" cy="13" r="13"/><circle id="h" cx="38.5" cy="38.5" r="38.5"/><filter id="i" width="100%" height="100%" x="0%" y="0%" filterUnits="objectBoundingBox"><feGaussianBlur in="SourceGraphic"/></filter></defs><g fill="none" fill-rule="evenodd"><mask id="b" fill="#fff"><use xlink:href="#a"/></mask><use fill="#ECF8FF" xlink:href="#a"/><circle cx="195.174" cy="6.132" r="2.5" fill="#BD10E0" mask="url(#b)"/><path fill="#28BFFF" d="M-.339 105.988l6.182-.072a.87.87 0 0 1 .88.883l-.077 5.188a.87.87 0 0 1-.86.857l-6.182.073a.87.87 0 0 1-.88-.883l.078-5.189a.87.87 0 0 1 .86-.857z" mask="url(#b)" transform="rotate(23 2.724 109.416)"/><path fill="#4A13FE" d="M134.206 112.166c-2.012-.272-2.538-.604-2.537-1.547 0-.93.523-1.26 2.52-1.554.16-.976-.105-2.306 1.454-2.432.942-.076 1.252.46 1.52 2.465.98.248 2.439-.127 2.504 1.564.036.95-.457 1.225-2.544 1.498-.03.388-.045.8-.098 1.206-.103.801-.545 1.228-1.27 1.259-.714.03-1.27-.374-1.431-1.111-.09-.41-.078-.843-.118-1.348" mask="url(#b)" transform="rotate(17 135.669 110.626)"/><path fill="#6ADCFF" d="M143.267-6.988l7.578 15.157a1.305 1.305 0 0 1-1.167 1.889h-15.156a1.305 1.305 0 0 1-1.167-1.89l7.577-15.156a1.305 1.305 0 0 1 2.335 0z" filter="url(#c)" mask="url(#b)" transform="rotate(-170 142.1 1.058)"/><g mask="url(#b)"><g transform="rotate(-5 -76.5 -160.956)"><mask id="e" fill="#fff"><use xlink:href="#d"/></mask><use fill="#1F2A55" fill-rule="nonzero" xlink:href="#d"/><g mask="url(#e)"><path fill="#6CE5FF" fill-rule="nonzero" d="M12.318 6.097c2.575-.5 5.353.258 5.935 3.25.536 2.76-2.255 4.404-2.704 5.527-.34.836.025 1.846-1.303 2.105-.865.168-1.432-.492-1.564-1.172-.491-2.527 2.917-3.783 2.513-5.864-.223-1.146-1.078-1.684-2.285-1.45-2.575.5-1.025 3.106-2.975 3.485-.704.137-1.395-.191-1.56-1.04-.405-2.081 1.489-4.364 3.943-4.84zm2.276 12.244c.904-.176 1.802.463 1.988 1.42.186.957-.406 1.886-1.31 2.062-.906.176-1.803-.463-1.99-1.42-.185-.957.407-1.886 1.312-2.062z"/></g></g></g><g mask="url(#b)"><g transform="rotate(39 -15.028 273.604)"><mask id="g" fill="#fff"><use xlink:href="#f"/></mask><use fill="#1F2A55" fill-rule="nonzero" xlink:href="#f"/><g mask="url(#g)"><path fill="#6CE5FF" fill-rule="nonzero" d="M12.318 6.097c2.575-.5 5.353.258 5.935 3.25.536 2.76-2.255 4.404-2.704 5.527-.34.836.025 1.846-1.303 2.105-.865.168-1.432-.492-1.564-1.172-.491-2.527 2.917-3.783 2.513-5.864-.223-1.146-1.078-1.684-2.285-1.45-2.575.5-1.025 3.106-2.975 3.485-.704.137-1.395-.191-1.56-1.04-.405-2.081 1.489-4.364 3.943-4.84zm2.276 12.244c.904-.176 1.802.463 1.988 1.42.186.957-.406 1.886-1.31 2.062-.906.176-1.803-.463-1.99-1.42-.185-.957.407-1.886 1.312-2.062z"/></g></g></g><g fill-rule="nonzero" transform="translate(58.674 17.632)"><use fill="#1F2A55" xlink:href="#h"/><path fill="#EBEBEB" d="M33.94 63.93c0 1.611 1.3 2.918 2.905 2.918h3.875a2.912 2.912 0 0 0 2.906-2.918v-5.838H33.94v5.838z"/><path fill="#7C70ED" d="M29.374 47.544a17.499 17.499 0 0 1-2.386-1.856 4.835 4.835 0 0 1-5.499 3.563 4.853 4.853 0 0 1-3.999-5.203 4.843 4.843 0 0 1 4.825-4.44c.148 0 .29.031.432.044a17.565 17.565 0 0 1-1.391-6.854h-1.233l-.67 3.198a.972.972 0 0 1-.588.703.964.964 0 0 1-.909-.102l-2.677-1.853-2.906 2.919 1.84 2.687a.975.975 0 0 1-.598 1.504l-3.18.673v3.891l3.184.672a.971.971 0 0 1 .598 1.504l-1.844 2.688 2.906 2.919 2.677-1.849a.965.965 0 0 1 .91-.102c.3.12.522.385.588.704l.669 3.193h3.875l.668-3.198a.971.971 0 0 1 .589-.704.964.964 0 0 1 .91.102l2.676 1.854 3.04-3.054a5.665 5.665 0 0 0-2.507-3.603z"/><path fill="#8600FD" d="M56.219 32.798c-.001-8.396-5.936-15.61-14.145-17.195-8.21-1.584-16.385 2.906-19.485 10.703-3.1 7.798-.253 16.708 6.785 21.238a5.584 5.584 0 0 1 2.628 4.671v3.932c0 1.611 1.3 2.918 2.906 2.918h7.75a2.912 2.912 0 0 0 2.905-2.918v-3.85a5.736 5.736 0 0 1 2.684-4.79 17.515 17.515 0 0 0 7.972-14.709z"/><path fill="#6CC6FF" d="M62.218 22.506l3.045-2.293-3.487-4.67-3.045 2.293a1.93 1.93 0 0 1-2.15.117 1.95 1.95 0 0 1-.93-1.948l.538-3.784-5.754-.825-.538 3.783a1.941 1.941 0 0 1-1.436 1.61 1.932 1.932 0 0 1-2.031-.717l-2.284-3.059-4.65 3.502 2.284 3.06c.47.629.515 1.48.116 2.157a1.935 1.935 0 0 1-1.94.935l-3.768-.54-.822 5.779 3.768.54a1.94 1.94 0 0 1 1.603 1.443 1.95 1.95 0 0 1-.715 2.04l-3.044 2.293 3.487 4.67 3.045-2.293a1.931 1.931 0 0 1 2.15-.118 1.95 1.95 0 0 1 .93 1.95l-.542 3.782 5.754.826.542-3.784a1.942 1.942 0 0 1 1.437-1.61c.76-.195 1.561.088 2.03.718l2.285 3.057 4.65-3.502-2.285-3.058a1.953 1.953 0 0 1-.118-2.159 1.934 1.934 0 0 1 1.942-.934l3.767.54.822-5.778-3.767-.54a1.941 1.941 0 0 1-1.602-1.444 1.95 1.95 0 0 1 .713-2.039zM51.12 34.026c-3.746 0-6.781-3.048-6.781-6.81 0-3.76 3.035-6.81 6.78-6.81 3.746 0 6.781 3.05 6.781 6.81 0 3.762-3.035 6.81-6.78 6.81z"/><path fill="#9E9E9E" d="M33.94 61.011h9.686v1.946H33.94z"/><g fill="#7901E4"><path d="M37.814 53.228h1.937v2.919h-1.937zM39.751 51.282h-1.937a6.212 6.212 0 0 0-3.972-5.798 13.612 13.612 0 0 1-8.562-11.398 13.639 13.639 0 0 1 6.275-12.812l1.028 1.646a11.69 11.69 0 0 0-5.381 10.982 11.667 11.667 0 0 0 7.34 9.772 8.14 8.14 0 0 1 5.21 7.608z"/></g></g><path fill="#4E3CFF" d="M19.363 46.945l.996 1.147a1.74 1.74 0 0 1-.172 2.454l-4.92 4.278a1.74 1.74 0 0 1-2.454-.171l-.996-1.147a1.74 1.74 0 0 1 .171-2.455l4.92-4.278a1.74 1.74 0 0 1 2.455.172z"/><circle cx="35.174" cy="92.132" r="2.5" fill="#BD10E0"/><path fill="#1063E0" d="M175.542 27.728c.406.574.91 1.289.91 2.64 0 1.352-.505 2.067-.911 2.64-.341.483-.588.832-.588 1.6 0 .769.246 1.117.588 1.6.406.574.91 1.288.91 2.64s-.505 2.066-.911 2.64c-.341.483-.588.832-.588 1.6 0 .768.246 1.117.587 1.6l-1.176 1.04c-.405-.574-.91-1.288-.91-2.64 0-1.351.505-2.066.911-2.64.342-.483.588-.831.588-1.6 0-.768-.246-1.117-.587-1.6-.406-.573-.911-1.288-.911-2.64 0-1.35.505-2.066.911-2.64.342-.482.588-.831.589-1.6 0-.768-.247-1.116-.588-1.599" filter="url(#i)" transform="rotate(-5 174.953 36.728)"/></g></svg>