<svg xmlns="http://www.w3.org/2000/svg" width="1522" height="611.927" viewBox="0 0 1522 611.927"><g id="Group_209" data-name="Group 209" transform="translate(-199 -2806.591)"><g id="Group_185" data-name="Group 185" transform="translate(1336.919 3131.382) rotate(180)"><g id="Group_183" data-name="Group 183" transform="translate(0 0)"><path id="Path_481" fill="#057e72" d="M.572,0A.33.33,0,0,0,.3.09.6.6,0,0,0,.034.808c.987,1.885,1.526,2.962,1.526,2.962a.565.565,0,0,0,.718.269.565.565,0,0,0,.269-.718L1.021.269A.494.494,0,0,0,.572,0Z" data-name="Path 481" transform="translate(368.554 271.213)"/><path id="Path_482" fill="#057e72" d="M16.872,0H14.09a.579.579,0,0,0-.538.538.579.579,0,0,0,.538.538h6.731A.579.579,0,0,0,21.36.538.579.579,0,0,0,20.821,0ZM7.359.179h0C5.116.269,2.872.359.538.449A.6.6,0,0,0,0,1.077a.6.6,0,0,0,.628.538l6.731-.269A.579.579,0,0,0,7.9.808C7.9.359,7.718.179,7.359.179Zm20.283,0A.579.579,0,0,0,27.1.718a.579.579,0,0,0,.538.538l6.731.269A.656.656,0,0,0,35,.987a.656.656,0,0,0-.538-.628c-2.244,0-4.577-.09-6.821-.179ZM41.1.987a.517.517,0,0,0-.538.538.656.656,0,0,0,.538.628c2.244.18,4.487.359,6.731.628a.593.593,0,0,0,.628-.538.656.656,0,0,0-.538-.628c-2.244-.269-4.487-.449-6.821-.628ZM54.566,2.333a.5.5,0,0,0-.538.449c0,.269.179.628.449.628,2.244.269,4.487.538,6.641.9.269,0,.628-.18.628-.449s-.179-.628-.449-.628c-2.244-.359-4.487-.628-6.731-.9ZM67.938,4.308a.5.5,0,0,0-.538.449.527.527,0,0,0,.449.628c2.244.359,4.4.808,6.641,1.256a.546.546,0,0,0,.179-1.077c-2.244-.449-4.4-.808-6.641-1.256Zm13.193,2.6a.569.569,0,0,0-.538.449.478.478,0,0,0,.449.628c2.154.449,4.4.987,6.551,1.526a.6.6,0,1,0,.269-1.167c-2.154-.538-4.4-1.077-6.551-1.526C81.22,6.91,81.22,6.91,81.131,6.91Zm13.193,3.141a.569.569,0,0,0-.538.449.61.61,0,0,0,.359.718c2.154.628,4.4,1.167,6.462,1.795a.568.568,0,1,0,.359-1.077c-2.154-.628-4.308-1.256-6.551-1.795A.088.088,0,0,0,94.323,10.052Zm12.923,3.859a.55.55,0,0,0-.18,1.077c2.154.718,4.308,1.436,6.372,2.154a.568.568,0,1,0,.359-1.077l-6.462-2.154Zm12.744,4.4a.606.606,0,0,0-.538.359.536.536,0,0,0,.359.718c2.064.808,4.218,1.615,6.282,2.423a.542.542,0,1,0,.449-.987c-2.064-.808-4.218-1.615-6.282-2.423A.33.33,0,0,0,119.991,18.308Zm12.564,5.026a.558.558,0,0,0-.538.359.565.565,0,0,0,.269.718l6.192,2.692a.542.542,0,1,0,.449-.987c-2.064-.9-4.128-1.885-6.192-2.692C132.735,23.334,132.645,23.334,132.555,23.334Zm12.3,5.564a.558.558,0,0,0-.538.359.5.5,0,0,0,.269.718c1.974.987,4.039,1.974,6.013,3.051a.542.542,0,1,0,.449-.987c-1.974-.987-4.039-2.064-6.013-3.051A.313.313,0,0,0,144.85,28.9Zm12.026,6.193a.494.494,0,0,0-.449.269.47.47,0,0,0,.179.718c1.974,1.077,3.949,2.154,5.923,3.321a.585.585,0,0,0,.628-.987c-1.974-1.167-3.949-2.244-5.923-3.321Zm11.667,6.731a.494.494,0,0,0-.449.269.585.585,0,0,0,.18.808c1.885,1.167,3.859,2.333,5.744,3.59a.585.585,0,1,0,.628-.987c-1.885-1.167-3.859-2.423-5.744-3.59C168.723,41.911,168.633,41.822,168.543,41.822Zm11.4,7.359a.494.494,0,0,0-.449.269.585.585,0,0,0,.179.808c1.885,1.256,3.769,2.513,5.564,3.859a.575.575,0,1,0,.718-.9c-1.795-1.256-3.68-2.6-5.564-3.859C180.121,49.181,180.031,49.181,179.941,49.181Zm11.039,7.808a.494.494,0,0,0-.449.269.668.668,0,0,0,.09.808l5.385,4.039a.575.575,0,0,0,.718-.9c-1.795-1.346-3.59-2.782-5.385-4.128A.679.679,0,0,0,190.98,56.989Zm10.59,8.257a.685.685,0,0,0-.449.18.568.568,0,0,0,.09.808c1.705,1.436,3.5,2.872,5.205,4.308a.575.575,0,0,0,.718-.9c-1.705-1.436-3.5-2.962-5.205-4.308C201.839,65.335,201.75,65.245,201.57,65.245Zm10.321,8.8c-.179,0-.269.09-.449.179a.67.67,0,0,0,0,.808c1.705,1.526,3.321,3.051,4.936,4.577a.571.571,0,1,0,.808-.808c-1.615-1.526-3.321-3.051-5.026-4.577C212.16,74.13,211.981,74.041,211.891,74.041Zm9.782,9.244a.466.466,0,0,0-.359.179.67.67,0,0,0,0,.808c1.615,1.526,3.231,3.141,4.757,4.757a.571.571,0,0,0,.808-.808c-1.526-1.615-3.141-3.231-4.757-4.846C221.942,83.374,221.853,83.284,221.673,83.284Zm9.423,9.693a.466.466,0,0,0-.359.18.5.5,0,0,0,0,.808c1.526,1.615,3.051,3.321,4.487,5.026a.575.575,0,1,0,.9-.718c-1.526-1.705-3.051-3.41-4.577-5.026C231.366,93.067,231.276,92.977,231.1,92.977Zm8.975,10.141a.539.539,0,0,0-.359.09.568.568,0,0,0-.09.808c1.436,1.705,2.872,3.5,4.308,5.205a.575.575,0,1,0,.9-.718c-1.436-1.795-2.872-3.5-4.308-5.205A1.516,1.516,0,0,0,240.071,103.118Zm8.436,10.59a.54.54,0,0,0-.359.09.568.568,0,0,0-.09.808l4.039,5.385a.575.575,0,0,0,.9-.718c-1.346-1.795-2.692-3.68-4.039-5.475A3.889,3.889,0,0,1,248.507,113.708Zm7.9,10.949a.678.678,0,0,0-.359.09.585.585,0,0,0-.18.808c1.256,1.885,2.513,3.769,3.68,5.654a.585.585,0,0,0,.987-.628q-1.75-2.827-3.769-5.654C256.674,124.747,256.584,124.657,256.4,124.657Zm7.269,11.4a.33.33,0,0,0-.269.09.585.585,0,0,0-.18.808c1.167,1.974,2.333,3.859,3.41,5.834a.585.585,0,0,0,.987-.628c-1.077-1.974-2.244-3.859-3.41-5.833A.776.776,0,0,0,263.674,136.055Zm6.641,11.757a.33.33,0,0,0-.269.09.6.6,0,0,0-.269.718c1.077,1.974,2.064,4.039,3.051,6.013a.542.542,0,1,0,.987-.449c-.987-1.974-1.974-4.039-3.051-6.013A.458.458,0,0,0,270.316,147.812Zm5.923,12.205a.33.33,0,0,0-.269.09.5.5,0,0,0-.269.718c.9,2.064,1.795,4.128,2.6,6.192a.542.542,0,0,0,.987-.449c-.808-2.064-1.705-4.128-2.6-6.282A.493.493,0,0,0,276.239,160.018Zm4.936,12.475H281a.61.61,0,0,0-.359.718c.718,2.154,1.436,4.308,2.064,6.372a.568.568,0,1,0,1.077-.359c-.628-2.154-1.346-4.308-2.064-6.462A.767.767,0,0,0,281.175,172.492Zm3.949,13.013h-.09a.711.711,0,0,0-.449.718c.538,2.244.987,4.4,1.346,6.551.09.269.359.538.628.449s.538-.359.449-.628c-.359-2.154-.9-4.4-1.436-6.641A.481.481,0,0,0,285.124,185.505Zm-10.052,11.847a45.487,45.487,0,0,0-4.936.269.585.585,0,0,0,.09,1.167,41.062,41.062,0,0,1,6.641-.179.538.538,0,0,0,0-1.077A5.264,5.264,0,0,0,275.072,197.352Zm8.616.808a.5.5,0,0,0-.538.449.527.527,0,0,0,.449.628c1.077.18,2.244.449,3.321.718.179,2.064.269,4.128.269,6.1a.579.579,0,0,0,.539.538h0a.579.579,0,0,0,.538-.538c0-1.885-.09-3.769-.269-5.744a16.746,16.746,0,0,1,1.974.628.568.568,0,1,0,.359-1.077,20.529,20.529,0,0,0-2.513-.718c-.09-.179-.359-.359-.539-.269a.33.33,0,0,0-.269.09c-1.077-.269-2.244-.538-3.321-.718C283.778,198.16,283.778,198.16,283.688,198.16Zm-20.1.628h-.18a41.971,41.971,0,0,0-6.462,2.064.542.542,0,1,0,.449.987,58.961,58.961,0,0,1,6.372-2.064.711.711,0,0,0,.449-.718A1.026,1.026,0,0,0,263.585,198.788Zm32.937,3.41a.558.558,0,0,0-.538.359.565.565,0,0,0,.269.718c1.974.9,3.949,1.885,6.013,3.051a.585.585,0,0,0,.628-.987,55.3,55.3,0,0,0-6.1-3.051A.33.33,0,0,0,296.522,202.2ZM251.2,203.9a.33.33,0,0,0-.269.09,25.741,25.741,0,0,0-5.3,4.308.571.571,0,1,0,.808.808,23.428,23.428,0,0,1,5.116-4.128.585.585,0,0,0,.179-.808A.776.776,0,0,0,251.2,203.9Zm57.079,4.936a.494.494,0,0,0-.449.269.585.585,0,0,0,.18.808c1.795,1.256,3.59,2.6,5.385,3.949a.575.575,0,1,0,.718-.9c-1.795-1.436-3.68-2.782-5.474-4.039A.54.54,0,0,0,308.278,208.839Zm-20.821,3.41a.5.5,0,0,0-.538.449,36.8,36.8,0,0,1-1.346,6.551.568.568,0,1,0,1.077.359A37.227,37.227,0,0,0,288,212.878a.656.656,0,0,0-.538-.628ZM242.046,213.6a.558.558,0,0,0-.538.359,21.062,21.062,0,0,0-1.974,6.641c0,.269.18.628.449.628.359,0,.628-.18.628-.449a19.535,19.535,0,0,1,1.885-6.282.5.5,0,0,0-.269-.718C242.225,213.6,242.135,213.6,242.046,213.6Zm76.823,3.59c-.179,0-.269.09-.449.179a.67.67,0,0,0,0,.808c1.615,1.436,3.231,3.051,4.846,4.667a.571.571,0,0,0,.808-.808c-1.615-1.615-3.321-3.231-4.936-4.667C319.138,217.276,319.048,217.186,318.868,217.186Zm-35.45,7.9a.776.776,0,0,0-.538.269c-1.077,2.064-2.154,4.039-3.321,5.833a.585.585,0,0,0,.987.628,60.62,60.62,0,0,0,3.41-5.923.5.5,0,0,0-.269-.718A.33.33,0,0,0,283.419,225.084Zm45.053,1.705a.466.466,0,0,0-.359.179.5.5,0,0,0,0,.808c1.436,1.615,2.962,3.321,4.4,5.026a.575.575,0,1,0,.9-.718c-1.436-1.795-2.962-3.5-4.487-5.116A.494.494,0,0,0,328.471,226.789Zm-88.131,0h-.09c-.269.09-.538.359-.449.628a24.62,24.62,0,0,0,2.244,6.551.542.542,0,1,0,.987-.449,25.354,25.354,0,0,1-2.154-6.192A.517.517,0,0,0,240.34,226.789ZM275.97,236.3c-.18,0-.269.09-.449.179a31.6,31.6,0,0,1-4.936,4.4.575.575,0,1,0,.718.9,30.227,30.227,0,0,0,5.116-4.577.67.67,0,0,0,0-.808A.809.809,0,0,0,275.97,236.3Zm61.207.808a.54.54,0,0,0-.359.09.568.568,0,0,0-.09.808c1.346,1.705,2.692,3.59,4.039,5.385a.575.575,0,0,0,.9-.718q-2.019-2.827-4.039-5.385A.686.686,0,0,0,337.177,237.11Zm-90.644,1.526a.466.466,0,0,0-.359.179.566.566,0,0,0,0,.808,19.116,19.116,0,0,0,5.564,4.128.542.542,0,0,0,.449-.987,19.964,19.964,0,0,1-5.205-3.949A1.516,1.516,0,0,0,246.533,238.635Zm18.4,5.205h-.179a15.924,15.924,0,0,1-5.026.808h0a7.721,7.721,0,0,1-1.436-.09.585.585,0,1,0-.09,1.167,9.23,9.23,0,0,0,1.526.09,18.657,18.657,0,0,0,5.385-.808.61.61,0,0,0,.359-.718A.5.5,0,0,0,264.931,243.84Zm80.233,4.218a.678.678,0,0,0-.359.09.585.585,0,0,0-.18.808c1.256,1.795,2.513,3.769,3.68,5.654a.585.585,0,1,0,.987-.628l-3.769-5.654C345.523,248.148,345.343,248.059,345.164,248.059Zm7.269,11.308a.33.33,0,0,0-.269.09.585.585,0,0,0-.18.808c1.167,1.974,2.333,3.949,3.41,5.833a.566.566,0,0,0,.808.179.585.585,0,0,0,.18-.808c-1.077-1.974-2.244-3.949-3.41-5.833C352.792,259.546,352.613,259.367,352.433,259.367Z" data-name="Path 482" transform="translate(10.052)"/><path id="Path_483" fill="#057e72" d="M3.949,0h0C2.782.09,1.705.18.538.269A.6.6,0,0,0,0,.9a.6.6,0,0,0,.628.538c1.077-.09,2.244-.18,3.321-.269A.6.6,0,0,0,4.487.538.579.579,0,0,0,3.949,0Z" data-name="Path 483" transform="translate(0 0.808)"/></g><g id="Group_184" data-name="Group 184" transform="translate(329.369 243.212)"><path id="Path_484" fill="#f05757" d="M27.462,0,0,5.923,90.015,48.912Z" data-name="Path 484" transform="translate(0 32.668)"/><path id="Path_485" fill="#d2373a" d="M0,22.8,1.615,0,10.59,15.526,62.553,71.707Z" data-name="Path 485" transform="translate(27.462 9.872)"/><path id="Path_486" fill="#b32d2f" d="M0,0,16.244,8.8,8.975,15.526Z" data-name="Path 486" transform="translate(29.078 9.872)"/><path id="Path_487" fill="#f05757" d="M0,25.4,20.372,0,51.963,81.579Z" data-name="Path 487" transform="translate(38.052 0)"/></g></g><g id="XMLID_24_" transform="translate(199.087 3150.082)"><path id="XMLID_58_" fill="#5fe383" d="M476.908,199.661c-44.523,22.8-97.733,26.424-145.514,13.031a149.688,149.688,0,0,1-73.481-48.143c-7.964-10.135-21.719-10.135-32.578-18.1s-19.547-19.185-23.528-31.854c-2.534-7.6-2.9-16.651,2.172-22.442,5.792-6.154,15.927-5.792,23.528-2.534s14.117,9.411,21.718,13.031c-14.117-10.135-22.8-27.872-21.356-45.247.362-5.068,1.81-10.5,4.706-14.479,3.258-4.344,8.325-7.239,13.393-6.516,6.877.724,11.583,7.239,13.755,13.755s2.9,13.393,6.154,19.547c2.9-15.927,17.737-28.234,34.026-28.6,15.927-.362,31.492,11.945,34.75,27.51.724-9.773-1.81-19.547-2.9-29.32-1.448-9.773-1.448-20.271,3.62-28.6s16.289-13.755,24.976-9.049c4.706,2.534,7.963,7.6,9.773,12.669,4.706,13.755,1.81,28.6-1.086,42.713-1.448-9.049,3.982-19.185,12.669-22.442s19.547,0,24.614,7.963,3.62,19.185-2.9,25.7c-.724-20.271,13.031-40.541,32.216-47.419,7.964-2.9,18.823-2.534,23.166,4.706,3.62,5.43,2.172,13.031-.362,19.185a89.092,89.092,0,0,1-20.994,31.492c35.473-34.026,77.1,39.093,34.388,60.088,6.154-12.307,26.062-13.031,35.112-2.534s8.325,27.148,1.448,39.093C501.522,185.182,489.215,193.146,476.908,199.661Z" transform="translate(524.18 0)"/><path id="XMLID_57_" fill="#5fe383" d="M319.876,139.867c-11.945,2.172-25.338,2.172-34.75,7.24-26.062,14.479-45.247,34.388-76.739,38.007-32.578,3.62-82.168-7.6-105.7-31.854-5.43-5.792-31.854-56.468-30.768-56.83a28.983,28.983,0,0,1,28.234,11.945c-5.068-9.049-9.411-19.185-9.773-29.682s7.6-28.6,20.995-27.148c10.135,1.086,22.8,20.995,26.786,29.32-2.534-9.411-5.068-18.461-7.6-27.872-1.448-5.43-2.9-11.583-1.086-17.013,2.9-7.963,13.031-11.583,20.995-9.049s13.755,9.773,16.651,17.737,3.258,16.289,3.62,24.976c-4.706-9.411.362-22.442,10.5-26.062S203.32,47.2,205.492,57.7c-2.534-11.945-17.013-40.179-3.62-49.953,4.706-3.62,11.945-2.534,16.289,1.086S225.039,18.6,225.4,24.4s-.724,11.583-1.81,17.375c-.362-12.307,10.859-24.252,23.166-24.252,12.669-.362,23.89,10.859,24.252,23.528,0-13.393-2.172-27.148,11.945-33.664,10.135-4.706,23.89-.362,29.32,9.049,6.516,11.583,1.086,27.872-10.5,33.664,24.252-11.945,67.689-3.982,50.676,32.578-4.344,9.411-12.307,17.013-20.633,23.528,9.049-2.172,15.2,11.221,10.5,19.185C337.975,134.437,329.288,138.057,319.876,139.867Z" transform="translate(188.563 14.548)"/><path id="XMLID_56_" fill="#44c788" d="M13.258,208.933c5.792,2.9,12.307,4.706,18.1,7.24h399.62c4.344-9.773,4.706-21.357-1.086-30.768-10.135-16.651-35.836-20.271-51.038-7.963a49.182,49.182,0,0,0,13.755-30.768,41,41,0,0,0-33.3,8.687c11.945-10.859,19.547-26.786,18.461-43.075s-11.945-31.854-27.51-36.2c-15.565-4.706-34.388,3.982-39.455,19.185,1.086-19.185-13.393-38.369-32.216-42.351s-39.817,7.6-46.333,25.7c-2.534-22.08-7.6-47.781-28.234-56.468-17.737-7.239-38.731,3.62-49.229,19.909-9.049,14.117-11.945,31.492-14.117,48.5-1.448-10.5-15.2-19.185-25.338-13.755-10.859,5.792-11.583,22.442-3.982,31.13-12.669-9.773-31.13-11.221-44.885-3.258-14.117,7.963-22.08,25.7-19.547,41.627-3.258-7.24-14.479-10.5-21.357-5.792-8.325,5.792-10.135,17.737-6.878,27.148s10.5,17.013,17.375,24.252c-4.706-4.706-9.773-9.773-16.289-11.945s-14.841-.724-18.461,5.068C-3.393,193.73,4.571,204.589,13.258,208.933Z" transform="translate(0 52.264)"/><path id="XMLID_55_" fill="#44c788" d="M243.506,196.892c3.982,1.81,7.963,3.258,11.945,4.706H622.494a30.041,30.041,0,0,0-1.81-26.062c-9.049-15.2-32.578-18.461-45.971-7.24a45.161,45.161,0,0,0,12.669-27.872,35.918,35.918,0,0,0-30.406,7.963c10.859-9.773,17.737-24.252,17.013-39.093-1.086-14.479-10.859-28.6-24.976-32.94-14.117-3.982-31.13,3.62-35.474,17.375,1.086-17.375-11.945-34.75-29.32-38.369-17.013-3.62-35.835,6.878-41.989,23.166-2.172-19.909-6.878-43.437-25.338-51.038-15.927-6.516-35.112,3.258-44.523,18.1-8.325,13.031-10.859,28.6-12.669,43.8-1.448-9.411-13.755-17.375-23.166-12.307-9.773,5.43-10.5,20.271-3.62,28.234-11.583-8.687-28.234-10.135-40.9-2.9s-19.909,23.166-17.737,37.645c-2.9-6.516-13.031-9.411-19.547-5.068-7.6,5.068-9.049,15.927-6.154,24.614s9.411,15.2,15.927,21.718c-4.344-4.344-9.049-9.049-14.841-10.859-5.792-2.172-13.393-.724-16.651,4.706C228.3,182.775,235.181,192.91,243.506,196.892Z" transform="translate(606.637 66.839)"/><g id="Group_186" data-name="Group 186" transform="translate(375.819 22.346)"><path id="XMLID_54_" fill="#44c788" d="M120.189,238.812c9.773,5.068,21.356,6.878,30.044,13.393H633.107c7.24-13.031,8.687-29.682,1.086-42.351-12.307-20.633-44.523-24.976-62.622-10.135,9.773-10.135,16.289-23.89,17.013-38.007a49.858,49.858,0,0,0-41.265,10.5c14.841-13.393,24.252-33.3,22.8-52.848-1.448-19.909-14.841-39.093-34.026-44.523s-42.351,5.068-48.5,23.89c1.448-23.89-16.289-47.057-39.817-52.124s-48.867,9.411-57.192,31.854c-2.9-27.148-9.411-59-34.75-69.5-21.718-9.049-47.781,4.706-60.812,24.252C283.8,50.947,280.182,71.942,277.648,92.936c-1.81-13.031-18.823-23.89-31.492-17.013-13.031,7.239-14.479,27.51-4.706,38.731-15.565-11.945-38.369-13.755-55.382-3.982-17.375,10.135-27.148,31.492-24.252,51.038-3.982-9.049-17.737-13.031-26.424-7.239-10.135,6.878-12.307,21.718-8.325,33.3s13.031,20.995,21.357,29.682c-6.154-5.792-12.307-11.945-20.271-14.841s-18.1-1.086-22.442,6.154C99.556,219.989,108.967,233.382,120.189,238.812Z" transform="translate(-103.762 -6.114)"/><path id="XMLID_53_" fill="#32ab8e" d="M210.214,42.721c-1.81-4.706-4.706-7.963-10.135-8.687-9.411-.724-18.461,7.24-19.909,16.289-3.258-3.982-7.24-7.6-11.583-9.411-5.43-1.81-10.135.724-14.479,3.982-7.963,6.154-9.049,19.185-2.534,26.786,1.448,1.81,3.982-.724,2.534-2.534-2.172-2.534-2.9-8.325-2.9-11.583,0-5.43,3.258-8.687,7.6-11.583,9.049-5.43,16.651,3.982,22.081,10.5,1.448,1.81,3.62-.362,2.9-2.172a16.294,16.294,0,0,1,11.583-16.289c5.43-1.81,9.411.724,11.583,6.154,1.086,3.258,4.706,10.135,2.534,13.031-1.448,2.172,1.81,3.982,3.258,1.81C216.005,54.666,212.386,47.788,210.214,42.721Z" transform="translate(10.367 66.906)"/><path id="XMLID_52_" fill="#32ab8e" d="M223.255,48.814c-4.706-.724-10.135.362-13.755,3.258-.724-10.859-3.982-24.976-14.841-24.252-9.411.724-22.442,14.479-15.565,23.528,1.448,1.81,4.706,0,3.258-1.81-6.154-8.325,12.307-24.252,18.823-14.479,3.982,5.792,4.706,14.117,5.068,21.357a10.02,10.02,0,0,0-1.086,4.706c0,1.81,2.534,2.172,3.258,1.086a1.656,1.656,0,0,0,1.448-1.81V57.5c1.81-3.258,5.792-4.706,9.773-5.068,3.62-.362,13.031,3.258,7.963,7.963a1.8,1.8,0,1,0,2.534,2.534C235.924,57.139,229.771,49.9,223.255,48.814Z" transform="translate(88.543 50.677)"/><path id="XMLID_51_" fill="#32ab8e" d="M221.279,33.2c-9.411,0-16.651,7.963-18.461,16.651-.362,2.172,3.258,3.258,3.62,1.086,1.086-6.516,5.792-12.669,12.669-13.755a12.925,12.925,0,0,1,15.2,11.945c0,2.534,3.982,2.534,3.62,0A16.71,16.71,0,0,0,221.279,33.2Z" transform="translate(155.675 64.843)"/></g><g id="Group_187" data-name="Group 187" transform="translate(939.092 22.346)"><path id="XMLID_50_" fill="#44c788" d="M275.76,238.812c9.773,5.068,21.356,6.878,30.044,13.393H788.678c7.239-13.031,8.688-29.682,1.086-42.351-12.307-20.633-44.523-24.976-62.622-10.135,9.773-10.135,16.289-23.89,17.013-38.007a49.858,49.858,0,0,0-41.265,10.5c14.841-13.393,24.252-33.3,22.8-52.848-1.448-19.909-14.841-39.093-34.026-44.523s-42.351,5.068-48.5,23.89c1.448-23.89-16.289-47.057-39.817-52.124s-48.867,9.411-57.192,31.854c-2.9-27.148-9.411-59-34.75-69.5-21.718-9.049-47.781,4.706-60.812,24.252-11.221,17.737-14.841,38.731-17.375,59.726-1.81-13.031-18.823-23.89-31.492-17.013-13.031,7.239-14.479,27.51-4.706,38.731-15.565-11.945-38.369-13.755-55.382-3.982-17.375,10.135-27.148,31.492-24.252,51.038-3.982-9.049-17.737-13.031-26.424-7.239-10.135,6.878-12.307,21.718-8.325,33.3s13.031,20.995,21.356,29.682c-6.154-5.792-12.307-11.945-20.271-14.841s-18.1-1.086-22.442,6.154C255.127,219.989,264.9,233.382,275.76,238.812Z" transform="translate(-259.373 -6.114)"/><path id="XMLID_49_" fill="#32ab8e" d="M365.914,42.721c-1.81-4.706-4.706-7.963-10.135-8.687-9.411-.724-18.461,7.24-19.909,16.289-3.258-3.982-7.239-7.6-11.583-9.411-5.43-1.81-10.135.724-14.479,3.982-7.963,6.154-9.049,19.185-2.534,26.786,1.448,1.81,3.982-.724,2.534-2.534-2.172-2.534-2.9-8.325-2.9-11.583,0-5.43,3.258-8.687,7.6-11.583,9.049-5.43,16.651,3.982,22.08,10.5,1.448,1.81,3.62-.362,2.9-2.172a16.294,16.294,0,0,1,11.583-16.289c5.43-1.81,9.411.724,11.583,6.154,1.086,3.258,4.706,10.135,2.534,13.031-1.448,2.172,1.81,3.982,3.258,1.81C371.343,54.666,367.724,47.788,365.914,42.721Z" transform="translate(-145.011 66.906)"/><path id="XMLID_48_" fill="#32ab8e" d="M378.855,48.814c-4.706-.724-10.135.362-13.755,3.258-.724-10.859-3.982-24.976-14.841-24.252-9.411.724-22.442,14.479-15.565,23.528,1.448,1.81,4.706,0,3.258-1.81-6.154-8.325,12.307-24.252,18.823-14.479,3.982,5.792,4.706,14.117,5.068,21.357a10.019,10.019,0,0,0-1.086,4.706c0,1.81,2.534,2.172,3.258,1.086a1.656,1.656,0,0,0,1.448-1.81V57.5c1.81-3.258,5.792-4.706,9.773-5.068,3.62-.362,13.031,3.258,7.964,7.963a1.8,1.8,0,1,0,2.534,2.534C391.524,57.139,385.371,49.9,378.855,48.814Z" transform="translate(-67.097 50.677)"/><path id="XMLID_47_" fill="#32ab8e" d="M376.879,33.2c-9.411,0-16.651,7.963-18.461,16.651-.362,2.172,3.258,3.258,3.62,1.086,1.086-6.516,5.792-12.669,12.669-13.755a12.925,12.925,0,0,1,15.2,11.945c0,2.534,3.982,2.534,3.62,0A16.71,16.71,0,0,0,376.879,33.2Z" transform="translate(0.035 64.843)"/></g><path id="XMLID_46_" fill="#32ab8e" d="M105.458,178.718H316.127c.362,0,.362-.362.724-.362,10.5-6.878,19.185-17.013,21.719-28.958s-1.81-26.062-12.307-32.578a24.673,24.673,0,0,0-24.976,0c7.24-11.583,5.068-28.958-6.154-36.921-12.669-8.687-32.216-2.9-39.093,10.5a76.53,76.53,0,0,0,5.43-23.89c.362-10.135-2.9-21.357-11.221-27.51-13.031-9.773-32.578-3.62-43.075,8.687S193.418,76.641,190.16,92.568c1.81-11.583,3.982-23.166,1.086-34.388S179.3,36.462,167.718,36.1c-13.031-.362-23.166,10.859-28.6,22.442-9.049,19.185-11.221,41.627-5.43,61.9-4.706-7.963-9.773-16.289-17.737-20.995s-19.547-4.706-25.338,2.534c-4.344,5.792-3.62,14.117-1.448,21.357a60.41,60.41,0,0,0,17.737,27.51,51.147,51.147,0,0,0-28.234-5.068c-1.448,0,13.393,23.166,15.565,25.338C97.132,174.374,101.114,176.546,105.458,178.718Z" transform="translate(206.067 89.719)"/><g id="Group_188" data-name="Group 188" transform="translate(626.193 114.572)"><path id="XMLID_45_" fill="#32ab8e" d="M197.8,178.218a46.37,46.37,0,0,0,3.982,7.24h289.58c2.172-1.448,4.344-2.9,6.154-4.344,7.24-6.516,10.859-17.737,6.154-26.424-3.62-6.516-11.583-9.773-19.185-9.773s-14.841,2.9-21.357,6.154c10.859-7.963,19.547-19.185,21.357-32.578s-4.344-27.872-16.289-33.664-28.958,0-32.94,13.031c2.534-10.5,5.068-20.995,4.344-31.492-.362-10.5-4.344-21.718-12.669-28.234-12.307-9.773-30.768-7.6-44.523,0a72.419,72.419,0,0,0-35.836,52.848c-3.62-10.859.362-22.442.724-33.664S341.138,31.98,329.917,32.7c-7.24.362-12.669,6.878-16.651,13.031a167.457,167.457,0,0,0-25.338,70.947c-16.289-15.565-16.651-46.695-38.007-52.848-14.841-4.344-30.768,8.325-35.112,23.528s-.724,31.13,2.9,46.333c-3.258-8.325-6.878-17.375-13.393-23.528-6.877-6.154-17.737-8.687-24.976-2.9-8.687,6.516-7.24,20.271-3.258,30.406C181.869,151.794,191.28,164.463,197.8,178.218Z" transform="translate(-172.931 -31.593)"/><path id="XMLID_44_" fill="#44c788" d="M285.683,71.182a11.586,11.586,0,0,0-9.049-1.81c2.172-11.221.724-24.976-13.755-24.252-9.773.724-17.375,7.239-20.633,15.927a13.562,13.562,0,0,0-14.117-7.6c-9.411,1.448-13.393,10.5-12.669,18.823,0,2.534,3.982,2.534,3.62,0-.362-4.706,0-11.583,5.068-13.755,7.964-3.62,15.927,1.086,15.927,10.135,0,2.534,3.62,2.172,3.62,0a22.161,22.161,0,0,1,13.755-18.823c15.927-6.154,17.375,11.221,14.479,21.357a5,5,0,0,0-1.086,1.448c-1.448,1.81,1.086,4.344,2.534,2.534a.355.355,0,0,1,.362-.362c.724,0,1.086-.362,1.448-1.086,2.172-1.448,5.43-1.81,7.6,0,3.258,2.534,3.62,7.24,1.81,10.5-1.086,2.172,2.172,3.982,3.258,1.81A10.838,10.838,0,0,0,285.683,71.182Z" transform="translate(-61.732 3.772)"/><path id="XMLID_43_" fill="#44c788" d="M226.652,53.5c-8.325-1.81-11.583,5.43-12.669,12.307-3.62-6.154-9.049-13.031-15.927-8.687-7.963,5.068-5.068,17.013.362,22.8,1.81,1.81,4.344-1.086,2.534-2.534-2.172-2.172-3.982-4.706-3.982-7.963-.362-4.344,1.086-13.031,9.411-7.963,3.258,2.172,5.43,7.963,7.24,11.583.724,1.81,3.62.724,3.62-1.086,0-4.706-.362-12.307,5.068-14.479,8.325-3.258,10.5,10.135,8.325,13.755a1.863,1.863,0,1,0,3.258,1.81C237.15,67.621,234.254,55.314,226.652,53.5Z" transform="translate(-119.981 25.07)"/><path id="XMLID_42_" fill="#44c788" d="M240.794,63.767c-6.516,2.172-14.479,9.773-11.945,17.375.724,2.172,4.344,1.448,3.62-1.086-1.81-5.068,4.706-10.859,9.049-12.307,5.43-1.81,10.5,1.81,11.221,7.24.362,2.172,3.982,1.448,3.62-1.086C254.911,66.663,247.672,61.6,240.794,63.767Z" transform="translate(-27.702 51.366)"/></g><g id="Group_202" data-name="Group 202" transform="translate(827.172 -450.96)"><path id="Path_527" fill="#faa66e" fill-rule="evenodd" d="M2531.916,2227.446s25.919,5.733,43.722-39.825c17.8-45.538-80.993,4.654-43.722,39.825Z" data-name="Path 527" transform="translate(-2193.209 -1770.246)"/><path id="Path_528" fill="#ffb685" fill-rule="evenodd" d="M1703.351,2079.654s18.03,17.141,27.83,46.371c9.819,29.23,11.863,75.109,11.863,75.109s16.271,19.884,19.733,29.287c2.4,6.546.322,9.8-3.2,5.07-1.494-2.005-4.143-7.549-6.357-9.762,1.438,3.008,7.814,17.33,3.841,19.052-3.954,1.722-3.765-4.881-11.295-15.93,3.671,8.06,7.511,18.427,3.86,20.546s-7.454-13.849-10.046-17.349c1.344,4.9,3.311,17.292-1.324,16.97s-5.449-12.789-7.965-16.668l-7.757-10.727c-1,.87-4.03,9.1-5.487,10.009-1.419.87-3.273.378-4.105-4.389-1.305-7.87,5.543-20.035,5.543-20.035.776-45.084-10.387-68.185-38.009-97.755-4.673-4.995-10.084-19.714-1.551-28.739,8.552-9.005,18.616-7.492,24.425-1.059Z" data-name="Path 528" transform="translate(-1218.589 -1693.174)"/><path id="Path_529" fill="#faa66e" fill-rule="evenodd" d="M1875.8,2079.654s18.03,17.141,27.83,46.371c-15.249-8.381-28.133,1.229-32.56,5.448a198.329,198.329,0,0,0-18.125-22.022c-4.673-4.995-10.084-19.714-1.551-28.739,8.533-9.005,18.6-7.492,24.406-1.059Z" data-name="Path 529" transform="translate(-1391.036 -1693.174)"/><path id="Path_530" fill="#ef733a" fill-rule="evenodd" d="M1908.516,2187.7c-10.33,10.519-23.138,18.541-37.517,20.849l5.96,11.995c7.927-.927,33.2-12.657,37.8-21.719l-6.243-11.125Z" data-name="Path 530" transform="translate(-1406.727 -1785.043)"/><path id="Path_531" fill="#ee682b" fill-rule="evenodd" d="M1959.075,2033.948c-5.543,9.081-24.955,19.2-38.974,21.965-19.2-17.311-31.217-52.671-6.414-55.869,2.365-.3,2.043-3.443,4.616-2.459,13.925,5.373,33.392,20.149,40.771,36.363Z" data-name="Path 531" transform="translate(-1456.471 -1630.743)"/><path id="Path_532" fill="#ef733a" fill-rule="evenodd" d="M2521.478,2152.2c9.138,11.579,21,20.925,35.057,24.765l-7.208,11.295c-7.776-1.778-31.652-16.157-35.228-25.673l7.378-10.387Z" data-name="Path 532" transform="translate(-2170.172 -1756.26)"/><path id="Path_533" fill="#ee682b" fill-rule="evenodd" d="M2382.839,2013.367c4.522,9.63,22.741,21.795,36.382,26.052,20.962-15.135,36.7-49,12.392-54.847-2.327-.549-1.665-3.651-4.313-2.933-14.455,3.822-35.4,16.384-44.46,31.728Z" data-name="Path 533" transform="translate(-2032.724 -1617.881)"/><path id="Path_534" fill="#ffb685" fill-rule="evenodd" d="M2091.711,2917.169s-2.232-96.9-.757-138.148-31.179-42.02-38.6-25.447c-7.416,16.554.322,61.014,3.027,89.639,2.705,28.606,5.789,73.974,5.789,73.974-3.008,14.663,17.917,18.276,25.806,14.246,7.87-4.049,4.729-14.265,4.729-14.265Z" data-name="Path 534" transform="translate(-1618.016 -2235.663)"/><path id="Path_535" fill="#faa66e" fill-rule="evenodd" d="M2097.616,2847.107c-.227-25.049-.246-51.214.359-68.071a66.7,66.7,0,0,0-.246-8.854,262.821,262.821,0,0,0-19.014-26.43c-7.965-1.362-16.081,2.554-19.335,9.838-7.417,16.554.322,61.014,3.027,89.639.17,1.873.36,3.822.53,5.808,13.376-.17,24.973-.927,34.679-1.93Z" data-name="Path 535" transform="translate(-1625.037 -2235.678)"/><path id="Path_536" fill="#f2faff" fill-rule="evenodd" d="M2076.922,3551.652,2078.4,3527c-8.627.17-22.854.189-34.584.152,1.305,14.341,2.213,24.368,2.213,24.368-3.008,14.662,19.165,20.868,27.054,16.838,7.871-4.03,5.468-15.571,3.841-16.706Z" data-name="Path 536" transform="translate(-1603.246 -2870.958)"/><path id="Path_537" fill="#546c96" fill-rule="evenodd" d="M2006.665,3656.732c2.97.605,18.068,18.144,16.668,30.063H1964.04s-1.1-13.622,11.711-30.2c23.573,6.811,32.068,3.159,30.914.132Z" data-name="Path 537" transform="translate(-1532.989 -2976.039)"/><path id="Path_538" fill="#364b70" fill-rule="evenodd" d="M2013.147,3811h-56.587a3.165,3.165,0,0,0-3.159,3.16h0a3.165,3.165,0,0,0,3.159,3.16h56.587a3.165,3.165,0,0,0,3.159-3.16h0a3.165,3.165,0,0,0-3.159-3.16Z" data-name="Path 538" transform="translate(-1523.862 -3101.228)"/><path id="Path_539" fill="#e0f4ff" fill-rule="evenodd" d="M2032.476,3694a1.939,1.939,0,0,0,2.251-.794c.341-.7-.095-1.476-1-1.741a35.789,35.789,0,0,0-10.954-1.154,18.954,18.954,0,0,0-8.816,2.308,1.167,1.167,0,0,0-.284,1.911,2.1,2.1,0,0,0,2.459.189,14.963,14.963,0,0,1,6.83-1.7,31.418,31.418,0,0,1,9.516.984Z" data-name="Path 539" transform="translate(-1553.729 -3003.34)"/><path id="Path_540" fill="#e0f4ff" fill-rule="evenodd" d="M2026.575,3720.1a1.939,1.939,0,0,0,2.251-.794c.341-.7-.095-1.476-1-1.74a35.784,35.784,0,0,0-10.954-1.154,18.947,18.947,0,0,0-8.816,2.308,1.151,1.151,0,0,0-.284,1.892,2.1,2.1,0,0,0,2.459.189,14.961,14.961,0,0,1,6.83-1.7,30.784,30.784,0,0,1,9.516,1Z" data-name="Path 540" transform="translate(-1546.713 -3024.503)"/><path id="Path_541" fill="#e8935a" fill-rule="evenodd" d="M2233.5,1809.2l-27.773,4.843-2.327,27.584,15.079,3.084,15.8-.4Z" data-name="Path 541" transform="translate(-1789.13 -1478.153)"/><path id="Path_542" fill="#ffb685" fill-rule="evenodd" d="M2370.958,2913.948s2.951-93.764,1.475-135.026c-1.475-41.244,31.179-42.02,38.6-25.447,7.417,16.554-.321,61.015-3.027,89.639-2.705,28.606-5.411,73.16-5.411,73.16l-12.089,21.852-19.543-24.179Z" data-name="Path 542" transform="translate(-2000.713 -2235.581)"/><path id="Path_543" fill="#faa66e" fill-rule="evenodd" d="M2371,2845.617c.359-24.33.511-49.814-.095-66.6-1.476-41.244,31.179-42.02,38.6-25.447,7.417,16.554-.322,61.015-3.027,89.639-.17,1.722-.322,3.5-.492,5.3-10.841-.53-22.514-1.457-34.981-2.895Z" data-name="Path 543" transform="translate(-1999.166 -2235.663)"/><path id="Path_544" fill="#f2faff" fill-rule="evenodd" d="M2419.913,3549.273a220.771,220.771,0,0,1-.681-22.173c10.935.075,24.16.094,34.755.038-1.287,14.114-2.251,24.463-2.251,24.463l-12.279,21.946-19.544-24.273Z" data-name="Path 544" transform="translate(-2049.668 -2871.04)"/><path id="Path_545" fill="#546c96" fill-rule="evenodd" d="M2461.821,3646.708s5.3,3.765,6.527,13.3a42.987,42.987,0,0,1-1.211,17.046L2403.1,3679.5l-7.322-3.292c-2.024-16.706,25.825-26.789,34.4-31.8,2.27,3.878,24.916,15.646,31.652,2.308Z" data-name="Path 545" transform="translate(-2059.924 -2966.147)"/><path id="Path_546" fill="#e0f4ff" fill-rule="evenodd" d="M2685.744,3711.578c.757-.605,1.551-1.192,2.365-1.778a24.553,24.553,0,0,1,5.695,3.859,1.162,1.162,0,0,1-.076,1.8,1.654,1.654,0,0,1-2.081-.114,21.934,21.934,0,0,0-5.9-3.765Z" data-name="Path 546" transform="translate(-2340.302 -3019.175)"/><path id="Path_547" fill="#e0f4ff" fill-rule="evenodd" d="M2665.344,3692.051c.852-.53,1.7-1.059,2.573-1.552a22.513,22.513,0,0,1,3.822,2.838,1.162,1.162,0,0,1-.075,1.8,1.63,1.63,0,0,1-2.081-.113,19.6,19.6,0,0,0-4.238-2.97Z" data-name="Path 547" transform="translate(-2314.378 -3003.526)"/><path id="Path_548" fill="#364b70" fill-rule="evenodd" d="M2461,3811h-70.644a3.165,3.165,0,0,0-3.16,3.16h0a3.165,3.165,0,0,0,3.16,3.16H2461a3.177,3.177,0,0,0,3.159-3.16h0A3.165,3.165,0,0,0,2461,3811Z" data-name="Path 548" transform="translate(-2053.791 -3101.228)"/><path id="Path_549" fill="#1b6268" fill-rule="evenodd" d="M2129.471,2662.587c2.024,35.284.435,87.52.946,99.458l-50.647.019-1.684-62.528c-3.217-.019-6.168-.246-9.384-.265L2065.3,2762.1l-53.674-1.967c-.359-30.385,2.138-65.063,3.2-97.585-.019.019,96.98-32.087,114.65.038Z" data-name="Path 549" transform="translate(-1649.097 -2158.505)"/><path id="Path_550" fill="#ec5916" fill-rule="evenodd" d="M2131.845,2113.18s-2.989-92.742-5.127-110.242c-1.892-15.476-9.819-24.538-22.1-28.984-10.916,11.9-40.354,12.241-49.776-3.254-15.892,2.157-26.676,9.649-28.284,31.084-1.968,26.354-9.251,111.3-9.251,111.3-3.273.814,68.487,13.906,114.537.094Z" data-name="Path 550" transform="translate(-1651.471 -1609.098)"/><path id="Path_551" fill="#e8935a" fill-rule="evenodd" d="M2200.263,1967.516c-6.167-4.484-20.735-7.4-30.97-7.776-8.533-.3-19.525.454-24.292,3.916,4.578,5.941,16.781,10.689,27.622,10.689,10.86,0,21.984-4.843,27.641-6.83Z" data-name="Path 551" transform="translate(-1744.068 -1600.163)"/><path id="Path_552" fill="#ef733a" fill-rule="evenodd" d="M2165.428,1968.632c-6.792,5.26-15.552,8.8-23.554,8.552-11.351-.359-21.095-5.922-24.273-11.484l-10.5,2.989c11.143,22.249,54.847,23.819,69.642,3.689-1.552-.587-5.581-2.1-11.314-3.746Z" data-name="Path 552" transform="translate(-1713.376 -1605.044)"/><path id="Path_553" fill="#ffb685" fill-rule="evenodd" d="M1872.367,992.28c22.646.681,27.83-30.838,9.554-36.4,15.8-50.609-14.454-105.039-79.99-116.769-45.349-8.116-96.734,12.184-110.885,65.933-9.516,36.079-10.633,72.366,1.949,96.734,30.649,59.425,154.456,53.731,179.373-9.5Z" data-name="Path 553" transform="translate(-1349.52 -690.199)"/><path id="Path_554" fill="#ffb685" fill-rule="evenodd" d="M2282.9,1752.122a128.848,128.848,0,0,0,30.138,4.238,61.883,61.883,0,0,0,3.235-9.043c10.576-38.066-22.608-29.476-22.608-29.476l-10.765,34.282Z" data-name="Path 554" transform="translate(-1888.253 -1403.405)"/><path id="Path_555" fill="#faa66e" fill-rule="evenodd" d="M1888.684,1621.316c5.884,1.211,10.462-2.214,13.754-4.749-6.546,1.722-13.035,1.532-19.733-3.368-18.862,60.239-124.337,70.171-162.705,32.371,41.925,43.117,146.056,33.146,168.684-24.254Z" data-name="Path 555" transform="translate(-1365.836 -1319.235)"/><path id="Path_556" fill="#e8935a" fill-rule="evenodd" d="M2571.022,1307.4a17.86,17.86,0,1,0,17.822,17.86,17.848,17.848,0,0,0-17.822-17.86Z" data-name="Path 556" transform="translate(-2209.877 -1071.289)"/><path id="Path_557" fill="#e8935a" fill-rule="evenodd" d="M1989.651,1324.7c-10.519,0-19.052,7.984-19.052,17.86,0,9.857,8.533,17.86,19.052,17.86,10.538,0,19.071-8,19.071-17.86,0-9.876-8.532-17.86-19.071-17.86Z" data-name="Path 557" transform="translate(-1519.532 -1085.316)"/><path id="Path_558" fill="#fefefe" fill-rule="evenodd" d="M2000.47,1334.3c-10.519,0-19.071,7.984-19.071,17.86,0,9.857,8.532,17.86,19.071,17.86,10.519,0,19.071-7.984,19.071-17.86s-8.532-17.86-19.071-17.86Z" data-name="Path 558" transform="translate(-1532.394 -1093.1)"/><path id="Path_559" fill="#401b0f" fill-rule="evenodd" d="M2037.108,1356a12.808,12.808,0,1,0,12.827,12.808A12.806,12.806,0,0,0,2037.108,1356Z" data-name="Path 559" transform="translate(-1570.905 -1110.695)"/><path id="Path_560" fill="#fefefe" fill-rule="evenodd" d="M2562.622,1320.7a17.86,17.86,0,1,0,17.822,17.86,17.836,17.836,0,0,0-17.822-17.86Z" data-name="Path 560" transform="translate(-2199.888 -1082.073)"/><path id="Path_561" fill="#401b0f" fill-rule="evenodd" d="M2573.043,1348.3c-6.546,0-11.844,5.733-11.844,12.808s5.3,12.827,11.844,12.827,11.844-5.733,11.844-12.827c0-7.076-5.3-12.808-11.844-12.808Z" data-name="Path 561" transform="translate(-2207.434 -1104.452)"/><path id="Path_562" fill="#401b0f" fill-rule="evenodd" d="M2012.831,1349.034c-7.757-11.2-22.457-13.981-32.579-4.919-2.27,2.024-3.822,4.408-1.627-1.041,3.67-9.233,15.325-11.957,23.99-9.365,6.773,2.024,13.773,9.573,13.527,18.03-.132,4.5-1.438,0-3.311-2.705Z" data-name="Path 562" transform="translate(-1528.276 -1091.866)"/><path id="Path_563" fill="#fefefe" fill-rule="evenodd" d="M2042.294,1388.8a3.595,3.595,0,1,0,3.595,3.595,3.593,3.593,0,0,0-3.595-3.595Z" data-name="Path 563" transform="translate(-1569.583 -1137.289)"/><path id="Path_564" fill="#fefefe" fill-rule="evenodd" d="M2575.195,1378.4a3.595,3.595,0,1,0,3.594,3.595,3.593,3.593,0,0,0-3.594-3.595Z" data-name="Path 564" transform="translate(-2203.304 -1128.857)"/><path id="Path_565" fill="#401b0f" fill-rule="evenodd" d="M2577.767,1331.788c2.365,1.816,4.5,4.881,2.422-.605-3.368-8.873-12.77-12.07-20.981-10.368-8.419,1.741-14.795,8.457-14.454,16.668.057,1.476.776.511,1.362-.4,6.622-10.33,18.371-15.589,31.652-5.3Z" data-name="Path 565" transform="translate(-2200.466 -1081.81)"/><path id="Path_566" fill="#e8935a" fill-rule="evenodd" d="M2343.4,1545.1c.454,14.246,22.741,14.019,24.122,3.727-2.592.813-5.695,2.119-10.538,1.816-4.162-.246-10.027-1.7-13.584-5.543Z" data-name="Path 566" transform="translate(-1948.863 -1264.019)"/><path id="Path_567" fill="#faa66e" fill-rule="evenodd" d="M1764.083,1543.18s2.649-4.692-1.816-5.771c-2.327-.549-3.708,1.476-4.446,3.538a9.3,9.3,0,0,0-.7,3.746,15.281,15.281,0,0,1,1.532-1.8c1.665-1.7,4.257-3.462,5.43.284Z" data-name="Path 567" transform="translate(-1235.277 -1257.709)"/><path id="Path_568" fill="#401b0f" fill-rule="evenodd" d="M1975.546,1230.328c-6.527-6.3-19.411-9.062-25.635-9.516-11.787-.851-6.187-7.435-.511-7.53,10.746-.189,22.817,5.884,28.965,13.073,4.862,5.676,4.976,11.465-2.819,3.973Z" data-name="Path 568" transform="translate(-1487.339 -994.974)"/><path id="Path_569" fill="#ffb685" fill-rule="evenodd" d="M1894.666,1521.5c-16.025,2.478-27.584,13.641-25.825,24.935,1.778,11.314,16.214,18.465,32.219,15.987,16.025-2.478,27.584-13.641,25.825-24.936-1.778-11.314-16.214-18.465-32.219-15.987Z" data-name="Path 569" transform="translate(-1418.587 -1244.483)"/><path id="Path_570" fill="#ffb584" fill-rule="evenodd" d="M1895.915,1522.676c-15.665,2.4-26.979,13.319-25.257,24.387,1.722,11.049,15.835,18.049,31.519,15.646,15.665-2.422,26.979-13.319,25.257-24.387-1.74-11.049-15.854-18.049-31.519-15.646Z" data-name="Path 570" transform="translate(-1419.477 -1245.454)"/><path id="Path_571" fill="#ffb384" fill-rule="evenodd" d="M1897.262,1523.923c-15.306,2.346-26.373,13.016-24.689,23.819s15.476,17.652,30.8,15.287c15.324-2.346,26.373-13.016,24.689-23.819s-15.476-17.633-30.8-15.287Z" data-name="Path 571" transform="translate(-1420.465 -1246.474)"/><path id="Path_572" fill="#feb283" fill-rule="evenodd" d="M1898.512,1525.174c-14.965,2.289-25.768,12.714-24.122,23.252,1.646,10.557,15.116,17.235,30.081,14.946s25.768-12.714,24.122-23.252c-1.646-10.557-15.116-17.235-30.081-14.946Z" data-name="Path 572" transform="translate(-1421.336 -1247.498)"/><path id="Path_573" fill="#feb182" fill-rule="evenodd" d="M1899.895,1526.4c-14.605,2.232-25.163,12.392-23.573,22.684,1.608,10.292,14.757,16.819,29.363,14.587s25.163-12.392,23.573-22.7c-1.589-10.292-14.757-16.819-29.363-14.568Z" data-name="Path 573" transform="translate(-1422.359 -1248.493)"/><path id="Path_574" fill="#feaf81" fill-rule="evenodd" d="M1901.143,1527.575c-14.265,2.176-24.557,12.089-23.006,22.135,1.57,10.046,14.4,16.422,28.662,14.246s24.557-12.089,23.006-22.135c-1.57-10.046-14.4-16.422-28.663-14.246Z" data-name="Path 574" transform="translate(-1423.248 -1249.464)"/><path id="Path_575" fill="#feae81" fill-rule="evenodd" d="M1902.392,1528.822c-13.906,2.119-23.952,11.787-22.438,21.568,1.513,9.8,14.038,16.006,27.944,13.887s23.952-11.768,22.438-21.568c-1.532-9.8-14.038-16.006-27.944-13.887Z" data-name="Path 575" transform="translate(-1424.118 -1250.484)"/><path id="Path_576" fill="#feac80" fill-rule="evenodd" d="M1903.74,1530.073c-13.546,2.062-23.346,11.465-21.87,21s13.679,15.589,27.225,13.546c13.546-2.062,23.346-11.465,21.871-21.019-1.476-9.535-13.679-15.589-27.225-13.527Z" data-name="Path 576" transform="translate(-1425.107 -1251.508)"/><path id="Path_577" fill="#feab7f" fill-rule="evenodd" d="M1904.988,1531.323c-13.206,2.005-22.741,11.162-21.3,20.452s13.319,15.192,26.506,13.187c13.206-2.006,22.741-11.162,21.3-20.452s-13.319-15.192-26.506-13.187Z" data-name="Path 577" transform="translate(-1425.977 -1252.531)"/><path id="Path_578" fill="#fdaa7e" fill-rule="evenodd" d="M1906.371,1532.474c-12.846,1.949-22.135,10.86-20.754,19.884,1.4,9.043,12.941,14.776,25.787,12.827s22.136-10.841,20.754-19.884c-1.4-9.025-12.941-14.776-25.787-12.827Z" data-name="Path 578" transform="translate(-1427 -1253.474)"/><path id="Path_579" fill="#fda87e" fill-rule="evenodd" d="M1907.72,1533.722c-12.487,1.892-21.53,10.538-20.187,19.335,1.343,8.779,12.581,14.379,25.068,12.487s21.53-10.538,20.187-19.317c-1.343-8.816-12.562-14.4-25.068-12.505Z" data-name="Path 579" transform="translate(-1427.99 -1254.494)"/><path id="Path_580" fill="#fda77d" fill-rule="evenodd" d="M1908.868,1534.972c-12.146,1.835-20.925,10.235-19.619,18.768s12.222,13.962,24.368,12.127,20.925-10.235,19.619-18.768c-1.324-8.533-12.241-13.962-24.368-12.127Z" data-name="Path 580" transform="translate(-1428.759 -1255.517)"/><path id="Path_581" fill="#fda67c" fill-rule="evenodd" d="M1910.217,1536.223c-11.787,1.778-20.319,9.914-19.052,18.2s11.862,13.546,23.649,11.787c11.787-1.778,20.319-9.914,19.052-18.2s-11.863-13.565-23.649-11.787Z" data-name="Path 581" transform="translate(-1429.749 -1256.541)"/><path id="Path_582" fill="#fda47b" fill-rule="evenodd" d="M1911.681,1537.4c-11.427,1.722-19.714,9.611-18.5,17.633,1.23,8.022,11.5,13.149,22.93,11.427s19.714-9.611,18.484-17.633c-1.192-8.022-11.465-13.13-22.911-11.427Z" data-name="Path 582" transform="translate(-1430.854 -1257.508)"/><path id="Path_583" fill="#fda37b" fill-rule="evenodd" d="M1912.847,1538.648c-11.087,1.665-19.108,9.308-17.935,17.084,1.192,7.776,11.144,12.733,22.211,11.068,11.087-1.665,19.108-9.308,17.935-17.084-1.192-7.757-11.143-12.714-22.211-11.068Z" data-name="Path 583" transform="translate(-1431.641 -1258.531)"/><path id="Path_584" fill="#fca27a" fill-rule="evenodd" d="M1914.1,1539.871c-10.727,1.608-18.5,8.987-17.368,16.516s10.765,12.316,21.511,10.727c10.727-1.608,18.5-8.987,17.368-16.516-1.154-7.53-10.784-12.335-21.511-10.727Z" data-name="Path 584" transform="translate(-1432.531 -1259.527)"/><path id="Path_585" fill="#fca079" fill-rule="evenodd" d="M1915.345,1541.121c-10.367,1.532-17.9,8.684-16.8,15.949s10.406,11.919,20.792,10.368c10.368-1.532,17.9-8.684,16.8-15.949-1.116-7.265-10.425-11.919-20.792-10.368Z" data-name="Path 585" transform="translate(-1433.401 -1260.551)"/><path id="Path_586" fill="#fc9f79" fill-rule="evenodd" d="M1916.693,1542.3c-10.027,1.476-17.292,8.381-16.233,15.4s10.046,11.5,20.073,10.027,17.292-8.381,16.233-15.4-10.046-11.5-20.073-10.027Z" data-name="Path 586" transform="translate(-1434.39 -1261.517)"/><path id="Path_587" fill="#fc9d78" fill-rule="evenodd" d="M1918.042,1543.546c-9.668,1.419-16.687,8.06-15.665,14.833s9.687,11.087,19.354,9.668,16.687-8.06,15.665-14.833c-1-6.754-9.687-11.087-19.354-9.668Z" data-name="Path 587" transform="translate(-1435.379 -1262.541)"/><path id="Path_588" fill="#fc9c77" fill-rule="evenodd" d="M1919.324,1544.793c-9.308,1.362-16.082,7.757-15.116,14.265.984,6.508,9.327,10.689,18.635,9.327s16.082-7.757,15.116-14.265c-.984-6.527-9.327-10.689-18.635-9.327Z" data-name="Path 588" transform="translate(-1436.283 -1263.561)"/><path id="Path_589" fill="#fc9b76" fill-rule="evenodd" d="M1920.672,1546.02c-8.968,1.305-15.476,7.435-14.549,13.716.927,6.262,8.968,10.273,17.917,8.968,8.968-1.306,15.476-7.454,14.549-13.716s-8.949-10.292-17.917-8.968Z" data-name="Path 589" transform="translate(-1437.271 -1264.56)"/><path id="Path_590" fill="#fb9976" fill-rule="evenodd" d="M1921.921,1547.267c-8.608,1.249-14.871,7.133-13.981,13.149s8.608,9.857,17.217,8.627c8.608-1.249,14.871-7.133,13.981-13.149-.889-6.035-8.589-9.895-17.217-8.627Z" data-name="Path 590" transform="translate(-1438.161 -1265.58)"/><path id="Path_591" fill="#fb9875" fill-rule="evenodd" d="M1923.169,1548.445c-8.249,1.192-14.265,6.83-13.414,12.581s8.23,9.46,16.5,8.268c8.249-1.192,14.265-6.83,13.414-12.581s-8.249-9.46-16.5-8.268Z" data-name="Path 591" transform="translate(-1439.031 -1266.55)"/><path id="Path_592" fill="#fb9774" fill-rule="evenodd" d="M1924.517,1549.692c-7.908,1.135-13.66,6.508-12.846,12.033.813,5.505,7.87,9.043,15.779,7.927,7.908-1.135,13.66-6.527,12.846-12.033-.795-5.524-7.87-9.062-15.779-7.927Z" data-name="Path 592" transform="translate(-1440.019 -1267.57)"/><path id="Path_593" fill="#fb9573" fill-rule="evenodd" d="M1925.8,1550.942c-7.549,1.078-13.054,6.206-12.3,11.465.776,5.259,7.511,8.646,15.06,7.568s13.054-6.206,12.3-11.465c-.776-5.26-7.511-8.646-15.06-7.568Z" data-name="Path 593" transform="translate(-1440.923 -1268.593)"/><path id="Path_594" fill="#fb9473" fill-rule="evenodd" d="M1927.147,1552.115c-7.189,1.022-12.449,5.9-11.73,10.9s7.151,8.23,14.341,7.208c7.208-1.022,12.449-5.9,11.73-10.9s-7.151-8.211-14.341-7.208Z" data-name="Path 594" transform="translate(-1441.911 -1269.558)"/><path id="Path_595" fill="#fb9272" fill-rule="evenodd" d="M1928.4,1553.366c-6.849.965-11.844,5.581-11.163,10.349.681,4.749,6.792,7.833,13.641,6.868s11.844-5.581,11.162-10.349c-.681-4.749-6.792-7.814-13.641-6.868Z" data-name="Path 595" transform="translate(-1442.801 -1270.581)"/><path id="Path_596" fill="#fa9171" fill-rule="evenodd" d="M1929.645,1554.589c-6.49.908-11.238,5.278-10.595,9.781s6.432,7.416,12.922,6.508,11.238-5.278,10.595-9.781-6.433-7.416-12.922-6.508Z" data-name="Path 596" transform="translate(-1443.671 -1271.578)"/><path id="Path_597" fill="#fa9071" fill-rule="evenodd" d="M1930.909,1555.84c-6.13.851-10.633,4.976-10.027,9.214.605,4.257,6.073,7,12.2,6.168,6.149-.851,10.633-4.976,10.046-9.214-.605-4.257-6.073-7.019-12.222-6.168Z" data-name="Path 597" transform="translate(-1444.576 -1272.601)"/><path id="Path_598" fill="#fa8e70" fill-rule="evenodd" d="M1932.374,1557.012c-5.789.795-10.027,4.654-9.479,8.646s5.714,6.6,11.484,5.808c5.789-.795,10.027-4.654,9.479-8.646s-5.695-6.584-11.484-5.808Z" data-name="Path 598" transform="translate(-1445.681 -1273.566)"/><path id="Path_599" fill="#fa8d6f" fill-rule="evenodd" d="M1933.522,1558.262c-5.43.738-9.422,4.352-8.911,8.1s5.335,6.187,10.784,5.449c5.43-.719,9.422-4.351,8.911-8.1-.53-3.727-5.354-6.168-10.784-5.449Z" data-name="Path 599" transform="translate(-1446.451 -1274.588)"/><path id="Path_600" fill="#fa8c6e" fill-rule="evenodd" d="M1934.87,1559.508c-5.089.662-8.816,4.049-8.343,7.53.473,3.5,4.976,5.771,10.065,5.108s8.816-4.049,8.343-7.53c-.473-3.5-4.976-5.771-10.065-5.108Z" data-name="Path 600" transform="translate(-1447.44 -1275.608)"/><path id="Path_601" fill="#fa8a6e" fill-rule="evenodd" d="M1936.118,1560.735c-4.73.605-8.211,3.727-7.776,6.962s4.616,5.373,9.346,4.749c4.73-.605,8.211-3.727,7.776-6.962s-4.635-5.373-9.346-4.749Z" data-name="Path 601" transform="translate(-1448.309 -1276.608)"/><path id="Path_602" fill="#f9896d" fill-rule="evenodd" d="M1937.5,1561.907c-4.37.549-7.605,3.424-7.227,6.414.4,2.989,4.257,4.957,8.627,4.408s7.606-3.424,7.227-6.414c-.4-2.989-4.257-4.957-8.627-4.408Z" data-name="Path 602" transform="translate(-1449.33 -1277.571)"/><path id="Path_603" fill="#f9886c" fill-rule="evenodd" d="M1938.845,1563.155c-4.03.492-7,3.122-6.659,5.846.341,2.743,3.9,4.541,7.908,4.049,4.03-.492,7-3.122,6.659-5.846s-3.878-4.541-7.908-4.049Z" data-name="Path 603" transform="translate(-1450.318 -1278.593)"/><path id="Path_604" fill="#f9866b" fill-rule="evenodd" d="M1939.993,1564.4c-3.67.435-6.395,2.8-6.092,5.279s3.538,4.143,7.208,3.708,6.395-2.8,6.092-5.278c-.322-2.5-3.538-4.143-7.208-3.708Z" data-name="Path 604" transform="translate(-1451.087 -1279.612)"/><path id="Path_605" fill="#f9856b" fill-rule="evenodd" d="M1941.341,1565.649c-3.311.378-5.79,2.5-5.524,4.73s3.178,3.727,6.489,3.349,5.789-2.5,5.524-4.73-3.178-3.727-6.489-3.349Z" data-name="Path 605" transform="translate(-1452.076 -1280.632)"/><path id="Path_606" fill="#f9836a" fill-rule="evenodd" d="M1942.688,1566.815c-2.97.322-5.184,2.195-4.957,4.162.227,1.987,2.8,3.33,5.77,3.008s5.184-2.176,4.957-4.162c-.208-1.986-2.8-3.311-5.771-3.008Z" data-name="Path 606" transform="translate(-1453.063 -1281.591)"/><path id="Path_607" fill="#f98269" fill-rule="evenodd" d="M1943.964,1568.042c-2.611.265-4.579,1.873-4.408,3.595.189,1.722,2.44,2.913,5.052,2.649s4.578-1.873,4.408-3.595c-.189-1.722-2.441-2.913-5.052-2.649Z" data-name="Path 607" transform="translate(-1453.961 -1282.59)"/><path id="Path_608" fill="#f88168" fill-rule="evenodd" d="M1945.31,1569.286c-2.251.208-3.973,1.57-3.841,3.046s2.081,2.5,4.333,2.289,3.973-1.57,3.841-3.046c-.132-1.457-2.081-2.5-4.333-2.289Z" data-name="Path 608" transform="translate(-1454.947 -1283.608)"/><path id="Path_609" fill="#f87f68" fill-rule="evenodd" d="M1946.454,1570.527c-1.911.151-3.368,1.249-3.273,2.479s1.722,2.1,3.632,1.949,3.368-1.249,3.273-2.478c-.114-1.23-1.741-2.1-3.633-1.949Z" data-name="Path 609" transform="translate(-1455.713 -1284.621)"/><path id="Path_610" fill="#f87e67" fill-rule="evenodd" d="M1947.8,1571.764c-1.551.094-2.762.946-2.705,1.911s1.362,1.684,2.914,1.589,2.762-.946,2.705-1.911-1.362-1.684-2.914-1.589Z" data-name="Path 610" transform="translate(-1456.696 -1285.631)"/><path id="Path_611" fill="#401b0f" fill-rule="evenodd" d="M2562.01,1223.6c6.168-5.657,18.333-7.17,24.2-7.019,11.143.3,5.846-6.83.473-7.492-10.141-1.23-21.549,3.651-27.357,10.254-4.559,5.222-4.673,11.011,2.687,4.257Z" data-name="Path 611" transform="translate(-2214.355 -991.42)"/><path id="Path_612" fill="#ffb685" fill-rule="evenodd" d="M2545.4,1519.825c12.638,2.478,21.757,13.641,20.357,24.936-1.4,11.314-12.771,18.465-25.408,15.987s-21.757-13.641-20.357-24.935,12.789-18.446,25.408-15.987Z" data-name="Path 612" transform="translate(-2180.623 -1243.133)"/><path id="Path_613" fill="#ffb584" fill-rule="evenodd" d="M2548.751,1521.072c12.354,2.4,21.265,13.319,19.9,24.387-1.362,11.049-12.487,18.049-24.841,15.646s-21.265-13.319-19.9-24.387,12.487-18.049,24.841-15.646Z" data-name="Path 613" transform="translate(-2184.258 -1244.153)"/><path id="Path_614" fill="#ffb384" fill-rule="evenodd" d="M2552,1522.3c12.071,2.346,20.792,13.016,19.468,23.819s-12.2,17.652-24.273,15.287-20.792-13.016-19.468-23.819,12.2-17.652,24.273-15.287Z" data-name="Path 614" transform="translate(-2187.794 -1245.152)"/><path id="Path_615" fill="#feb283" fill-rule="evenodd" d="M2555.259,1523.477c11.787,2.289,20.319,12.714,19.033,23.252-1.305,10.557-11.919,17.235-23.724,14.946-11.787-2.289-20.319-12.714-19.014-23.252,1.287-10.538,11.9-17.235,23.706-14.946Z" data-name="Path 615" transform="translate(-2191.333 -1246.123)"/><path id="Path_616" fill="#feb182" fill-rule="evenodd" d="M2558.71,1524.724c11.522,2.232,19.846,12.392,18.579,22.684s-11.635,16.819-23.157,14.587-19.846-12.392-18.579-22.7c1.268-10.273,11.654-16.8,23.157-14.568Z" data-name="Path 616" transform="translate(-2195.087 -1247.143)"/><path id="Path_617" fill="#feaf81" fill-rule="evenodd" d="M2562.065,1525.971c11.238,2.176,19.354,12.089,18.125,22.135s-11.352,16.422-22.59,14.246-19.373-12.089-18.125-22.136c1.23-10.065,11.352-16.422,22.59-14.246Z" data-name="Path 617" transform="translate(-2198.725 -1248.163)"/><path id="Path_618" fill="#feae81" fill-rule="evenodd" d="M2565.313,1527.222c10.954,2.119,18.881,11.787,17.69,21.568-1.192,9.8-11.068,16.006-22.022,13.887s-18.881-11.787-17.689-21.568c1.192-9.8,11.049-16.006,22.022-13.887Z" data-name="Path 618" transform="translate(-2202.258 -1249.187)"/><path id="Path_619" fill="#feac80" fill-rule="evenodd" d="M2568.649,1528.448c10.689,2.062,18.408,11.465,17.235,21s-10.784,15.589-21.454,13.527c-10.689-2.062-18.408-11.465-17.235-21.019,1.154-9.516,10.765-15.589,21.454-13.508Z" data-name="Path 619" transform="translate(-2205.877 -1250.186)"/><path id="Path_620" fill="#feab7f" fill-rule="evenodd" d="M2572,1529.624c10.406,2.005,17.936,11.162,16.8,20.452s-10.5,15.192-20.887,13.187c-10.406-2.005-17.935-11.162-16.8-20.452s10.481-15.192,20.886-13.187Z" data-name="Path 620" transform="translate(-2209.532 -1251.153)"/><path id="Path_621" fill="#fdaa7e" fill-rule="evenodd" d="M2575.375,1530.874c10.122,1.949,17.444,10.841,16.346,19.884s-10.2,14.776-20.338,12.827c-10.122-1.949-17.462-10.841-16.346-19.884,1.1-9.025,10.216-14.776,20.338-12.827Z" data-name="Path 621" transform="translate(-2213.189 -1252.177)"/><path id="Path_622" fill="#fda87e" fill-rule="evenodd" d="M2578.622,1532.121c9.857,1.892,16.97,10.538,15.911,19.317s-9.914,14.379-19.771,12.487-16.971-10.538-15.911-19.317c1.06-8.8,9.914-14.379,19.771-12.487Z" data-name="Path 622" transform="translate(-2216.721 -1253.197)"/><path id="Path_623" fill="#fda77d" fill-rule="evenodd" d="M2581.974,1533.372c9.573,1.835,16.5,10.235,15.476,18.768-1.041,8.532-9.63,13.962-19.2,12.127s-16.5-10.235-15.476-18.768c1.041-8.533,9.649-13.962,19.2-12.127Z" data-name="Path 623" transform="translate(-2220.375 -1254.22)"/><path id="Path_624" fill="#fda67c" fill-rule="evenodd" d="M2585.312,1534.547c9.289,1.778,16.024,9.914,15.022,18.2s-9.346,13.546-18.636,11.787c-9.289-1.778-16.024-9.914-15.022-18.2s9.346-13.546,18.635-11.787Z" data-name="Path 624" transform="translate(-2223.997 -1255.187)"/><path id="Path_625" fill="#fda47b" fill-rule="evenodd" d="M2588.567,1535.773c9.005,1.722,15.552,9.611,14.587,17.633s-9.062,13.149-18.087,11.427c-9.006-1.722-15.552-9.611-14.568-17.633.946-8.022,9.043-13.149,18.068-11.427Z" data-name="Path 625" transform="translate(-2227.536 -1256.186)"/><path id="Path_626" fill="#fda37b" fill-rule="evenodd" d="M2591.932,1537.02c8.74,1.646,15.06,9.308,14.133,17.084s-8.779,12.733-17.519,11.068c-8.74-1.646-15.06-9.308-14.133-17.084s8.779-12.733,17.519-11.068Z" data-name="Path 626" transform="translate(-2231.185 -1257.206)"/><path id="Path_627" fill="#fca27a" fill-rule="evenodd" d="M2595.284,1538.2c8.457,1.608,14.587,8.987,13.7,16.516-.908,7.53-8.494,12.316-16.951,10.727s-14.587-8.987-13.7-16.516c.908-7.511,8.495-12.316,16.951-10.727Z" data-name="Path 627" transform="translate(-2234.84 -1258.177)"/><path id="Path_628" fill="#fca079" fill-rule="evenodd" d="M2598.621,1539.445c8.173,1.532,14.114,8.684,13.244,15.949s-8.211,11.919-16.384,10.368c-8.173-1.532-14.114-8.684-13.244-15.949s8.211-11.9,16.384-10.368Z" data-name="Path 628" transform="translate(-2238.46 -1259.196)"/><path id="Path_629" fill="#fc9f79" fill-rule="evenodd" d="M2601.872,1540.7c7.908,1.476,13.641,8.381,12.809,15.4s-7.927,11.5-15.817,10.027c-7.908-1.476-13.641-8.381-12.808-15.4s7.908-11.5,15.816-10.027Z" data-name="Path 629" transform="translate(-2241.995 -1260.22)"/><path id="Path_630" fill="#fc9d78" fill-rule="evenodd" d="M2605.342,1541.943c7.624,1.419,13.149,8.06,12.354,14.833s-7.644,11.105-15.268,9.668c-7.625-1.419-13.149-8.06-12.354-14.833.813-6.773,7.662-11.087,15.268-9.668Z" data-name="Path 630" transform="translate(-2245.768 -1261.24)"/><path id="Path_631" fill="#fc9c77" fill-rule="evenodd" d="M2608.594,1543.17c7.341,1.362,12.676,7.757,11.919,14.265-.775,6.508-7.359,10.689-14.7,9.327s-12.676-7.757-11.919-14.265c.776-6.527,7.359-10.708,14.7-9.327Z" data-name="Path 631" transform="translate(-2249.303 -1262.24)"/><path id="Path_632" fill="#fc9b76" fill-rule="evenodd" d="M2611.93,1544.344c7.076,1.305,12.2,7.435,11.465,13.716-.738,6.262-7.076,10.273-14.133,8.968s-12.2-7.435-11.465-13.716c.738-6.262,7.076-10.273,14.133-8.968Z" data-name="Path 632" transform="translate(-2252.922 -1263.206)"/><path id="Path_633" fill="#fb9976" fill-rule="evenodd" d="M2615.182,1545.594c6.792,1.249,11.73,7.132,11.03,13.149s-6.773,9.857-13.565,8.608-11.73-7.133-11.03-13.149c.7-6,6.773-9.857,13.565-8.608Z" data-name="Path 633" transform="translate(-2256.458 -1264.229)"/><path id="Path_634" fill="#fb9875" fill-rule="evenodd" d="M2618.619,1546.842c6.508,1.192,11.257,6.83,10.576,12.581-.662,5.751-6.489,9.459-13,8.268s-11.257-6.83-10.576-12.581c.662-5.771,6.49-9.46,13-8.268Z" data-name="Path 634" transform="translate(-2260.198 -1265.249)"/><path id="Path_635" fill="#fb9774" fill-rule="evenodd" d="M2621.9,1547.995c6.224,1.135,10.765,6.508,10.141,12.033-.643,5.505-6.206,9.043-12.449,7.908-6.224-1.135-10.765-6.508-10.141-12.033.643-5.487,6.225-9.043,12.449-7.908Z" data-name="Path 635" transform="translate(-2263.767 -1266.195)"/><path id="Path_636" fill="#fb9573" fill-rule="evenodd" d="M2625.239,1549.242c5.959,1.078,10.292,6.205,9.687,11.465s-5.921,8.646-11.881,7.568-10.292-6.206-9.687-11.465,5.922-8.646,11.881-7.568Z" data-name="Path 636" transform="translate(-2267.386 -1267.215)"/><path id="Path_637" fill="#fb9473" fill-rule="evenodd" d="M2628.491,1550.492c5.676,1.022,9.819,5.9,9.252,10.9s-5.638,8.23-11.314,7.208-9.819-5.9-9.251-10.9,5.638-8.23,11.314-7.208Z" data-name="Path 637" transform="translate(-2270.922 -1268.238)"/><path id="Path_638" fill="#fb9272" fill-rule="evenodd" d="M2631.928,1551.739c5.392.965,9.346,5.581,8.8,10.349-.53,4.749-5.354,7.814-10.746,6.868-5.392-.965-9.346-5.581-8.8-10.349s5.354-7.833,10.746-6.868Z" data-name="Path 638" transform="translate(-2274.662 -1269.258)"/><path id="Path_639" fill="#fa9171" fill-rule="evenodd" d="M2635.192,1552.916c5.127.908,8.854,5.278,8.362,9.781-.511,4.5-5.07,7.416-10.178,6.508-5.127-.908-8.854-5.278-8.362-9.781.492-4.484,5.052-7.4,10.178-6.508Z" data-name="Path 639" transform="translate(-2278.209 -1270.226)"/><path id="Path_640" fill="#fa9071" fill-rule="evenodd" d="M2638.548,1554.162c4.843.851,8.381,4.976,7.908,9.214s-4.787,7-9.63,6.168c-4.843-.851-8.381-4.976-7.908-9.214.473-4.257,4.786-7,9.63-6.168Z" data-name="Path 640" transform="translate(-2281.849 -1271.246)"/><path id="Path_641" fill="#fa8e70" fill-rule="evenodd" d="M2641.9,1555.412c4.56.795,7.908,4.654,7.473,8.646s-4.5,6.6-9.062,5.808-7.908-4.654-7.473-8.646c.454-3.992,4.5-6.584,9.062-5.808Z" data-name="Path 641" transform="translate(-2285.503 -1272.268)"/><path id="Path_642" fill="#fa8d6f" fill-rule="evenodd" d="M2645.237,1556.636c4.276.738,7.435,4.351,7.019,8.1-.4,3.746-4.219,6.187-8.495,5.449-4.276-.719-7.435-4.352-7.019-8.1s4.219-6.187,8.495-5.449Z" data-name="Path 642" transform="translate(-2289.125 -1273.265)"/><path id="Path_643" fill="#fa8c6e" fill-rule="evenodd" d="M2648.5,1557.886c4.011.662,6.943,4.049,6.584,7.53-.378,3.5-3.916,5.789-7.927,5.108-4.011-.662-6.943-4.049-6.584-7.53.359-3.5,3.917-5.789,7.927-5.108Z" data-name="Path 643" transform="translate(-2292.671 -1274.288)"/><path id="Path_644" fill="#fa8a6e" fill-rule="evenodd" d="M2651.837,1559.057c3.727.605,6.47,3.727,6.13,6.962s-3.632,5.373-7.36,4.749c-3.727-.605-6.47-3.727-6.13-6.962.321-3.235,3.633-5.354,7.359-4.749Z" data-name="Path 644" transform="translate(-2296.292 -1275.252)"/><path id="Path_645" fill="#f9896d" fill-rule="evenodd" d="M2655.206,1560.307c3.443.549,6,3.424,5.695,6.414s-3.349,4.957-6.811,4.408c-3.443-.549-6-3.424-5.695-6.414.322-2.989,3.367-4.957,6.811-4.408Z" data-name="Path 645" transform="translate(-2299.965 -1276.274)"/><path id="Path_646" fill="#f9886c" fill-rule="evenodd" d="M2658.543,1561.555c3.179.492,5.524,3.122,5.241,5.846-.265,2.743-3.065,4.541-6.243,4.049s-5.524-3.1-5.241-5.846c.284-2.724,3.084-4.541,6.243-4.049Z" data-name="Path 646" transform="translate(-2303.586 -1277.295)"/><path id="Path_647" fill="#f9866b" fill-rule="evenodd" d="M2661.807,1562.78c2.895.435,5.033,2.8,4.806,5.278-.246,2.478-2.781,4.143-5.676,3.708s-5.051-2.8-4.805-5.278c.246-2.5,2.781-4.162,5.676-3.708Z" data-name="Path 647" transform="translate(-2307.133 -1278.293)"/><path id="Path_648" fill="#f9856b" fill-rule="evenodd" d="M2665.143,1563.951c2.611.378,4.56,2.5,4.352,4.73s-2.5,3.727-5.108,3.349-4.56-2.5-4.352-4.73c.189-2.214,2.479-3.727,5.108-3.349Z" data-name="Path 648" transform="translate(-2310.752 -1279.256)"/><path id="Path_649" fill="#f9836a" fill-rule="evenodd" d="M2668.492,1565.2c2.327.322,4.086,2.195,3.916,4.162-.17,1.987-2.214,3.33-4.541,3.008s-4.086-2.176-3.916-4.162,2.213-3.33,4.541-3.008Z" data-name="Path 649" transform="translate(-2314.404 -1280.274)"/><path id="Path_650" fill="#f98269" fill-rule="evenodd" d="M2671.848,1566.442c2.062.265,3.614,1.873,3.462,3.595-.132,1.722-1.929,2.914-3.992,2.649s-3.614-1.873-3.462-3.595,1.929-2.914,3.992-2.649Z" data-name="Path 650" transform="translate(-2318.044 -1281.293)"/><path id="Path_651" fill="#f88168" fill-rule="evenodd" d="M2675.1,1567.685a3.158,3.158,0,0,1,3.027,3.046c-.114,1.476-1.646,2.5-3.425,2.289a3.157,3.157,0,0,1-3.027-3.046c.113-1.476,1.646-2.5,3.424-2.289Z" data-name="Path 651" transform="translate(-2321.576 -1282.309)"/><path id="Path_652" fill="#f87f68" fill-rule="evenodd" d="M2678.542,1568.843a2.619,2.619,0,0,1,2.573,2.478,2.407,2.407,0,0,1-2.857,1.949,2.619,2.619,0,0,1-2.573-2.479,2.445,2.445,0,0,1,2.857-1.949Z" data-name="Path 652" transform="translate(-2325.324 -1283.259)"/><path id="Path_653" fill="#f87e67" fill-rule="evenodd" d="M2681.784,1570.064a2.1,2.1,0,0,1,2.138,1.911,1.959,1.959,0,0,1-2.29,1.589,2.1,2.1,0,0,1-2.138-1.911,1.959,1.959,0,0,1,2.289-1.589Z" data-name="Path 653" transform="translate(-2328.851 -1284.253)"/><path id="Path_654" fill="#f29f68" fill-rule="evenodd" d="M1943.87,968.962a259.524,259.524,0,0,1-1.589-31.6c.359-14.927-6.906-28.379-6.906-28.379s-56.02,9.8-68.885,4.257,47.431-40.279,47.431-40.279l-49.114,26.922-5.449,3.992s-26.506,12.014-32.541,8.741,27.811-40.014,27.811-40.014-33.2,41.074-71.723,40c-14.416-.4-7.4-9.611-1.305-20.149,10.2-17.633,33.43-40.544,63.928-43.5,48.755-4.73,94.6,13.092,103.337,25.465,8.684,12.373,17.046,67.674-4.995,94.539Z" data-name="Path 654" transform="translate(-1431.618 -698.948)"/><path id="Path_655" fill="#542022" fill-rule="evenodd" d="M1814.71,904.482c-1.816,0-5.827-.908-3.633-21.644,1.8-17.027,4.314-32.617-6.319-53.56-10.784,6.924-106.61,20.035-79.933-3.462,0,0-22.892,12.619-31.444,12.43-8.552-.17,4.011-23.1,4.011-23.1-22.911,23.744-83.093,35.871-57.666,4.73-15.154,13.641-1.986-47.582,56.039-61.128,30.782-7.189,99.761,2.384,119.683,32.6,0,0,1.116-18.957,6.205-16.952s2.005,19.468,2.005,19.468,7.284-8,8.192-3.822-5.638,7.643-5.638,7.643,25.825,19.279,24.917,50.022-14.473,45.974-14.473,45.974c-15.779-11.03-18.654,10.8-21.946,10.8Z" data-name="Path 655" transform="translate(-1298.2 -624.592)"/><path id="Path_656" fill="#653638" fill-rule="evenodd" d="M1633.8,867.881a85.186,85.186,0,0,1,17.235-17.481c30.933,26.392,140,4.295,188.341,67.277a55.8,55.8,0,0,1,.189,6.206c-.038,1.419-.114,2.8-.208,4.162-10.784-10.311-26.3-27.887-53.39-36.268-39.787-12.316-123.032-1.987-152.167-23.9Z" data-name="Path 656" transform="translate(-1286.676 -700.75)"/><path id="Path_657" fill="#b13b32" fill-rule="evenodd" d="M2377.991,1698.1c4.692,0,8.987,4.73,9.611,10.576.605,5.846-2.705,10.576-7.4,10.576s-8.987-4.73-9.611-10.576c-.605-5.827,2.705-10.576,7.4-10.576Z" data-name="Path 657" transform="translate(-1974.146 -1388.072)"/><path id="Path_658" fill="#ffb685" fill-rule="evenodd" d="M2498.852,1861.7c-29.06-4.578,9.687-91.058,9.535-102.2-.227-17.8,2.4-29.041,6.868-31.046,6.281-2.838,8.362.549,8.362.549s1.589-3.065,4.162-3.614a3.751,3.751,0,0,1,3.878,1.93s1.457-3.481,3.273-3.859c1.835-.378,3.178,1.532,3.178,1.532s5.505-10.141,8.495-5.07c3.008,5.07-2.706,13.6-2.706,13.6a11.364,11.364,0,0,1,1.4,5.411s1.8-2.119,5.335-.568c3.519,1.57,1.173,11.484-4.579,17.519s-16.27,11.162-16.27,11.162c-3.235,25.938-3.1,99.042-30.933,94.653Z" data-name="Path 658" transform="translate(-2160.996 -1404.609)"/><path id="Path_659" fill="#e8935a" fill-rule="evenodd" d="M2501.981,1726.825l.094.019h.038l.133.038h0l.094.019h0l.076.019.076.019h.019l.057.019.076.019h.019l.075.019.038.019.038.019.075.019h.019l.057.019h.019l.057.019.075.038.038.019.038.019.057.038h0l.057.019.057.038.057.038.019.019.038.019.057.038h0l.057.038.038.019.019.019.057.038.057.038.057.038h0l.038.038.038.019.019.019.038.038.019.019.038.019.038.038h0l.038.038.019.019.019.019.038.038.019.019.019.019.038.038h0l.038.038.019.019.019.019.038.038h0l.019.019.019.019h0l.038.038.019.019.019.019.019.019h0l.019.019.019.019h0l.019.019v.019l.019.019.019.019h0l.019.019.019.019h0l.019.019v.038l.019.019h0l.019.019v.019h0v.019h0v.019h0v-.038l.019-.019v-.019c.246-.454,1.778-3.046,4.125-3.538a3.228,3.228,0,0,1,1.778.114l.057.019h.019l.095.038h.019l.057.038h0l.076.038h0l.038.019.038.019h.019l.057.038h0l.057.019.019.019.019.019.038.038h0l.057.038h.019l.038.019.038.019.019.019.057.038h0l.057.038.019.019.038.019.038.019.019.019.057.038h0l.038.038.019.019.019.019.038.038h.019l.038.038h0l.038.038.019.019.019.019.038.038h0l.038.038h0l.038.038.019.019.019.019.038.038h0l.038.038v.019l.019.019.019.019.019.019.038.038h0l.038.038.019.019.019.019.019.019h0l.019.038h0l.019.038.019.019.019.019.019.019h0l.019.038h0l.019.019.019.019v.019l.019.019h0l.019.019v.019l.019.019.019.019h0l.019.019h0l.019.019v.057h0l.019.019h0l.019.019h0v.019h0v.019h0l.019-.038.019-.019.019-.057.019-.038h0c.3-.681,1.627-3.368,3.216-3.708a2.646,2.646,0,0,1,1.854.341h.019l.019.019.038.019h0l.038.019.019.019.019.019.038.019h0l.019.019.038.019h0l.038.019.019.019.019.019.038.019h0l.019.019.057.057.019.019.019.019.038.019h0l.038.019.019.019h.019l.038.019h0l.019.019.019.019h0l.038.019.019.019.019.019.019.019h0l.019.019.019.019h0l.019.019.019.019.019.019.057.038.019.019h0l.019.019h0l.019.019.019.019h0l.019.019.019.019h0l.019.019h0l.019.019.019.019h0l.019.019v.038l.019.019h0l.019.019.019.019h0l.019.019h0v.019l.019.019h0l.019.019v.019h0l.019.019h0v.019h0v.019h0v.019h0v-.019h0v-.057h0v-.019l.019-.019v-.038l.019-.019.019-.019h0l.019-.019.019-.038.019-.019h0l.057-.095.019-.038.019-.038h0l.019-.038.019-.038.019-.019v-.019l.019-.038.019-.038h0l.019-.038.019-.038.019-.038h0l.038-.057.038-.057.019-.019.019-.038.038-.057.038-.057.038-.057.038-.057.019-.038.019-.019.038-.057.038-.057.019-.019.019-.038.038-.057.019-.019.076-.114.038-.057.019-.038.019-.038.038-.057.038-.057v-.019l.038-.057.038-.076.038-.057v-.019l.057-.076.038-.076.019-.038.019-.038.038-.076.057-.076h0l.038-.076.057-.076.038-.057.019-.019.057-.076.057-.076.019-.019.038-.057.057-.076.057-.076h0l.057-.076c1.873-2.5,4.692-5.184,6.546-2.043,3.008,5.07-2.706,13.6-2.706,13.6a11.368,11.368,0,0,1,1.4,5.411s1.8-2.119,5.335-.568c3.122,1.381,1.646,9.27-2.705,15.249l-.019.038-.019.038-.019.038-.019.038-.057.076-.019.038-.019.038-.019.038-.019.038-.019.038-.019.038-.057.076-.019.038-.019.038-.057.076-.038.038-.019.038-.019.038-.019.019-.019.019-.019.038-.038.038-.038.038-.038.038-.038.038-.038.038-.019.038-.038.038h0l-.038.038v.019l-.057.057-.038.038-.038.038-.038.038-.038.038-.038.038-.019.019-.019.019-.038.038-.038.038-.038.038-.094.114-.038.038-.038.038-.038.038-.038.038-.189.208-.019.019-.019.019-.246.265-.038.038-.038.038-.094.094-.038.038-.038.038-.019.019-.019.019-.038.038-.038.038-.038.038-.094.095-.038.038h0l-.227.208-.038.038-.019.019-.019.019-.189.17-.038.038-.038.038h0l-.227.208-.038.038-.019.019-.038.038-.038.038-.038.038-.057.038-.038.038-.038.038-.038.038-.019.019-.038.038-.057.038-.038.038-.057.038-.038.038-.057.038h0l-.038.038-.057.038-.151.132-.057.038-.038.019-.019.019-.057.038-.057.038-.057.038-.057.038-.057.038-.057.038h0l-.038.038-.057.038-.057.038-.057.038-.057.038-.057.038c-.416.34-.833.662-1.249,1h0v.019h-.019l-.019.019h-.019l-.019.019h-.132l-.019.019h0l-.019.019h-.019l-.019.019h-.019a83.871,83.871,0,0,1-11.408,7.019c-2.724.662-6.924-1.192-8.022-3.406,7,2.97,17.765-3.235,21.568-8.854,1.495-2.195,2.5-4.635-.114-6.527a5.693,5.693,0,0,1-5.487.284c-2.1,2.4-5.562,1.949-8.211.813,0,0-1.495,1.551-4.824.53-3.33-1.041-7.151-8.665-5.146-6.376s7.359,3.1,6.357-6.357c-.435-4.068-4.144-10.292-8.816-7.833-7.151,3.765-7.076,15.041-8.589,20.527.681-12.2,3.084-19.808,6.678-21.435a15.433,15.433,0,0,1,5.712-.509Zm3.9,2.8a24.572,24.572,0,0,1,4.295,9.441c2.232,3.235,6.489,4.635,6.187.038a24.119,24.119,0,0,0-3.349-10.311c-2.914-4.314-7.038-1.551-7.152.757l.019.076Zm8.135-1.305a42.176,42.176,0,0,1,4.749,10.878s3.746,4.446,5.43-.17c1.06-2.914-3.141-14.265-7.4-14.284-2.251.019-2.705,2.762-2.781,3.576Z" data-name="Path 659" transform="translate(-2142.123 -1404.027)"/><path id="Path_660" fill="#faa66e" fill-rule="evenodd" d="M2537.844,1748.433l.095.019h.038l.133.038h0l.094.019h0l.076.019.076.019h.019l.057.019.076.019h.019l.076.019.038.019.038.019.075.019h.02l.057.019h.019l.057.019.075.038.038.019.038.019.057.038h0l.057.019.057.038.057.038.019.019.038.019.057.038h0l.057.038.038.019.019.019.057.038.057.038.057.038h0l.038.038.038.019.019.019.038.038.019.019.038.019.038.038h0l.038.038.019.019.019.019.038.038.019.019.019.019.038.038h0l.038.038.019.019.019.019.038.038h0l.019.019.019.019h0l.038.038.02.019.019.019.019.019h0l.019.019.019.019h0l.019.019v.019l.019.019.019.019h0l.019.019.019.019h0l.019.019V1750l.019.019h0l.019.019v.019h0v.019h0v.019h0v-.038l.019-.019v-.019c.246-.454,1.778-3.046,4.124-3.538a3.227,3.227,0,0,1,1.779.113l.057.019h.019l.094.038h.019l.057.038h0l.076.038h0l.038.019.038.019h.019l.057.038h0l.057.019.019.019.019.019.038.038h0l.057.038h.019l.038.019.038.019.019.019.057.038h0l.057.038.019.019.038.019.038.019.019.019.057.038h0l.038.038.019.019.019.019.038.038h.019l.038.038h0l.038.038.019.019.019.019.038.038h0l.038.038h0l.038.038.019.019.019.019.038.038h0l.038.038v.019l.019.019.019.019.019.019.038.038h0l.038.038.019.019.019.019.019.019h0l.019.038h0l.02.038.019.019.019.019.019.019h0l.019.038h0l.019.019.019.019v.019l.019.019h0l.019.019v.019l.019.019.02.019h0l.019.019h0l.019.019v.057h0l.019.019h0l.019.019h0v.019h0v.019h0l.019-.038.019-.019.019-.057.019-.038h0c.3-.681,1.627-3.368,3.216-3.708a2.644,2.644,0,0,1,1.854.341h.019l.019.019.038.019h0l.038.019.019.019.019.019.038.019h0l.019.019.038.019h0l.038.019.019.019.019.019.038.019h0l.019.019.057.057.019.019.019.019.038.019h0l.038.019.019.019h.019l.038.019h0l.019.019.019.019h0l.038.019.019.019.02.019.019.019h0l.019.019.019.019h0l.019.019.019.019.019.019.057.038.019.019h0l.019.019h0l.019.019.019.019h0l.019.019.019.019h0l.019.019h0l.019.019.019.019h0l.019.019v.038l.019.019h0l.019.019.02.019h0l.019.019h0v.019l.019.019h0l.019.019v.019h0l.019.019h0v.019h0v.019h0v.019h0v-.019h0v-.057h0v-.019l.019-.019v-.038l.019-.019.019-.019h0v-.019c3.746,4.219,7.151,8.816,7.322,14.625.095,3.424-1.173,6.47-2.952,6.584-2.989.208-4.995-3.178-4.995-3.178s-.889,4.692-3.878,4.768c-2.989.057-4.768-3.935-4.768-3.935s-1.192,5.222-4.408,4.692c-2.933-.492-4.976-4.484-5.316-5.184a3.1,3.1,0,0,1,.4.378c2.005,2.289,7.359,3.1,6.357-6.357-.435-4.068-4.143-10.292-8.816-7.833-7.151,3.765-7.076,15.041-8.589,20.527.681-12.2,3.084-19.808,6.679-21.435a11.607,11.607,0,0,1,5.9-.945Zm-1.778,15.835c0-.094.019-.113.076-.113l-.076.113Zm5.676-13.035a24.57,24.57,0,0,1,4.294,9.441c2.232,3.235,6.489,4.635,6.187.038a24.112,24.112,0,0,0-3.349-10.311c-2.914-4.314-7.038-1.551-7.151.757l.019.076Zm8.135-1.305a42.178,42.178,0,0,1,4.749,10.878s3.746,4.446,5.43-.17c1.06-2.914-3.141-14.265-7.4-14.284-2.251.019-2.705,2.762-2.781,3.576Z" data-name="Path 660" transform="translate(-2177.985 -1425.634)"/></g><g id="Group_189" data-name="Group 189" transform="translate(1189.063 114.572)"><path id="XMLID_41_" fill="#32ab8e" d="M353.3,178.218a46.367,46.367,0,0,0,3.982,7.24h289.58c2.172-1.448,4.344-2.9,6.154-4.344,7.24-6.516,10.859-17.737,6.154-26.424-3.62-6.516-11.583-9.773-19.185-9.773s-14.841,2.9-21.356,6.154c10.859-7.963,19.547-19.185,21.356-32.578s-4.344-27.872-16.289-33.664-28.958,0-32.94,13.031c2.534-10.5,5.068-20.995,4.344-31.492-.362-10.5-4.344-21.718-12.669-28.234-12.307-9.773-30.768-7.6-44.523,0a72.418,72.418,0,0,0-35.835,52.848c-3.62-10.859.362-22.442.724-33.664S496.638,31.98,485.417,32.7c-7.239.362-12.669,6.878-16.651,13.031a167.456,167.456,0,0,0-25.338,70.947c-16.289-15.565-16.651-46.695-38.007-52.848-14.841-4.344-30.768,8.325-35.112,23.528s-.724,31.13,2.9,46.333c-3.258-8.325-6.877-17.375-13.393-23.528-6.878-6.154-17.737-8.687-24.976-2.9-8.687,6.516-7.239,20.271-3.258,30.406C337.369,151.794,346.78,164.463,353.3,178.218Z" transform="translate(-328.431 -31.593)"/><path id="XMLID_40_" fill="#44c788" d="M441.183,71.182a11.586,11.586,0,0,0-9.049-1.81c2.172-11.221.724-24.976-13.755-24.252-9.773.724-17.375,7.239-20.633,15.927a13.562,13.562,0,0,0-14.117-7.6c-9.411,1.448-13.393,10.5-12.669,18.823,0,2.534,3.982,2.534,3.62,0-.362-4.706,0-11.583,5.068-13.755,7.964-3.62,16.289,1.086,15.927,10.135,0,2.534,3.62,2.172,3.62,0a22.161,22.161,0,0,1,13.755-18.823c15.927-6.154,17.375,11.221,14.479,21.357a5,5,0,0,0-1.086,1.448c-1.448,1.81,1.086,4.344,2.534,2.534a.355.355,0,0,1,.362-.362c.724,0,1.086-.362,1.448-1.086,2.172-1.448,5.43-1.81,7.6,0,3.258,2.534,3.62,7.24,1.81,10.5-1.086,2.172,2.172,3.982,3.258,1.81A10.838,10.838,0,0,0,441.183,71.182Z" transform="translate(-217.232 3.772)"/><path id="XMLID_39_" fill="#44c788" d="M382.152,53.5c-8.325-1.81-11.583,5.43-12.669,12.307-3.62-6.154-9.049-13.031-15.927-8.687-7.963,5.068-5.068,17.013.362,22.8,1.81,1.81,4.344-1.086,2.534-2.534-2.172-2.172-3.982-4.706-3.982-7.963-.362-4.344,1.086-13.031,9.411-7.963,3.258,2.172,5.43,7.963,7.24,11.583.724,1.81,3.62.724,3.62-1.086,0-4.706-.362-12.307,5.068-14.479,8.325-3.258,10.5,10.135,8.325,13.755a1.864,1.864,0,1,0,3.258,1.81C392.65,67.621,389.754,55.314,382.152,53.5Z" transform="translate(-275.481 25.07)"/><path id="XMLID_38_" fill="#44c788" d="M396.294,63.767c-6.515,2.172-14.479,9.773-11.945,17.375.724,2.172,4.344,1.448,3.62-1.086-1.81-5.068,4.706-10.859,9.049-12.307,5.43-1.81,10.5,1.81,11.221,7.24.362,2.172,3.982,1.448,3.62-1.086C410.411,66.663,403.172,61.6,396.294,63.767Z" transform="translate(-183.202 51.366)"/></g><path id="XMLID_37_" fill="#44c788" d="M166.4,62.818c-3.258-3.982-10.135-4.706-13.393-1.086-1.448-6.878-7.963-13.755-14.841-14.841s-12.669,5.068-14.841,11.583c-2.9-2.172-7.24-3.258-10.859-1.448-7.24,3.258-11.221,14.117-5.068,20.271,1.81,1.81,4.344-1.086,2.534-2.534-3.62-3.982-1.448-10.5,2.534-13.393a7.654,7.654,0,0,1,10.135.724v3.62a.96.96,0,0,0,1.086,1.086v.362c-.362,2.172,2.9,3.258,3.62,1.086a9.679,9.679,0,0,0-.724-6.516c1.086-6.516,8.325-13.393,14.479-10.135,4.706,2.534,9.773,8.325,9.049,14.117-.362,2.172,3.258,3.258,3.62,1.086v-.362a1.322,1.322,0,0,0,1.81-.724c1.448-2.9,5.43-2.9,7.6-1.086a8.648,8.648,0,0,1,2.534,4.706c0,.362.724,5.792.362,5.792a1.812,1.812,0,1,0,0,3.62C172.912,79.468,168.93,65.713,166.4,62.818Z" transform="translate(273.63 122.727)"/><path id="XMLID_36_" fill="#44c788" d="M131.241,68.638c-3.258-11.583-17.375-11.583-21.718-2.534-5.792-6.154-19.185.724-13.393,10.859,1.086,2.172,4.344.362,3.258-1.81-4.344-7.963,7.963-10.135,9.049-2.9.362,2.172,3.62,1.448,3.62-.362a7.871,7.871,0,0,1,15.565-2.172C127.983,71.9,131.6,70.81,131.241,68.638Z" transform="translate(248.336 156.362)"/><path id="XMLID_35_" fill="#32ab8e" d="M137.38,60.915c-1.448-3.258-5.792-5.43-9.049-6.516a16.262,16.262,0,0,0-15.565,3.258c-.362-8.325-14.479-16.289-21.357-16.651C79.1,40.645,71.5,51.142,69.329,62a12.579,12.579,0,0,0-18.461,1.448c-6.516,7.963-5.43,19.909,1.086,27.51,1.448,1.81,4.344-.724,2.534-2.534a17.619,17.619,0,0,1-3.62-17.737c1.448-4.344,4.706-8.325,9.411-8.687,3.982-.362,6.878,2.172,8.325,5.43v.724a1.881,1.881,0,0,0,.724,1.448v.362c.362,2.172,3.982,1.448,3.62-1.086a5.145,5.145,0,0,0-.724-2.172c.724-8.325,4.344-17.375,12.669-20.633A17.846,17.846,0,0,1,99.735,47.16c3.258,1.81,11.945,9.049,8.687,13.393a2.191,2.191,0,0,0,.362,2.9c.362,1.448,2.534,2.172,3.258.724a12.141,12.141,0,0,1,13.031-6.516c3.258.724,6.516,1.81,7.963,4.706,1.81,3.258.724,7.24-.724,10.5-.724,2.172,2.9,3.258,3.62,1.086C137.38,69.965,139.19,64.9,137.38,60.915Z" transform="translate(122.021 107.616)"/><path id="XMLID_34_" fill="#32ab8e" d="M331.713,51.8c-3.982-1.81-8.325-1.086-11.945.724a15.4,15.4,0,0,0-18.1-11.583c-10.135,2.172-16.289,11.583-18.1,21.357-3.982-4.706-9.411-6.154-15.2-1.086-6.878,6.154-6.516,15.927-.362,22.442a1.8,1.8,0,1,0,2.534-2.534c-4.344-4.706-5.068-11.583-.362-16.289,2.172-2.172,5.068-3.982,7.963-2.534,2.172,1.086,3.62,3.62,5.068,5.792v.362a1.812,1.812,0,1,0,3.62,0c0-8.325,3.258-17.013,10.859-21.357,8.325-4.706,18.1-.724,18.823,8.325-1.448,1.81-1.81,4.706,1.086,5.792,1.81.724,3.258-1.086,2.534-2.172V57.23l4.344-2.172c3.258-.724,6.154.362,8.687,2.9,3.258,3.258,7.963,10.859,2.172,14.479-2.172,1.086-.362,4.344,1.81,3.258C346.916,69.537,339.315,55.782,331.713,51.8Z" transform="translate(690.007 106.596)"/><path id="XMLID_33_" fill="#32ab8e" d="M311.633,69.945c-1.448-3.258-1.448-6.154-4.706-8.687-3.982-2.9-9.049-3.258-13.755-3.258-9.773,0-12.307,7.963-15.2,15.927-.724,2.172,2.9,3.258,3.62,1.086,2.534-6.878,4.706-13.755,13.755-13.393,4.706.362,9.773.724,11.945,5.792.724,1.448.724,2.9,1.448,4.344a7.912,7.912,0,0,0-1.086,1.81c-1.086,2.172,2.172,3.982,3.258,1.81,2.534-5.068,15.565-3.258,12.669,2.9-1.086,2.172,2.172,3.982,3.258,1.81C330.455,71.755,318.872,67.049,311.633,69.945Z" transform="translate(728.186 152.159)"/><path id="XMLID_32_" fill="#32ab8e" d="M100.378,61.641c-5.43-6.154-14.479-3.258-16.651,3.62-3.982-4.344-9.773-7.963-15.565-4.344-7.239,4.344-6.154,13.755-3.258,20.271,1.086,2.172,3.982.362,3.258-1.81C65.99,74.31,64.9,65.261,71.782,63.451,76.849,62,80.831,67.433,83.727,70.69c.724,2.172,3.982,1.086,3.62-1.086-1.086-6.516,6.516-9.773,10.859-5.068C99.292,66.347,102.188,63.451,100.378,61.641Z" transform="translate(164.453 152.861)"/><path id="XMLID_31_" fill="#228a71" d="M144.4,24.82a9.817,9.817,0,0,0-16.651,1.086c-2.534-4.706-7.963-9.049-13.393-7.6-2.9.724-5.068,3.982-6.516,6.154-1.81,2.9-2.534,5.43-1.086,8.687.724,1.448,2.9,0,2.172-1.086-1.448-2.534,0-5.068,1.81-7.239,1.81-2.534,3.62-4.706,7.239-3.62a13.021,13.021,0,0,1,8.325,7.963v1.448c0,1.448,2.534,1.448,2.534,0a7.15,7.15,0,0,1,13.031-3.982C142.955,27.354,145.127,26.268,144.4,24.82Z" transform="translate(277.887 47.426)"/><path id="XMLID_30_" fill="#228a71" d="M152.3,28.915c-1.81-1.81-3.982-1.448-5.792-.362-.724-6.154-3.258-14.479-9.773-14.841-6.878-.362-12.307,5.43-13.031,11.945,0,1.448,2.172,1.448,2.534,0,.362-5.068,5.43-10.859,11.221-9.411,5.068,1.448,6.516,9.411,6.878,14.479a.355.355,0,0,1-.362.362c-.724,1.086.362,1.81,1.086,1.81a1.222,1.222,0,0,0,1.81-1.086v-.362c1.086-1.448,2.172-2.534,3.62-1.086.724.724,2.9,3.982,1.81,4.706-1.448.724,0,2.9,1.086,2.172C156.278,35.43,154.106,30.724,152.3,28.915Z" transform="translate(324.29 36.092)"/><path id="XMLID_29_" fill="#228a71" d="M112.9,31.524a7.881,7.881,0,0,0-2.9,1.81,20.594,20.594,0,0,0-4.344-6.154c-2.9-3.258-6.516-3.258-10.5-1.81C89,27.9,85.747,37.316,93.711,40.212c1.448.724,2.172-1.81.724-2.534-3.258-1.086-3.258-5.068-1.81-7.239a7.816,7.816,0,0,1,5.068-3.258c3.258-.724,5.43.724,6.878,3.258,1.086,1.81,3.982,5.43,3.258,7.6-.362,1.448,1.81,2.172,2.534.724V38.4c.362-.362,1.086-.724.724-1.448A2.59,2.59,0,0,1,112.9,33.7a2.529,2.529,0,0,1,2.9,2.172c0,1.448,2.534,1.448,2.534,0A4.716,4.716,0,0,0,112.9,31.524Z" transform="translate(233.38 64.251)"/><path id="XMLID_28_" fill="#228a71" d="M304.587,39.3c-8.687-5.068-18.461-.724-24.614,5.792-.724-13.393-9.411-26.062-24.252-27.148a20.911,20.911,0,0,0-22.08,25.338c.362,1.81,3.258,1.086,2.9-.724-3.258-13.393,9.773-24.252,22.8-20.995,12.307,3.258,18.1,15.2,17.737,27.148-.362.362-.362.724-.724,1.086-.724,1.448,1.086,2.9,2.172,1.81.724,0,1.086-.724,1.086-1.448V49.8c4.706-6.878,13.031-12.307,21.356-9.049,6.154,2.534,9.773,10.135,7.24,15.927-.362-1.448-2.9-.724-2.9,1.086.362,1.086.362,2.172.724,3.62,0,1.086,1.81,1.448,2.534.724C315.085,54.869,312.189,44.009,304.587,39.3Z" transform="translate(611.074 47.06)"/><path id="XMLID_27_" fill="#228a71" d="M275.606,15.6c-4.706-3.62-11.583-3.982-15.927.724s-4.344,11.945-3.62,18.1c.362,1.81,2.9,1.086,2.9-.724-1.086-7.239.362-20.271,10.859-17.375,9.773,2.534,9.773,13.031,12.307,20.633a1.494,1.494,0,0,0-2.9.724c1.086,3.982,5.43,1.448,5.43-1.81C285.018,28.63,281.036,19.58,275.606,15.6Z" transform="translate(670.099 33.843)"/></g></g></svg>