<svg xmlns="http://www.w3.org/2000/svg" width="32.915" height="33.341" viewBox="0 0 32.915 33.341"><g id="lightbulb" transform="translate(-3.213)"><path id="Path_1152" fill="#50758d" d="M207.188,460.583v.845a2.023,2.023,0,0,1-.012.221,1.988,1.988,0,0,1-1.975,1.767h-3.047a1.988,1.988,0,0,1-1.975-1.767,2.019,2.019,0,0,1-.012-.221v-.845a2.109,2.109,0,0,0,.861.182h5.3A2.109,2.109,0,0,0,207.188,460.583Z" data-name="Path 1152" transform="translate(-183.908 -430.074)"/><g id="Group_365" data-name="Group 365" transform="translate(3.213 0)"><path id="Path_1153" fill="#ffe7c9" d="M244.664,4.343a.5.5,0,0,1-.5-.5V.5a.5.5,0,1,1,.994,0V3.846A.5.5,0,0,1,244.664,4.343Z" data-name="Path 1153" transform="translate(-228.206 0)"/><path id="Path_1154" fill="#ffe7c9" d="M76.651,73.936a.5.5,0,0,1-.351-.145l-2.368-2.368a.5.5,0,0,1,.7-.7L77,73.088a.5.5,0,0,1-.351.848Z" data-name="Path 1154" transform="translate(-69.112 -65.899)"/><path id="Path_1155" fill="#ffe7c9" d="M7.059,241.947H3.71a.5.5,0,1,1,0-.994H7.059a.5.5,0,0,1,0,.994Z" data-name="Path 1155" transform="translate(-3.213 -224.992)"/><path id="Path_1156" fill="#ffe7c9" d="M74.283,378.942a.5.5,0,0,1-.351-.848l2.368-2.368a.5.5,0,0,1,.7.7L74.634,378.8A.5.5,0,0,1,74.283,378.942Z" data-name="Path 1156" transform="translate(-69.112 -350.702)"/><path id="Path_1157" fill="#ffe7c9" d="M381.656,378.942a.5.5,0,0,1-.351-.145l-2.368-2.368a.5.5,0,0,1,.7-.7l2.368,2.368a.5.5,0,0,1-.351.848Z" data-name="Path 1157" transform="translate(-353.913 -350.702)"/><path id="Path_1158" fill="#ffe7c9" d="M438.4,241.947h-3.349a.5.5,0,1,1,0-.994H438.4a.5.5,0,1,1,0,.994Z" data-name="Path 1158" transform="translate(-405.985 -224.992)"/><path id="Path_1159" fill="#ffe7c9" d="M379.288,73.936a.5.5,0,0,1-.351-.848l2.368-2.368a.5.5,0,0,1,.7.7l-2.368,2.368A.5.5,0,0,1,379.288,73.936Z" data-name="Path 1159" transform="translate(-353.913 -65.899)"/></g><path id="Path_1160" fill="#2b597f" d="M203.678,453.333a27.524,27.524,0,0,1-3.511.48v.845a2.027,2.027,0,0,0,.012.221,1.988,1.988,0,0,0,1.975,1.767h.861a1.988,1.988,0,0,1-1.873-1.322.2.2,0,0,1,.187-.268h5a2.109,2.109,0,0,0,.849-.177,2.027,2.027,0,0,0,.012-.221v-.845A27.524,27.524,0,0,1,203.678,453.333Z" data-name="Path 1160" transform="translate(-183.908 -423.304)"/><path id="Path_1161" fill="#50758d" d="M190.183,377.175a2.118,2.118,0,0,1-2.12,2.12h-5.3a2.118,2.118,0,0,1-2.12-2.12s-.031-3.1-.037-3.177v0l4.806-.662,4.751.662Z" data-name="Path 1161" transform="translate(-165.643 -348.604)"/><path id="Path_1162" fill="#2b597f" d="M183.89,388.632h-1.126a2.118,2.118,0,0,1-2.12-2.12s-.031-3.1-.037-3.177v0h1.126v0c.006.081.037,3.177.037,3.177a2.118,2.118,0,0,0,2.12,2.12Z" data-name="Path 1162" transform="translate(-165.643 -357.941)"/><path id="Path_1163" fill="#2b597f" d="M294.353,416.827h-1.689a.5.5,0,1,1,0-.994h1.684l0,.5Z" data-name="Path 1163" transform="translate(-269.814 -388.288)"/><path id="Path_1164" fill="#2b597f" d="M187.027,416.33a.5.5,0,0,1-.5.5H181l-.011-.994h5.543A.5.5,0,0,1,187.027,416.33Z" data-name="Path 1164" transform="translate(-165.998 -388.288)"/><path id="Path_1165" fill="#fad207" d="M120.312,90.486h0a9.4,9.4,0,0,0-9.326,9.459,9.5,9.5,0,0,0,2.689,6.647,5.329,5.329,0,0,1,1.922,3.291l9.558.016a5.109,5.109,0,0,1,1.832-3.363,9.5,9.5,0,0,0,2.635-6.591A9.388,9.388,0,0,0,120.312,90.486Z" data-name="Path 1165" transform="translate(-100.633 -84.491)"/><path id="Path_1166" fill="#faa515" d="M125.154,109.9v0l-9.558-.016a5.33,5.33,0,0,0-1.922-3.291,9.5,9.5,0,0,1-2.689-6.647,9.4,9.4,0,0,1,9.326-9.458q.247,0,.492.013a9.5,9.5,0,0,0-6,16.092,5.33,5.33,0,0,1,1.922,3.291Z" data-name="Path 1166" transform="translate(-100.632 -84.494)"/><path id="Path_1167" fill="#faa515" d="M183.736,200.538a1.093,1.093,0,0,1-.822.422h-.041a1.093,1.093,0,0,1-.811-.36l-3.113-3.444a1.093,1.093,0,0,1,1.622-1.466l2.239,2.477,3.572-4.6a1.093,1.093,0,1,1,1.726,1.341Z" data-name="Path 1167" transform="translate(-163.831 -180.35)"/></g></svg>