<svg xmlns="http://www.w3.org/2000/svg" width="23.16" height="20.678" viewBox="0 0 23.16 20.678"><g id="money" transform="translate(0 -27.437)"><path id="Path_1133" fill="#e7a52e" d="M237.884,59.925h0l-3.394-1.168-5.926,1.168v2.585l9.707,1.6,1.731-1.6A10.394,10.394,0,0,0,237.884,59.925Z" data-name="Path 1133" transform="translate(-218.224 -29.902)"/><g id="Group_363" data-name="Group 363" transform="translate(10.339 38.862)"><path id="Path_1134" fill="#e7a52e" d="M237.883,409.63l-4.431-.843-4.89.843v2.585h2.482a10.3,10.3,0,0,0,6.784-2.537" data-name="Path 1134" transform="translate(-228.563 -402.961)"/><path id="Path_1135" fill="#e7a52e" d="M228.563,284.08l6.991,1.012L240,284.08a10.274,10.274,0,0,0,1.058-2.585l-5.2-1.5-7.3,1.5Z" data-name="Path 1135" transform="translate(-228.563 -279.996)"/></g><path id="Path_1136" fill="#e7a52e" d="M241.059,158.827l-3.176-1.9-9.32,1.9v2.585l10.176,1.837,2.645-1.837A10.353,10.353,0,0,0,241.059,158.827Z" data-name="Path 1136" transform="translate(-218.224 -123.635)"/><path id="Path_1137" fill="#e28424" d="M239.944,37.776A10.339,10.339,0,0,0,229.6,27.437q-.527,0-1.041.052V48.115H229.6A10.339,10.339,0,0,0,239.944,37.776Z" data-name="Path 1137" transform="translate(-218.225 0)"/><g id="Group_364" data-name="Group 364" transform="translate(10.339 27.437)"><path id="Path_1138" fill="#c85929" d="M237.883,30.022a10.3,10.3,0,0,0-6.838-2.585h-2.482v2.585Z" data-name="Path 1138" transform="translate(-228.563 -27.437)"/><path id="Path_1139" fill="#c85929" d="M228.563,144.3h12.5A10.274,10.274,0,0,0,240,141.718H228.563Z" data-name="Path 1139" transform="translate(-228.563 -136.548)"/><path id="Path_1140" fill="#c85929" d="M228.563,258.585h12.5a10.357,10.357,0,0,0,.326-2.585H228.563Z" data-name="Path 1140" transform="translate(-228.563 -245.661)"/><path id="Path_1141" fill="#c85929" d="M228.563,372.866h9.32A10.384,10.384,0,0,0,240,370.281H228.563Z" data-name="Path 1141" transform="translate(-228.563 -354.772)"/></g><path id="Path_1142" fill="#b94029" d="M238.559,370.282h-10v2.585h7.878A10.387,10.387,0,0,0,238.559,370.282Z" data-name="Path 1142" transform="translate(-218.224 -327.336)"/><path id="Path_1143" fill="#b94029" d="M239.944,256h-11.38v2.585h11.054A10.359,10.359,0,0,0,239.944,256Z" data-name="Path 1143" transform="translate(-218.225 -218.224)"/><path id="Path_1144" fill="#b94029" d="M238.559,141.718h-10V144.3h11.054A10.274,10.274,0,0,0,238.559,141.718Z" data-name="Path 1144" transform="translate(-218.224 -109.111)"/><path id="Path_1145" fill="#b94029" d="M229.6,27.437q-.527,0-1.041.052v2.533h7.878A10.3,10.3,0,0,0,229.6,27.437Z" data-name="Path 1145" transform="translate(-218.224 0)"/><circle id="Ellipse_172" cx="10.339" cy="10.339" r="10.339" fill="#f6e266" data-name="Ellipse 172" transform="translate(0 27.437)"/><path id="Path_1146" fill="#fbf4af" d="M76.857,51.049a10.371,10.371,0,0,0,1.7,1.228L81.395,33.24a10.259,10.259,0,0,0-1.985.677Z" data-name="Path 1146" transform="translate(-73.38 -5.541)"/><path id="Path_1147" fill="#eab14d" d="M216.743,27.437q-.282,0-.56.015a10.339,10.339,0,0,1,0,20.648q.278.015.56.015a10.339,10.339,0,0,0,0-20.678Z" data-name="Path 1147" transform="translate(-206.404 0)"/><circle id="Ellipse_173" cx="8.327" cy="8.327" r="8.327" fill="#e7a52e" data-name="Ellipse 173" transform="translate(2.012 29.449)"/><path id="Path_1148" fill="#e28424" d="M215.5,71.923q-.312,0-.619.023a8.327,8.327,0,0,1,0,16.608q.307.023.619.023a8.327,8.327,0,1,0,0-16.654Z" data-name="Path 1148" transform="translate(-205.156 -42.474)"/><path id="Path_1149" fill="#eab14d" d="M85.136,94.558a8.375,8.375,0,0,0,1.652,1.56l2.186-14.675a8.3,8.3,0,0,0-2.035,1.012Z" data-name="Path 1149" transform="translate(-81.285 -51.563)"/><path id="Path_1150" fill="#c85929" d="M123.1,151.683l1.572,2.415a.3.3,0,0,0,.175.127l2.782.749a.3.3,0,0,1,.157.484l-1.811,2.241a.3.3,0,0,0-.067.206l.148,2.878a.3.3,0,0,1-.411.3l-2.691-1.03a.3.3,0,0,0-.217,0l-2.691,1.03a.3.3,0,0,1-.411-.3l.148-2.878a.3.3,0,0,0-.067-.206l-1.811-2.241a.3.3,0,0,1,.157-.484l2.782-.749a.3.3,0,0,0,.175-.127l1.572-2.415a.3.3,0,0,1,.508,0Z" data-name="Path 1150" transform="translate(-112.509 -118.494)"/><path id="Path_1151" fill="#b94029" d="M241.2,204.562l-2.782-.749a.3.3,0,0,1-.175-.127l-.132-.2a15.114,15.114,0,0,1-1.322,6.258l2.427.929a.3.3,0,0,0,.411-.3l-.148-2.878a.3.3,0,0,1,.067-.206l1.811-2.241A.3.3,0,0,0,241.2,204.562Z" data-name="Path 1151" transform="translate(-226.078 -168.083)"/></g></svg>