<svg xmlns="http://www.w3.org/2000/svg" width="23.16" height="20.678" viewBox="0 0 23.16 20.678">
  <g id="money" transform="translate(0 -27.437)">
    <path id="Path_1133" data-name="Path 1133" d="M237.884,59.925h0l-3.394-1.168-5.926,1.168v2.585l9.707,1.6,1.731-1.6A10.394,10.394,0,0,0,237.884,59.925Z" transform="translate(-218.224 -29.902)" fill="#e7a52e"/>
    <g id="Group_363" data-name="Group 363" transform="translate(10.339 38.862)">
      <path id="Path_1134" data-name="Path 1134" d="M237.883,409.63l-4.431-.843-4.89.843v2.585h2.482a10.3,10.3,0,0,0,6.784-2.537" transform="translate(-228.563 -402.961)" fill="#e7a52e"/>
      <path id="Path_1135" data-name="Path 1135" d="M228.563,284.08l6.991,1.012L240,284.08a10.274,10.274,0,0,0,1.058-2.585l-5.2-1.5-7.3,1.5Z" transform="translate(-228.563 -279.996)" fill="#e7a52e"/>
    </g>
    <path id="Path_1136" data-name="Path 1136" d="M241.059,158.827l-3.176-1.9-9.32,1.9v2.585l10.176,1.837,2.645-1.837A10.353,10.353,0,0,0,241.059,158.827Z" transform="translate(-218.224 -123.635)" fill="#e7a52e"/>
    <path id="Path_1137" data-name="Path 1137" d="M239.944,37.776A10.339,10.339,0,0,0,229.6,27.437q-.527,0-1.041.052V48.115H229.6A10.339,10.339,0,0,0,239.944,37.776Z" transform="translate(-218.225 0)" fill="#e28424"/>
    <g id="Group_364" data-name="Group 364" transform="translate(10.339 27.437)">
      <path id="Path_1138" data-name="Path 1138" d="M237.883,30.022a10.3,10.3,0,0,0-6.838-2.585h-2.482v2.585Z" transform="translate(-228.563 -27.437)" fill="#c85929"/>
      <path id="Path_1139" data-name="Path 1139" d="M228.563,144.3h12.5A10.274,10.274,0,0,0,240,141.718H228.563Z" transform="translate(-228.563 -136.548)" fill="#c85929"/>
      <path id="Path_1140" data-name="Path 1140" d="M228.563,258.585h12.5a10.357,10.357,0,0,0,.326-2.585H228.563Z" transform="translate(-228.563 -245.661)" fill="#c85929"/>
      <path id="Path_1141" data-name="Path 1141" d="M228.563,372.866h9.32A10.384,10.384,0,0,0,240,370.281H228.563Z" transform="translate(-228.563 -354.772)" fill="#c85929"/>
    </g>
    <path id="Path_1142" data-name="Path 1142" d="M238.559,370.282h-10v2.585h7.878A10.387,10.387,0,0,0,238.559,370.282Z" transform="translate(-218.224 -327.336)" fill="#b94029"/>
    <path id="Path_1143" data-name="Path 1143" d="M239.944,256h-11.38v2.585h11.054A10.359,10.359,0,0,0,239.944,256Z" transform="translate(-218.225 -218.224)" fill="#b94029"/>
    <path id="Path_1144" data-name="Path 1144" d="M238.559,141.718h-10V144.3h11.054A10.274,10.274,0,0,0,238.559,141.718Z" transform="translate(-218.224 -109.111)" fill="#b94029"/>
    <path id="Path_1145" data-name="Path 1145" d="M229.6,27.437q-.527,0-1.041.052v2.533h7.878A10.3,10.3,0,0,0,229.6,27.437Z" transform="translate(-218.224 0)" fill="#b94029"/>
    <circle id="Ellipse_172" data-name="Ellipse 172" cx="10.339" cy="10.339" r="10.339" transform="translate(0 27.437)" fill="#f6e266"/>
    <path id="Path_1146" data-name="Path 1146" d="M76.857,51.049a10.371,10.371,0,0,0,1.7,1.228L81.395,33.24a10.259,10.259,0,0,0-1.985.677Z" transform="translate(-73.38 -5.541)" fill="#fbf4af"/>
    <path id="Path_1147" data-name="Path 1147" d="M216.743,27.437q-.282,0-.56.015a10.339,10.339,0,0,1,0,20.648q.278.015.56.015a10.339,10.339,0,0,0,0-20.678Z" transform="translate(-206.404 0)" fill="#eab14d"/>
    <circle id="Ellipse_173" data-name="Ellipse 173" cx="8.327" cy="8.327" r="8.327" transform="translate(2.012 29.449)" fill="#e7a52e"/>
    <path id="Path_1148" data-name="Path 1148" d="M215.5,71.923q-.312,0-.619.023a8.327,8.327,0,0,1,0,16.608q.307.023.619.023a8.327,8.327,0,1,0,0-16.654Z" transform="translate(-205.156 -42.474)" fill="#e28424"/>
    <path id="Path_1149" data-name="Path 1149" d="M85.136,94.558a8.375,8.375,0,0,0,1.652,1.56l2.186-14.675a8.3,8.3,0,0,0-2.035,1.012Z" transform="translate(-81.285 -51.563)" fill="#eab14d"/>
    <path id="Path_1150" data-name="Path 1150" d="M123.1,151.683l1.572,2.415a.3.3,0,0,0,.175.127l2.782.749a.3.3,0,0,1,.157.484l-1.811,2.241a.3.3,0,0,0-.067.206l.148,2.878a.3.3,0,0,1-.411.3l-2.691-1.03a.3.3,0,0,0-.217,0l-2.691,1.03a.3.3,0,0,1-.411-.3l.148-2.878a.3.3,0,0,0-.067-.206l-1.811-2.241a.3.3,0,0,1,.157-.484l2.782-.749a.3.3,0,0,0,.175-.127l1.572-2.415a.3.3,0,0,1,.508,0Z" transform="translate(-112.509 -118.494)" fill="#c85929"/>
    <path id="Path_1151" data-name="Path 1151" d="M241.2,204.562l-2.782-.749a.3.3,0,0,1-.175-.127l-.132-.2a15.114,15.114,0,0,1-1.322,6.258l2.427.929a.3.3,0,0,0,.411-.3l-.148-2.878a.3.3,0,0,1,.067-.206l1.811-2.241A.3.3,0,0,0,241.2,204.562Z" transform="translate(-226.078 -168.083)" fill="#b94029"/>
  </g>
</svg>
