<svg id="Layer_1_1_" enable-background="new 0 0 96 96" height="512" viewBox="0 0 96 96" width="512" xmlns="http://www.w3.org/2000/svg"><path d="m93 13h-4v-3h-70v-7h74z" fill="#e6e6e6"/><path d="m89 13h4v52h-4z" fill="#f4f4f4"/><path d="m89 20h-4v-3h-70v-7h74z" fill="#d2d2d2"/><path d="m85 20h4v52h-4z" fill="#e6e6e6"/><path d="m85 27h-4v-3h-70v-7h74z" fill="#e6e6e6"/><path d="m81 27h4v52h-4z" fill="#f4f4f4"/><path d="m81 34h-4v-3h-70v-7h74z" fill="#d2d2d2"/><path d="m77 34h4v52h-4z" fill="#e6e6e6"/><path d="m3 31h74v10h-74z" fill="#63b2b9"/><path d="m3 41h74v52h-74z" fill="#f4f4f4"/><path d="m8 46h36v30h-36z" fill="#e6646e"/><circle cx="26" cy="61" fill="#f4f4f4" r="10"/><path d="m22 66v-10l10 5z" fill="#e6646e"/><path d="m49 46h10v11h-10z" fill="#f68250"/><path d="m59 46h13v11h-13z" fill="#f9be3c"/><path d="m49 61h10v11h-10z" fill="#f68250"/><path d="m59 61h13v11h-13z" fill="#f9be3c"/><path d="m49 76h10v11h-10z" fill="#f68250"/><path d="m59 76h13v11h-13z" fill="#f9be3c"/><path d="m73 37h-34c-.553 0-1-.447-1-1s.447-1 1-1h34c.553 0 1 .447 1 1s-.447 1-1 1z" fill="#50a3ab"/><circle cx="16" cy="36" fill="#e6e6e6" r="1"/><circle cx="12" cy="36" fill="#e6e6e6" r="1"/><circle cx="8" cy="36" fill="#e6e6e6" r="1"/><g fill="#8c645a"><path d="m12 81h-4c-.553 0-1-.447-1-1s.447-1 1-1h4c.553 0 1 .447 1 1s-.447 1-1 1z"/><path d="m44 81h-28c-.553 0-1-.447-1-1s.447-1 1-1h28c.553 0 1 .447 1 1s-.447 1-1 1z"/><path d="m12 85h-4c-.553 0-1-.447-1-1s.447-1 1-1h4c.553 0 1 .447 1 1s-.447 1-1 1z"/><path d="m44 85h-28c-.553 0-1-.447-1-1s.447-1 1-1h28c.553 0 1 .447 1 1s-.447 1-1 1z"/><path d="m12 89h-4c-.553 0-1-.447-1-1s.447-1 1-1h4c.553 0 1 .447 1 1s-.447 1-1 1z"/><path d="m44 89h-28c-.553 0-1-.447-1-1s.447-1 1-1h28c.553 0 1 .447 1 1s-.447 1-1 1z"/></g></svg>