<svg xmlns="http://www.w3.org/2000/svg" xmlns:xlink="http://www.w3.org/1999/xlink" width="78" height="79.843" viewBox="0 0 78 79.843">
  <defs>
    <linearGradient id="linear-gradient" x1="0.213" y1="0.452" x2="0.703" y2="0.697" gradientUnits="objectBoundingBox">
      <stop offset="0" stop-color="#45425a"/>
      <stop offset="1" stop-color="#2d3251"/>
    </linearGradient>
    <linearGradient id="linear-gradient-2" x1="0.411" y1="0.515" x2="0.927" y2="0.745" gradientUnits="objectBoundingBox">
      <stop offset="0" stop-color="#ecf7ff"/>
      <stop offset="1" stop-color="#c2e0ff"/>
    </linearGradient>
    <linearGradient id="linear-gradient-3" x1="0.029" y1="0.158" x2="0.954" y2="0.831" xlink:href="#linear-gradient"/>
    <linearGradient id="linear-gradient-4" x1="0.029" y1="0.158" x2="0.954" y2="0.831" xlink:href="#linear-gradient"/>
    <linearGradient id="linear-gradient-5" x1="0.548" y1="0.352" x2="0.102" y2="-0.073" gradientUnits="objectBoundingBox">
      <stop offset="0.003" stop-color="#c2e0ff" stop-opacity="0"/>
      <stop offset="0.076" stop-color="#bfdcfd" stop-opacity="0.075"/>
      <stop offset="1" stop-color="#9eb2e7"/>
    </linearGradient>
    <linearGradient id="linear-gradient-6" x1="0.444" y1="0.295" x2="0.58" y2="0.5" gradientUnits="objectBoundingBox">
      <stop offset="0" stop-color="#ffc738"/>
      <stop offset="0.245" stop-color="#ffc331"/>
      <stop offset="0.599" stop-color="#ffb81e"/>
      <stop offset="1" stop-color="#ffa700"/>
    </linearGradient>
  </defs>
  <g id="penguin" transform="translate(-0.501 0.001)">
    <path id="Path_1125" data-name="Path 1125" d="M3.675,79.842H75.326a3.169,3.169,0,0,0,3.16-3.462,38.953,38.953,0,0,0-7.167-19.057,27.863,27.863,0,0,1-4.457-22.678,28.123,28.123,0,1,0-54.709.067A27.726,27.726,0,0,1,7.681,57.324,38.955,38.955,0,0,0,.515,76.38a3.169,3.169,0,0,0,3.16,3.462Zm0,0" fill="url(#linear-gradient)"/>
    <path id="Path_1126" data-name="Path 1126" d="M95.494,154.29a15.281,15.281,0,0,1-2.7-17.309,23.237,23.237,0,0,0,1.249-16.764c-2.35-7.678-13.668-6-13.668,2.033l1,7.5a5.425,5.425,0,0,1-3.7,5.878l-1.834.6a12.741,12.741,0,0,1-7.883,0l-1.834-.6a5.424,5.424,0,0,1-3.7-5.876l1-7.506c0-7.951-11.252-9.751-13.626-2.163a23.167,23.167,0,0,0-1.048,7.329,22.9,22.9,0,0,0,2.311,9.648,15.294,15.294,0,0,1-2.834,17.307,32.908,32.908,0,0,0-9.347,22.748h66.028a32.91,32.91,0,0,0-9.421-22.822Zm0,0" transform="translate(-32.4 -97.27)" fill="url(#linear-gradient-2)"/>
    <path id="Path_1127" data-name="Path 1127" d="M131.25,156.865c0-2.381-1.4-4.31-3.135-4.31s-3.135,1.93-3.135,4.31,1.4,4.31,3.135,4.31,3.135-1.93,3.135-4.31Zm0,0" transform="translate(-105.068 -128.765)" fill="url(#linear-gradient-3)"/>
    <path id="Path_1128" data-name="Path 1128" d="M342.265,156.865c0-2.381-1.4-4.31-3.135-4.31s-3.135,1.93-3.135,4.31,1.4,4.31,3.135,4.31S342.265,159.245,342.265,156.865Zm0,0" transform="translate(-283.177 -128.765)" fill="url(#linear-gradient-4)"/>
    <path id="Path_1129" data-name="Path 1129" d="M219.363,244.642a15.064,15.064,0,0,1-4.16-12.2l-9.04-9.04a3.858,3.858,0,0,0-.978-.978c-.032-.046-.068-.09-.1-.134a5.421,5.421,0,0,1-3.539,3.687l-1.834.6a12.743,12.743,0,0,1-7.884,0l-1.834-.6a5.419,5.419,0,0,1-3.54-3.692,3.969,3.969,0,0,0,.727,5.552l.151.117a4.031,4.031,0,0,0,.828.862l.15.116,38.5,38.532h1.972a32.91,32.91,0,0,0-9.421-22.822Zm0,0" transform="translate(-156.269 -187.622)" fill="url(#linear-gradient-5)"/>
    <path id="Path_1130" data-name="Path 1130" d="M192.381,217.426l-5.2-4.024a3.966,3.966,0,0,1,1.28-6.935l1.335-.4a20.662,20.662,0,0,1,11.946,0l1.334.4a3.967,3.967,0,0,1,1.281,6.935l-5.2,4.024a5.532,5.532,0,0,1-6.771,0Zm0,0" transform="translate(-156.265 -173.186)" fill="url(#linear-gradient-6)"/>
  </g>
</svg>
