<svg xmlns="http://www.w3.org/2000/svg" xmlns:v="https://vecta.io/nano" width="661.333" height="661.333" viewBox="0 0 496 496"><path d="M396.945 288H99.055l-32 64H96v144h304V352h28.945zm-9.891 16l16 32H276.945l-16-32zm-278.109 0h126.109l-16 32H92.945zM384 480H256v-56h-16v56H112V352h116.945L240 329.887V400h16v-70.113L267.055 352H384zm-256-64h48v16h-48zm0 32h48v16h-48zm64 0h16v16h-16zm19.055-317.887L248 120.695l36.945 9.41 2.895-39.672 19.625-33.523-34.711-15.023L248 11.281l-24.762 30.605-34.711 15.023 19.625 33.523zM233.207 55L248 36.719l14.793 18.289 21.742 9.418-12.375 21.141-1.777 24.328L248 104.191l-22.383 5.695-1.777-24.328-12.375-21.145zM87.84 146.441l11.625-19.848-20.594-8.922L64 99.281l-14.871 18.383-20.594 8.922 11.625 19.848 1.719 23.672L64 164.48l22.129 5.633zm-15.68-4.883l-.609 8.328L64 147.969l-7.543 1.918-.617-8.328-4.375-7.48 7.625-3.301 4.91-6.059 4.902 6.066 7.625 3.305zm0 0"/><path d="M455.84 146.441l11.625-19.848-20.594-8.922L432 99.281l-14.871 18.383-20.594 8.922 11.625 19.848 1.719 23.672L432 164.48l22.129 5.633zm-15.68-4.883l-.609 8.328-7.551-1.918-7.543 1.918-.609-8.328-4.375-7.48 7.625-3.301 4.902-6.059 4.902 6.066 7.625 3.305zM99.559 190.656a177.41 177.41 0 0 1 40.203 36.863l31.688 39.594-6.555-52.418c-3.422-27.367-18.039-52.559-40.102-69.102l-7.664-5.746-23.449 46.887zm23.059-26c13.527 12.801 22.703 29.84 25.848 48.273a193.71 193.71 0 0 0-34.207-31.555zm0 0"/><path d="M331.105 214.695l-6.555 52.418 31.688-39.602a177.56 177.56 0 0 1 40.203-36.863l5.871-3.922-23.449-46.887-7.664 5.762c-22.055 16.543-36.68 41.727-40.094 69.094zm50.637-33.32c-12.637 9.113-24.109 19.68-34.207 31.555 3.152-18.434 12.32-35.473 25.848-48.273zM280 272h16v-33.52a164.85 164.85 0 0 1 38.152-105.359l-12.297-10.242C294.863 155.273 280 196.328 280 238.48zm56-176h16v16h-16zm24-32h16v16h-16zM200 272h16v-33.52c0-42.16-14.863-83.207-41.848-115.602l-12.297 10.242C186.457 162.648 200 200.055 200 238.48zM144 96h16v16h-16zm-24-32h16v16h-16zm120 72h16v16h-16zm0 0"/><path d="M240 168h16v104h-16zm224 48h16v16h-16zm0 0"/><path d="M464 248h16v16h-16zm16-16h16v16h-16zm0 0"/><path d="M448 232h16v16h-16zM440 0h16v16h-16zm0 0"/><path d="M440 32h16v16h-16zm16-16h16v16h-16zm0 0"/><path d="M424 16h16v16h-16zM16 248h16v16H16zm0 0"/><path d="M16 280h16v16H16zm16-16h16v16H32zm0 0"/><path d="M0 264h16v16H0zM16 0h16v16H16zm0 0"/><path d="M16 32h16v16H16zm16-16h16v16H32zm0 0"/><path d="M0 16h16v16H0zm0 0"/></svg>