<svg xmlns="http://www.w3.org/2000/svg" height="638.667" viewBox="0 0 479 479.85" width="638.667"  xmlns:v="https://vecta.io/nano"><path d="M293.773 195.352l-72.098 68.098-34.602-35.598c-3.836-3.949-10.152-4.039-14.098-.203a9.98 9.98 0 0 0-.203 14.102l41.5 42.602c3.855 3.879 10.086 4.012 14.102.297l79.301-74.797c1.926-1.816 3.051-4.324 3.125-6.969s-.906-5.211-2.727-7.133a10.21 10.21 0 0 0-14.301-.398zm-53.5-104.801c-82.398 0-149.398 67-149.398 149.398s67 149.402 149.398 149.402 149.402-67 149.402-149.402-67-149.398-149.402-149.398zm0 278.801c-71.398 0-129.398-58.102-129.398-129.402s58-129.398 129.398-129.398c71.469 0 129.402 57.934 129.402 129.398s-57.934 129.402-129.402 129.402zm205.602-184.403l3.301-59.301a9.98 9.98 0 0 0-5.5-9.5l-52.801-26.699-26.699-52.801a10.15 10.15 0 0 0-9.5-5.5l-59.402 3.203-49.5-32.703c-3.336-2.199-7.66-2.199-11 0l-49.5 32.703-59.297-3.301a9.96 9.96 0 0 0-9.5 5.5L89.773 89.352l-52.797 26.699c-3.539 1.813-5.687 5.527-5.5 9.5l3.297 59.301-32.699 49.5c-2.199 3.336-2.199 7.66 0 11l32.602 49.598-3.301 59.301a9.97 9.97 0 0 0 5.5 9.5l52.801 26.699 26.699 52.801c1.813 3.539 5.527 5.688 9.5 5.5l59.301-3.301 49.5 32.699c3.316 2.27 7.684 2.27 11 0l49.5-32.699 59.301 3.301a9.98 9.98 0 0 0 9.5-5.5l26.699-52.801 52.801-26.699c3.535-1.816 5.688-5.527 5.5-9.5l-3.301-59.301 32.699-49.5c2.199-3.336 2.199-7.664 0-11zM427.273 286.75a9.39 9.39 0 0 0-1.598 6.102l3.098 56.098-49.898 25.199a9.87 9.87 0 0 0-4.398 4.402l-25.203 49.898-56.098-3.098a10.93 10.93 0 0 0-6.102 1.598l-46.801 30.902-46.797-30.902a9.9 9.9 0 0 0-5.5-1.699h-.5l-56.102 3.102-25.199-49.902a9.85 9.85 0 0 0-4.402-4.398l-50-25.102 3.102-56.098c.078-2.148-.48-4.27-1.602-6.102l-30.898-46.801 30.898-46.801a9.36 9.36 0 0 0 1.602-6.098l-3.102-56.102 49.902-25.199a9.86 9.86 0 0 0 4.398-4.398l25.199-49.902 56.102 3.102a10.97 10.97 0 0 0 6.102-1.602l46.797-30.898 46.801 30.898c1.789 1.223 3.945 1.789 6.102 1.602l56.098-3.102 25.203 49.902a9.86 9.86 0 0 0 4.398 4.398l49.898 25.199-3.098 56.102a10.95 10.95 0 0 0 1.598 6.098l30.902 46.801zm0 0"/></svg>