<svg xmlns="http://www.w3.org/2000/svg" viewBox="0 0 512.001 512.001"><path d="M486.489 255.827l-23.229-2.909c-7.062-17.278-17.208-33.26-29.818-47.088l17.079-72.354c.702-2.974.006-6.105-1.89-8.501-1.896-2.396-4.783-3.794-7.838-3.796l-2.185-.001h-.035c-28.351 0-53.902 17.838-63.952 44.002-7.108-2.825-14.415-5.152-21.867-6.915-5.375-1.271-10.762 2.054-12.033 7.43-1.271 5.375 2.055 10.762 7.43 12.033 25.455 6.021 48.162 18.893 66.06 36.756.654.958 1.469 1.806 2.427 2.492 13.047 13.694 23.36 30.124 30.05 48.536 1.281 3.528 4.432 6.042 8.156 6.508l29.162 3.651c4.559.571 7.996 4.466 7.996 9.06v50.417c0 4.594-3.438 8.489-7.996 9.06l-27.023 3.383c-3.887.486-7.132 3.197-8.302 6.936-8.017 25.615-23.249 48.266-44.052 65.502-2.293 1.9-3.62 4.723-3.62 7.7v55.274c0 4.961-4.036 8.997-8.996 8.997h-58.007c-4.961 0-8.997-4.036-8.997-8.997v-21.066c0-5.523-4.478-10-10-10h-84.014c-5.522 0-10 4.477-10 10v21.066c0 4.961-4.036 8.997-8.997 8.997H153.99c-4.96 0-8.996-4.036-8.996-8.997v-39.029c0-3.667-2.007-7.039-5.229-8.788C94.883 410.818 67 363.987 67 312.969 67 236.341 129.341 174 205.969 174H218.5c5.522 0 10-4.477 10-10s-4.478-10-10-10h-12.531c-74.232 0-136.737 51.147-154.142 120.05H44.5c-13.51 0-24.5-10.991-24.5-24.5s10.99-24.5 24.5-24.5c5.522 0 10-4.477 10-10s-4.478-10-10-10c-24.537 0-44.5 19.962-44.5 44.5s19.963 44.5 44.5 44.5h3.631c-.74 6.206-1.131 12.517-1.131 18.919 0 56.349 29.734 108.232 77.993 136.827v33.208c0 15.989 13.008 28.997 28.996 28.997h58.007c15.989 0 28.997-13.008 28.997-28.997v-11.066h64.014v11.066c0 15.989 13.008 28.997 28.997 28.997h58.007c15.988 0 28.996-13.008 28.996-28.997V432.34c20.304-17.857 35.626-40.382 44.694-65.684l20.787-2.603c14.544-1.82 25.512-14.247 25.512-28.905v-50.417c0-14.657-10.967-27.084-25.511-28.904zm-69.841-65.91c-7.46-6.102-15.45-11.508-23.854-16.15 5.525-15.875 19.001-27.687 35.072-31.375l-11.218 47.525z"/><path d="M398.07 253.93c-1.859-1.86-4.439-2.93-7.069-2.93s-5.21 1.07-7.07 2.93c-1.86 1.86-2.93 4.44-2.93 7.07s1.069 5.21 2.93 7.07c1.861 1.86 4.44 2.93 7.07 2.93s5.21-1.07 7.069-2.93c1.86-1.86 2.931-4.44 2.931-7.07s-1.071-5.21-2.931-7.07zM293.242 58.333c-5.522 0-10 4.477-10 10v39.665c0 5.523 4.478 10 10 10s10-4.477 10-10V68.333c0-5.522-4.477-10-10-10zM300.31 24.98c-1.859-1.86-4.439-2.93-7.069-2.93-2.631 0-5.21 1.07-7.07 2.93-1.86 1.86-2.93 4.44-2.93 7.07 0 2.64 1.069 5.21 2.93 7.07 1.86 1.86 4.439 2.93 7.07 2.93 2.63 0 5.21-1.07 7.069-2.93 1.86-1.86 2.931-4.44 2.931-7.07s-1.071-5.2-2.931-7.07zM212 0c-5.522 0-10 4.477-10 10v17c0 5.523 4.478 10 10 10s10-4.477 10-10V10c0-5.523-4.477-10-10-10zM113.938 312.969c0-5.523-4.478-10-10-10s-10 4.477-10 10l.001.531c.034 5.501 4.505 9.938 9.999 9.938h.063c5.522-.035 9.972-4.54 9.938-10.063l-.001-.406zM158.203 391.651c-17.383-10.579-30.952-26.832-38.206-45.765-1.977-5.159-7.76-7.738-12.916-5.76-5.157 1.976-7.736 7.758-5.76 12.916 8.83 23.047 25.339 42.826 46.486 55.694 1.624.988 3.417 1.459 5.188 1.459 3.375 0 6.67-1.709 8.553-4.803 2.871-4.718 1.372-10.87-3.345-13.741zM212 48.052c-23.159 0-42 18.841-42 42s18.841 42 42 42 42-18.841 42-42-18.841-42-42-42zm0 64c-12.131 0-22-9.869-22-22s9.869-22 22-22 22 9.869 22 22-9.869 22-22 22zM338 212h-9c3.954-6.403 6.242-13.938 6.242-22 0-23.159-18.841-42-42-42s-42 18.841-42 42c-.001 8.062 2.287 15.597 6.241 22H208c-5.522 0-10 4.477-10 10s4.478 10 10 10h130c5.522 0 10-4.477 10-10s-4.477-10-10-10zm-44.758 0c-12.131 0-22-9.869-22-22s9.869-22 22-22 22 9.869 22 22-9.87 22-22 22z"/></svg>