<svg xmlns="http://www.w3.org/2000/svg" width="11.959" height="13.667" viewBox="0 0 11.959 13.667">
  <path id="unlock-alt-solid" d="M10.678,6.833H4.058V4.081A1.922,1.922,0,1,1,7.9,4.057V7.889L9.32,7.763c.355,0,.717.481.717.126V4.057a4.058,4.058,0,1,0-8.115.04V6.833H1.281A1.282,1.282,0,0,0,0,8.114v4.271a1.282,1.282,0,0,0,1.281,1.281h9.4a1.282,1.282,0,0,0,1.281-1.281V8.114A1.282,1.282,0,0,0,10.678,6.833ZM7.047,10.89a1.068,1.068,0,1,1-2.136,0V9.609a1.068,1.068,0,0,1,2.136,0Z" transform="translate(0 0.001)" fill="#7e7e7e"/>
</svg>
