<svg id="waves" xmlns="http://www.w3.org/2000/svg" width="287.9" height="39" viewBox="0 0 287.9 39">
  <path id="XMLID_2_" d="M0,21.9c15.9,0,15.9,15.6,31.8,15.6S47.7,21.9,63.6,21.9,79.5,37.5,95.4,37.5s15.9-15.6,31.8-15.6S143.1,37.5,159,37.5s15.9-15.6,31.8-15.6,15.9,15.6,31.8,15.6" fill="none" stroke="#06bfad" stroke-miterlimit="10" stroke-width="3"/>
  <path id="XMLID_1_" d="M65.3,1.5c15.9,0,15.9,15.6,31.8,15.6S113,1.5,128.9,1.5s15.9,15.6,31.8,15.6S176.6,1.5,192.5,1.5s15.9,15.6,31.8,15.6S240.2,1.5,256.1,1.5,272,17.1,287.9,17.1" fill="none" stroke="#000" stroke-miterlimit="10" stroke-width="3"/>
</svg>
