<svg id="OBJECTS" xmlns="http://www.w3.org/2000/svg" viewBox="0 0 411.22 494.5"><defs><style>.cls-1{fill:#3a4d57;opacity: .1;}</style></defs><title>stars</title><path class="cls-1" d="M169.81,355.39l-.63-.78c71.52-58.49,127.47-125,157.55-187.33,14-29,22.06-56,23.93-80.38s-2.49-44.49-12.92-60.29C331,16.36,320.63,7.51,307,.31c-24-12.68-56.34-19.23-96.18-19.48v-1c84.95.54,116.5,29.19,127.75,46.23,10.55,16,14.95,36.48,13.07,60.91s-10,51.63-24,80.75C297.49,230.16,241.44,296.8,169.81,355.39Z" transform="translate(-46.22 27.86)"/><path class="cls-1" d="M209.93,238.59l-.64-.78c47.09-38.51,83.93-82.3,103.73-123.32,18.33-38,21-71.69,7.26-92.48C313,10.93,292.39-7.71,236.83-8.06v-1c56,.35,76.85,19.27,84.27,30.52,13.93,21.09,11.3,55.15-7.19,93.47C294.06,156.07,257.13,200,209.93,238.59Z" transform="translate(-46.22 27.86)"/><path class="cls-1" d="M210.53,219.23l-1.89-2.32c43.13-35.28,76.87-75.39,95-112.93,16.69-34.56,19.14-65.15,6.74-83.92-16-24.19-58.32-27-75.79-27.16l0-3c52,.33,71.34,18,78.28,28.5,13.18,20,10.86,50.83-6.54,86.89C288,143.21,254,183.68,210.53,219.23Z" transform="translate(-46.22 27.86)"/><path class="cls-1" d="M188.34,370.88l-1.29-1.52c71.47-61,127.38-130.47,157.43-195.48,14-30.25,22-58.45,23.88-83.8,1.86-25.18-2.47-46.27-12.84-62.69-6.73-10.63-17-19.82-30.57-27.3C301-13.11,268.77-19.93,229-20.19v-2c40.09.27,72.69,7.17,96.89,20.53,13.85,7.64,24.38,17.06,31.29,28,10.61,16.79,15,38.29,13.15,63.9s-10,54-24.07,84.5C316.12,240,260,309.65,188.34,370.88Z" transform="translate(-46.22 27.86)"/><path class="cls-1" d="M302.72,388.69l-.82-.57C428.23,205.34,455.46,66.92,376.61,8.34c-6-4.47-37-27-55.54-31.78l.24-1c18.74,4.8,49.85,27.45,55.9,32,20.63,15.32,34.3,36.19,40.64,62,6.09,24.81,5.47,54.4-1.84,88C402,221.8,362.81,301.74,302.72,388.69Z" transform="translate(-46.22 27.86)"/><path class="cls-1" d="M224.16,402.75l-.69-.72c67.36-64.86,118.47-135,147.8-202.75C398.76,135.75,404.14,80,386.41,42.42c-6.25-13.23-16.35-25-30-34.9C332.32-9.92,299-20.33,257.3-23.43l.08-1C299.25-21.32,332.76-10.84,357,6.71c13.83,10,24,21.89,30.35,35.29,17.86,37.88,12.49,93.88-15.12,157.68C342.81,267.57,291.62,337.79,224.16,402.75Z" transform="translate(-46.22 27.86)"/><path class="cls-1" d="M222,434l-2.08-2.16c72.48-69.79,127.46-145.21,159-218.1,29.51-68.18,35.3-127.91,16.32-168.18-6.66-14.12-17.44-26.64-32-37.24-25.76-18.68-61.5-29.83-106.23-33.15l.22-3c45.29,3.37,81.55,14.71,107.77,33.73,15,10.89,26.13,23.8,33,38.38,19.36,41.06,13.58,101.66-16.28,170.65C350,288.15,294.73,363.91,222,434Z" transform="translate(-46.22 27.86)"/><path class="cls-1" d="M188.28,307,187,305.4C247.9,255.61,295.53,199,321.12,146c23.68-49,27.11-92.52,9.42-119.31-9.42-14.28-36-38.3-107.68-38.75l0-2c72.65.46,99.69,25,109.33,39.65,9.07,13.73,12.85,31.32,11.24,52.27s-8.51,44.13-20.52,69C297.21,200.11,249.39,257,188.28,307Z" transform="translate(-46.22 27.86)"/><path class="cls-1" d="M231.1,361.85,229,359.69c80.13-77,130.65-155.08,150.15-231.93,9.44-37.2,5-72.42-12.05-96.66C351,8.3,325.78-3.19,307.43-8.8c-23.58-7.22-48.6-9.16-72.8-11l.23-3c24.36,1.89,49.56,3.84,73.45,11.16,18.79,5.75,44.68,17.54,61.26,41,17.6,25,22.16,61.08,12.51,99.13C362.44,205.9,311.64,284.42,231.1,361.85Z" transform="translate(-46.22 27.86)"/><path class="cls-1" d="M230.37,346.74l-.7-.72c77.26-74.27,126-149.53,144.78-223.68,9.15-36.06,4.87-70.25-11.74-93.8C347.07,6.37,322.56-4.78,304.76-10.23c-22.79-7-46.93-8.85-70.27-10.66l.08-1c23.4,1.82,47.59,3.69,70.49,10.7C323-5.69,347.72,5.56,363.53,28c16.78,23.79,21.12,58.28,11.89,94.63C356.56,196.92,307.76,272.33,230.37,346.74Z" transform="translate(-46.22 27.86)"/><polygon class="cls-1" points="156.75 281.27 155.7 286.77 159.63 290.75 154.08 291.45 151.51 296.43 149.13 291.36 143.6 290.45 147.68 286.62 146.84 281.08 151.75 283.78 156.75 281.27"/><polygon class="cls-1" points="144.73 415.58 143.68 421.08 147.61 425.06 142.06 425.76 139.49 430.73 137.1 425.67 131.58 424.76 135.66 420.93 134.82 415.39 139.73 418.09 144.73 415.58"/><polygon class="cls-1" points="226.64 329 225.97 332.52 228.48 335.07 224.93 335.52 223.28 338.7 221.75 335.46 218.22 334.87 220.83 332.42 220.29 328.88 223.43 330.61 226.64 329"/><polygon class="cls-1" points="203.76 321.41 203.09 324.93 205.61 327.48 202.05 327.93 200.4 331.11 198.88 327.87 195.34 327.28 197.95 324.83 197.41 321.29 200.56 323.01 203.76 321.41"/><polygon class="cls-1" points="247.85 274.34 247.18 277.86 249.69 280.41 246.14 280.86 244.49 284.04 242.97 280.8 239.43 280.21 242.04 277.76 241.5 274.22 244.64 275.95 247.85 274.34"/><polygon class="cls-1" points="143.25 437.73 142.57 441.25 145.09 443.8 141.54 444.25 139.89 447.43 138.36 444.19 134.83 443.61 137.44 441.15 136.9 437.61 140.04 439.34 143.25 437.73"/><polygon class="cls-1" points="180.88 318.56 180.21 322.08 182.73 324.63 179.17 325.08 177.52 328.26 176 325.02 172.46 324.44 175.08 321.98 174.54 318.44 177.68 320.17 180.88 318.56"/><polygon class="cls-1" points="328.6 310.8 327.92 314.32 330.44 316.87 326.89 317.32 325.24 320.5 323.71 317.26 320.18 316.68 322.79 314.22 322.25 310.68 325.39 312.41 328.6 310.8"/><polygon class="cls-1" points="272.49 359.03 271.82 362.55 274.34 365.1 270.78 365.55 269.13 368.74 267.61 365.49 264.07 364.91 266.69 362.45 266.15 358.91 269.29 360.64 272.49 359.03"/><polygon class="cls-1" points="233.84 352.07 233.16 355.59 235.68 358.14 232.13 358.59 230.48 361.77 228.95 358.53 225.41 357.94 228.03 355.49 227.49 351.95 230.63 353.68 233.84 352.07"/><polygon class="cls-1" points="254.9 382.24 254.23 385.76 256.75 388.32 253.19 388.76 251.54 391.95 250.02 388.7 246.48 388.12 249.09 385.67 248.56 382.12 251.7 383.85 254.9 382.24"/><polygon class="cls-1" points="337.49 388.24 336.81 391.76 339.33 394.32 335.78 394.76 334.13 397.95 332.6 394.7 329.07 394.12 331.68 391.67 331.14 388.12 334.28 389.85 337.49 388.24"/><polygon class="cls-1" points="272.96 333.22 272.11 337.7 275.31 340.95 270.78 341.52 268.69 345.58 266.74 341.45 262.24 340.7 265.57 337.58 264.88 333.07 268.88 335.27 272.96 333.22"/><polygon class="cls-1" points="189.28 367.54 188.35 372.43 191.85 375.97 186.91 376.59 184.62 381.01 182.5 376.51 177.59 375.7 181.22 372.29 180.48 367.37 184.84 369.77 189.28 367.54"/><polygon class="cls-1" points="298.73 294.68 298.06 298.2 300.58 300.75 297.02 301.2 295.37 304.38 293.85 301.14 290.31 300.55 292.92 298.1 292.39 294.56 295.53 296.28 298.73 294.68"/><polygon class="cls-1" points="264.61 244.3 263.93 247.82 266.45 250.37 262.89 250.82 261.25 254 259.72 250.76 256.18 250.18 258.8 247.72 258.26 244.18 261.4 245.91 264.61 244.3"/><polygon class="cls-1" points="211.85 220.26 211.17 223.78 213.69 226.33 210.14 226.78 208.49 229.96 206.96 226.72 203.43 226.13 206.04 223.68 205.5 220.14 208.64 221.87 211.85 220.26"/><polygon class="cls-1" points="214.78 282.32 214.11 285.85 216.63 288.4 213.07 288.84 211.42 292.03 209.9 288.78 206.36 288.2 208.98 285.75 208.44 282.2 211.58 283.93 214.78 282.32"/><polygon class="cls-1" points="169.01 294.88 168.34 298.4 170.86 300.96 167.3 301.4 165.66 304.59 164.13 301.34 160.59 300.76 163.21 298.31 162.67 294.76 165.81 296.49 169.01 294.88"/><polygon class="cls-1" points="135.31 261.8 134.64 265.32 137.16 267.88 133.6 268.32 131.96 271.51 130.43 268.26 126.89 267.68 129.51 265.23 128.97 261.68 132.11 263.41 135.31 261.8"/><polygon class="cls-1" points="64.38 411.2 63.7 414.72 66.22 417.27 62.66 417.72 61.02 420.9 59.49 417.66 55.95 417.07 58.57 414.62 58.03 411.08 61.17 412.81 64.38 411.2"/><polygon class="cls-1" points="294.67 338.91 294 342.43 296.51 344.98 292.96 345.43 291.31 348.61 289.79 345.37 286.25 344.79 288.86 342.33 288.32 338.79 291.46 340.52 294.67 338.91"/><polygon class="cls-1" points="185.6 185.11 184.92 188.63 187.44 191.18 183.88 191.63 182.24 194.82 180.71 191.57 177.18 190.99 179.79 188.53 179.25 184.99 182.39 186.72 185.6 185.11"/><polygon class="cls-1" points="160.04 218.19 159.37 221.72 161.89 224.27 158.33 224.71 156.68 227.9 155.16 224.65 151.62 224.07 154.23 221.62 153.69 218.07 156.84 219.8 160.04 218.19"/><polygon class="cls-1" points="134.12 180.2 133.44 183.72 135.96 186.27 132.41 186.72 130.76 189.9 129.23 186.66 125.7 186.08 128.31 183.62 127.77 180.08 130.91 181.81 134.12 180.2"/><polygon class="cls-1" points="243.73 129.25 243.06 132.77 245.58 135.32 242.02 135.77 240.38 138.95 238.85 135.71 235.31 135.12 237.93 132.67 237.39 129.13 240.53 130.85 243.73 129.25"/><polygon class="cls-1" points="186.02 235.88 185.34 239.4 187.86 241.95 184.31 242.4 182.66 245.59 181.13 242.34 177.59 241.76 180.21 239.3 179.67 235.76 182.81 237.49 186.02 235.88"/><polygon class="cls-1" points="371.77 138.48 371.1 142 373.62 144.55 370.06 145 368.42 148.18 366.89 144.94 363.35 144.36 365.97 141.9 365.43 138.36 368.57 140.09 371.77 138.48"/><polygon class="cls-1" points="368.63 240.79 367.95 244.31 370.47 246.87 366.92 247.31 365.27 250.5 363.74 247.25 360.21 246.67 362.82 244.22 362.28 240.67 365.42 242.4 368.63 240.79"/><polygon class="cls-1" points="287.64 410.6 286.96 414.12 289.48 416.67 285.93 417.12 284.28 420.31 282.75 417.06 279.21 416.48 281.83 414.02 281.29 410.48 284.43 412.21 287.64 410.6"/><polygon class="cls-1" points="355.45 213.28 354.78 216.8 357.3 219.35 353.74 219.8 352.1 222.99 350.57 219.74 347.03 219.16 349.65 216.71 349.11 213.16 352.25 214.89 355.45 213.28"/><polygon class="cls-1" points="369.84 56.81 369.17 60.33 371.69 62.88 368.13 63.33 366.48 66.51 364.96 63.27 361.42 62.68 364.04 60.23 363.5 56.69 366.64 58.41 369.84 56.81"/><polygon class="cls-1" points="291.73 104.97 291.06 108.49 293.58 111.04 290.02 111.49 288.37 114.67 286.85 111.43 283.31 110.84 285.92 108.39 285.38 104.85 288.53 106.58 291.73 104.97"/><polygon class="cls-1" points="409.38 282.32 408.7 285.85 411.22 288.4 407.67 288.84 406.02 292.03 404.49 288.78 400.96 288.2 403.57 285.75 403.03 282.2 406.17 283.93 409.38 282.32"/><polygon class="cls-1" points="77.34 174.23 76.66 177.75 79.18 180.3 75.62 180.75 73.98 183.94 72.45 180.69 68.91 180.11 71.53 177.66 70.99 174.11 74.13 175.84 77.34 174.23"/><polygon class="cls-1" points="226.09 420.22 225.42 423.74 227.94 426.29 224.38 426.74 222.74 429.92 221.21 426.68 217.67 426.09 220.29 423.64 219.75 420.1 222.89 421.82 226.09 420.22"/><polygon class="cls-1" points="222.3 484.01 221.62 487.53 224.14 490.08 220.59 490.53 218.94 493.72 217.41 490.47 213.88 489.89 216.49 487.44 215.95 483.89 219.09 485.62 222.3 484.01"/><polygon class="cls-1" points="181.31 404.44 180.63 407.96 183.15 410.51 179.59 410.96 177.95 414.14 176.42 410.89 172.88 410.31 175.5 407.86 174.96 404.31 178.1 406.04 181.31 404.44"/><polygon class="cls-1" points="200.09 446.46 199.42 449.99 201.94 452.54 198.38 452.99 196.73 456.17 195.21 452.92 191.67 452.34 194.29 449.89 193.75 446.34 196.89 448.07 200.09 446.46"/><polygon class="cls-1" points="170.39 352.07 169.72 355.59 172.23 358.14 168.68 358.59 167.03 361.77 165.5 358.53 161.97 357.94 164.58 355.49 164.04 351.95 167.18 353.68 170.39 352.07"/><polygon class="cls-1" points="115.49 341.96 114.81 345.48 117.33 348.03 113.77 348.48 112.13 351.66 110.6 348.42 107.06 347.84 109.68 345.38 109.14 341.84 112.28 343.57 115.49 341.96"/><polygon class="cls-1" points="107.4 233.03 106.73 236.56 109.25 239.11 105.69 239.55 104.04 242.74 102.52 239.49 98.98 238.91 101.59 236.46 101.06 232.91 104.2 234.64 107.4 233.03"/><polygon class="cls-1" points="386.61 338.91 385.94 342.43 388.46 344.98 384.9 345.43 383.26 348.61 381.73 345.37 378.19 344.79 380.81 342.33 380.27 338.79 383.41 340.52 386.61 338.91"/><polygon class="cls-1" points="38.74 264.65 38.07 268.17 40.59 270.72 37.03 271.17 35.39 274.36 33.86 271.11 30.32 270.53 32.94 268.07 32.4 264.53 35.54 266.26 38.74 264.65"/><polygon class="cls-1" points="75.16 310.8 74.49 314.32 77.01 316.87 73.45 317.32 71.8 320.5 70.28 317.26 66.74 316.68 69.36 314.22 68.82 310.68 71.96 312.41 75.16 310.8"/><polygon class="cls-1" points="306.75 357.3 306.07 360.82 308.59 363.37 305.04 363.82 303.39 367 301.86 363.76 298.33 363.17 300.94 360.72 300.4 357.18 303.54 358.9 306.75 357.3"/><polygon class="cls-1" points="356.44 289.76 355.77 293.29 358.29 295.84 354.73 296.28 353.08 299.47 351.56 296.22 348.02 295.64 350.63 293.19 350.1 289.64 353.24 291.37 356.44 289.76"/><polygon class="cls-1" points="381.68 390.88 381.01 394.4 383.53 396.95 379.97 397.4 378.32 400.58 376.8 397.34 373.26 396.76 375.87 394.3 375.34 390.76 378.48 392.49 381.68 390.88"/><polygon class="cls-1" points="156.73 471.34 156.06 474.86 158.57 477.41 155.02 477.86 153.37 481.04 151.84 477.8 148.31 477.22 150.92 474.76 150.38 471.22 153.52 472.95 156.73 471.34"/><polygon class="cls-1" points="9.24 445.34 8.57 448.86 11.09 451.41 7.53 451.86 5.88 455.04 4.36 451.8 0.82 451.21 3.43 448.76 2.89 445.22 6.04 446.95 9.24 445.34"/><polygon class="cls-1" points="267.8 453.84 267.13 457.36 269.64 459.91 266.09 460.36 264.44 463.54 262.92 460.3 259.38 459.72 261.99 457.26 261.45 453.72 264.6 455.45 267.8 453.84"/><polygon class="cls-1" points="21.13 382.24 20.46 385.76 22.98 388.32 19.42 388.76 17.77 391.95 16.25 388.7 12.71 388.12 15.32 385.67 14.79 382.12 17.93 383.85 21.13 382.24"/><polygon class="cls-1" points="219.92 246.91 219.24 250.44 221.76 252.99 218.21 253.43 216.56 256.62 215.03 253.37 211.5 252.79 214.11 250.34 213.57 246.79 216.71 248.52 219.92 246.91"/><polygon class="cls-1" points="323.69 249.54 323.02 253.06 325.54 255.61 321.98 256.06 320.33 259.24 318.81 256 315.27 255.42 317.88 252.96 317.34 249.42 320.49 251.15 323.69 249.54"/><polygon class="cls-1" points="294.67 271.49 294 275.01 296.51 277.56 292.96 278.01 291.31 281.19 289.79 277.95 286.25 277.37 288.86 274.91 288.32 271.37 291.46 273.1 294.67 271.49"/><polygon class="cls-1" points="272.93 162.08 272.26 165.6 274.78 168.15 271.22 168.6 269.57 171.78 268.05 168.53 264.51 167.95 267.13 165.5 266.59 161.96 269.73 163.68 272.93 162.08"/><polygon class="cls-1" points="241.21 216.15 240.53 219.68 243.05 222.23 239.5 222.67 237.85 225.86 236.32 222.61 232.79 222.03 235.4 219.58 234.86 216.03 238 217.76 241.21 216.15"/><polygon class="cls-1" points="326.84 285.9 326.17 289.42 328.69 291.98 325.13 292.42 323.48 295.61 321.96 292.36 318.42 291.78 321.04 289.33 320.5 285.78 323.64 287.51 326.84 285.9"/><polygon class="cls-1" points="328.6 357.3 327.92 360.82 330.44 363.37 326.89 363.82 325.24 367 323.71 363.76 320.18 363.17 322.79 360.72 322.25 357.18 325.39 358.9 328.6 357.3"/><polygon class="cls-1" points="74 383.14 73.33 386.66 75.85 389.21 72.29 389.66 70.64 392.85 69.12 389.6 65.58 389.02 68.2 386.56 67.66 383.02 70.8 384.75 74 383.14"/><polygon class="cls-1" points="162.5 392.21 161.83 395.73 164.35 398.28 160.79 398.73 159.15 401.92 157.62 398.67 154.08 398.09 156.7 395.63 156.16 392.09 159.3 393.82 162.5 392.21"/><polygon class="cls-1" points="208.9 350.32 208.23 353.84 210.75 356.39 207.19 356.84 205.54 360.03 204.02 356.78 200.48 356.2 203.09 353.75 202.56 350.2 205.7 351.93 208.9 350.32"/><polygon class="cls-1" points="130.52 347.75 129.85 351.27 132.37 353.82 128.81 354.27 127.16 357.45 125.64 354.21 122.1 353.62 124.72 351.17 124.18 347.63 127.32 349.36 130.52 347.75"/><polygon class="cls-1" points="196.96 304.36 196.56 306.4 198.03 307.88 195.96 308.14 195.01 309.99 194.12 308.11 192.07 307.77 193.59 306.35 193.28 304.29 195.1 305.29 196.96 304.36"/><polygon class="cls-1" points="254.26 113.62 253.87 115.66 255.33 117.14 253.27 117.4 252.31 119.25 251.43 117.37 249.38 117.03 250.89 115.61 250.58 113.55 252.4 114.55 254.26 113.62"/><polygon class="cls-1" points="268.36 61.19 267.97 63.23 269.43 64.71 267.37 64.97 266.41 66.82 265.53 64.94 263.48 64.6 264.99 63.18 264.68 61.12 266.5 62.13 268.36 61.19"/><polygon class="cls-1" points="211.96 183.34 211.57 185.38 213.03 186.85 210.97 187.12 210.01 188.96 209.13 187.08 207.08 186.74 208.59 185.32 208.28 183.26 210.1 184.27 211.96 183.34"/><polygon class="cls-1" points="128.33 288.82 127.94 290.87 129.4 292.34 127.34 292.6 126.38 294.45 125.5 292.57 123.45 292.23 124.96 290.81 124.65 288.75 126.47 289.76 128.33 288.82"/><polygon class="cls-1" points="75.95 233.32 75.56 235.36 77.02 236.84 74.96 237.1 74.01 238.95 73.12 237.07 71.07 236.73 72.59 235.31 72.28 233.25 74.1 234.25 75.95 233.32"/><polygon class="cls-1" points="16.77 318.25 16.38 320.29 17.84 321.77 15.78 322.03 14.83 323.87 13.94 321.99 11.89 321.65 13.41 320.23 13.1 318.18 14.92 319.18 16.77 318.25"/><polygon class="cls-1" points="288.08 389.31 287.69 391.35 289.15 392.83 287.09 393.09 286.13 394.94 285.25 393.06 283.2 392.72 284.72 391.3 284.4 389.24 286.22 390.24 288.08 389.31"/><polygon class="cls-1" points="74 465.98 73.61 468.02 75.07 469.5 73.01 469.76 72.05 471.61 71.17 469.73 69.12 469.39 70.63 467.97 70.32 465.91 72.14 466.91 74 465.98"/><polygon class="cls-1" points="256.5 438.27 256.11 440.31 257.57 441.79 255.5 442.05 254.55 443.89 253.66 442.01 251.61 441.68 253.13 440.25 252.82 438.2 254.64 439.2 256.5 438.27"/><polygon class="cls-1" points="336.79 430.95 336.4 433 337.86 434.47 335.8 434.73 334.85 436.58 333.96 434.7 331.91 434.36 333.43 432.94 333.11 430.88 334.93 431.89 336.79 430.95"/><polygon class="cls-1" points="130.03 488.87 129.64 490.92 131.1 492.39 129.04 492.65 128.08 494.5 127.2 492.62 125.15 492.28 126.66 490.86 126.35 488.8 128.17 489.81 130.03 488.87"/><polygon class="cls-1" points="253.06 469.67 252.67 471.71 254.13 473.19 252.07 473.45 251.11 475.3 250.23 473.42 248.18 473.08 249.69 471.66 249.38 469.6 251.2 470.61 253.06 469.67"/><polygon class="cls-1" points="69.35 344.99 68.96 347.03 70.42 348.51 68.35 348.77 67.4 350.62 66.52 348.74 64.47 348.4 65.98 346.98 65.67 344.92 67.49 345.92 69.35 344.99"/><polygon class="cls-1" points="217.27 442.55 216.88 444.59 218.34 446.07 216.28 446.33 215.32 448.18 214.44 446.3 212.39 445.96 213.9 444.54 213.59 442.48 215.41 443.49 217.27 442.55"/><polygon class="cls-1" points="42.5 415.4 42.11 417.44 43.57 418.92 41.51 419.18 40.55 421.03 39.67 419.15 37.62 418.81 39.13 417.39 38.82 415.33 40.64 416.34 42.5 415.4"/><polygon class="cls-1" points="119.99 450.2 119.6 452.24 121.06 453.72 119 453.98 118.04 455.82 117.16 453.94 115.11 453.61 116.63 452.19 116.31 450.13 118.13 451.13 119.99 450.2"/><polygon class="cls-1" points="103.04 285.72 102.65 287.76 104.11 289.24 102.05 289.5 101.1 291.34 100.21 289.46 98.16 289.13 99.68 287.7 99.36 285.65 101.19 286.65 103.04 285.72"/><polygon class="cls-1" points="145.51 246.86 145.12 248.91 146.58 250.38 144.51 250.64 143.56 252.49 142.68 250.61 140.63 250.27 142.14 248.85 141.83 246.79 143.65 247.79 145.51 246.86"/><polygon class="cls-1" points="323.73 466.1 323.34 468.14 324.8 469.62 322.74 469.88 321.79 471.72 320.9 469.84 318.85 469.5 320.37 468.08 320.05 466.03 321.87 467.03 323.73 466.1"/><polygon class="cls-1" points="308.61 428.11 308.22 430.15 309.68 431.63 307.62 431.89 306.67 433.73 305.78 431.85 303.73 431.51 305.25 430.09 304.94 428.04 306.75 429.04 308.61 428.11"/><polygon class="cls-1" points="356.23 449.99 355.84 452.03 357.3 453.51 355.24 453.77 354.28 455.62 353.4 453.74 351.35 453.4 352.86 451.98 352.55 449.92 354.37 450.92 356.23 449.99"/><polygon class="cls-1" points="187.99 273.5 187.6 275.55 189.06 277.02 186.99 277.28 186.04 279.13 185.16 277.25 183.1 276.91 184.62 275.49 184.31 273.44 186.13 274.44 187.99 273.5"/><polygon class="cls-1" points="179.5 340.92 179.11 342.97 180.57 344.44 178.51 344.7 177.55 346.55 176.67 344.67 174.62 344.33 176.13 342.91 175.82 340.85 177.64 341.86 179.5 340.92"/><polygon class="cls-1" points="98.62 353.62 98.23 355.66 99.69 357.14 97.63 357.39 96.67 359.24 95.79 357.36 93.74 357.02 95.25 355.6 94.94 353.55 96.76 354.55 98.62 353.62"/><polygon class="cls-1" points="54.95 387.32 54.56 389.36 56.02 390.84 53.96 391.1 53 392.94 52.12 391.06 50.07 390.73 51.58 389.3 51.27 387.25 53.09 388.25 54.95 387.32"/><polygon class="cls-1" points="158.32 423.75 157.93 425.79 159.39 427.27 157.33 427.53 156.38 429.37 155.49 427.49 153.44 427.15 154.96 425.73 154.64 423.68 156.46 424.68 158.32 423.75"/><polygon class="cls-1" points="90.7 395.74 90.31 397.78 91.77 399.26 89.71 399.52 88.75 401.37 87.87 399.49 85.82 399.15 87.33 397.73 87.02 395.67 88.84 396.67 90.7 395.74"/><polygon class="cls-1" points="208.31 340.92 207.92 342.97 209.38 344.44 207.32 344.7 206.36 346.55 205.48 344.67 203.43 344.33 204.94 342.91 204.63 340.85 206.45 341.86 208.31 340.92"/><polygon class="cls-1" points="131.18 323.42 130.79 325.46 132.25 326.94 130.19 327.2 129.23 329.05 128.35 327.17 126.3 326.83 127.81 325.41 127.5 323.35 129.32 324.35 131.18 323.42"/><polygon class="cls-1" points="143.92 355.52 143.53 357.56 144.99 359.04 142.93 359.3 141.98 361.15 141.09 359.27 139.04 358.93 140.56 357.51 140.25 355.45 142.07 356.45 143.92 355.52"/><polygon class="cls-1" points="128.8 414.25 128.41 416.29 129.87 417.77 127.81 418.03 126.85 419.88 125.97 418 123.92 417.66 125.43 416.24 125.12 414.18 126.94 415.19 128.8 414.25"/><polygon class="cls-1" points="147.83 376.5 147.44 378.54 148.9 380.02 146.84 380.28 145.88 382.12 145 380.24 142.95 379.9 144.47 378.48 144.15 376.43 145.97 377.43 147.83 376.5"/><polygon class="cls-1" points="37.36 449.99 36.97 452.03 38.43 453.51 36.37 453.77 35.42 455.62 34.53 453.74 32.48 453.4 34 451.98 33.69 449.92 35.51 450.92 37.36 449.99"/><polygon class="cls-1" points="86.47 433.82 86.08 435.86 87.54 437.34 85.48 437.6 84.53 439.44 83.64 437.56 81.59 437.22 83.11 435.8 82.8 433.75 84.62 434.75 86.47 433.82"/><polygon class="cls-1" points="45.48 478.27 45.09 480.31 46.55 481.79 44.49 482.05 43.53 483.89 42.65 482.01 40.6 481.67 42.11 480.25 41.8 478.2 43.62 479.2 45.48 478.27"/><polygon class="cls-1" points="70.64 448.48 70.25 450.52 71.7 452 69.64 452.26 68.69 454.1 67.8 452.22 65.75 451.88 67.27 450.46 66.96 448.41 68.78 449.41 70.64 448.48"/><polygon class="cls-1" points="247.84 343.77 247.45 345.81 248.91 347.29 246.85 347.55 245.9 349.4 245.01 347.52 242.96 347.18 244.48 345.76 244.16 343.7 245.98 344.7 247.84 343.77"/><polygon class="cls-1" points="282.83 356.46 282.44 358.5 283.9 359.98 281.84 360.24 280.88 362.09 280 360.21 277.95 359.87 279.46 358.45 279.15 356.39 280.97 357.39 282.83 356.46"/><polygon class="cls-1" points="222.28 373.65 221.89 375.69 223.35 377.17 221.29 377.43 220.33 379.27 219.45 377.39 217.4 377.06 218.91 375.63 218.6 373.58 220.42 374.58 222.28 373.65"/><polygon class="cls-1" points="57.77 296.9 57.38 298.94 58.84 300.42 56.78 300.68 55.82 302.52 54.94 300.64 52.89 300.3 54.4 298.88 54.09 296.83 55.91 297.83 57.77 296.9"/><polygon class="cls-1" points="202.57 418.08 202.19 420.12 203.65 421.6 201.58 421.86 200.63 423.7 199.74 421.82 197.69 421.49 199.21 420.06 198.9 418.01 200.72 419.01 202.57 418.08"/><polygon class="cls-1" points="225.26 263.82 224.87 265.86 226.33 267.34 224.26 267.6 223.31 269.44 222.43 267.56 220.38 267.22 221.89 265.8 221.58 263.75 223.4 264.75 225.26 263.82"/><polygon class="cls-1" points="139.07 237.9 138.68 239.94 140.14 241.41 138.07 241.68 137.12 243.52 136.24 241.64 134.19 241.3 135.7 239.88 135.39 237.82 137.21 238.83 139.07 237.9"/><polygon class="cls-1" points="45.48 362.07 45.09 364.11 46.55 365.59 44.49 365.85 43.53 367.69 42.65 365.81 40.6 365.48 42.11 364.05 41.8 362 43.62 363 45.48 362.07"/><polygon class="cls-1" points="341.81 241.4 341.42 243.44 342.88 244.92 340.81 245.18 339.86 247.03 338.98 245.15 336.93 244.81 338.44 243.39 338.13 241.33 339.95 242.33 341.81 241.4"/><polygon class="cls-1" points="369.87 210.38 369.48 212.42 370.94 213.9 368.87 214.16 367.92 216.01 367.04 214.13 364.99 213.79 366.5 212.37 366.19 210.31 368.01 211.31 369.87 210.38"/><polygon class="cls-1" points="355.83 267.81 355.44 269.85 356.9 271.33 354.84 271.59 353.89 273.44 353 271.55 350.95 271.22 352.47 269.79 352.16 267.74 353.98 268.74 355.83 267.81"/><polygon class="cls-1" points="348.94 184.28 348.55 186.32 350.01 187.8 347.95 188.06 346.99 189.9 346.11 188.02 344.06 187.69 345.57 186.26 345.26 184.21 347.08 185.21 348.94 184.28"/><polygon class="cls-1" points="381.39 166.94 381 168.98 382.46 170.46 380.39 170.72 379.44 172.56 378.56 170.68 376.5 170.34 378.02 168.92 377.71 166.87 379.53 167.87 381.39 166.94"/><polygon class="cls-1" points="207.51 194.8 207.12 196.84 208.58 198.32 206.52 198.58 205.56 200.42 204.68 198.54 202.63 198.2 204.15 196.78 203.83 194.73 205.66 195.73 207.51 194.8"/><polygon class="cls-1" points="184.22 217.36 183.82 219.4 185.28 220.88 183.22 221.14 182.27 222.99 181.38 221.1 179.33 220.77 180.85 219.34 180.54 217.29 182.36 218.29 184.22 217.36"/><polygon class="cls-1" points="83.5 270.66 83.11 272.7 84.57 274.18 82.51 274.44 81.55 276.28 80.67 274.4 78.62 274.06 80.13 272.64 79.82 270.59 81.64 271.59 83.5 270.66"/><polygon class="cls-1" points="301.3 210.38 300.91 212.42 302.37 213.9 300.31 214.16 299.36 216.01 298.47 214.13 296.42 213.79 297.94 212.37 297.62 210.31 299.44 211.31 301.3 210.38"/><polygon class="cls-1" points="271.55 378.35 271.16 380.39 272.62 381.87 270.56 382.13 269.6 383.97 268.72 382.09 266.67 381.75 268.19 380.33 267.87 378.28 269.69 379.28 271.55 378.35"/><polygon class="cls-1" points="319.33 326.1 318.94 328.14 320.4 329.62 318.34 329.88 317.38 331.73 316.5 329.84 314.45 329.51 315.97 328.08 315.65 326.03 317.48 327.03 319.33 326.1"/><polygon class="cls-1" points="316.36 235.05 315.97 237.09 317.43 238.57 315.37 238.83 314.41 240.67 313.52 238.79 311.48 238.45 312.99 237.03 312.68 234.98 314.5 235.98 316.36 235.05"/><polygon class="cls-1" points="284.1 243.15 283.71 245.19 285.17 246.66 283.11 246.93 282.15 248.77 281.27 246.89 279.21 246.55 280.73 245.13 280.42 243.07 282.24 244.08 284.1 243.15"/><polygon class="cls-1" points="370.22 304.36 369.83 306.4 371.29 307.88 369.23 308.14 368.27 309.99 367.39 308.11 365.34 307.77 366.86 306.35 366.54 304.29 368.36 305.29 370.22 304.36"/><polygon class="cls-1" points="276.88 221.01 276.49 223.06 277.95 224.53 275.88 224.79 274.93 226.64 274.05 224.76 272 224.42 273.51 223 273.2 220.94 275.02 221.95 276.88 221.01"/><polygon class="cls-1" points="291.86 187.13 291.46 189.17 292.93 190.65 290.86 190.91 289.91 192.75 289.02 190.87 286.97 190.53 288.49 189.11 288.18 187.06 290 188.06 291.86 187.13"/><polygon class="cls-1" points="317.64 174.47 317.25 176.51 318.71 177.99 316.65 178.25 315.7 180.09 314.81 178.21 312.76 177.87 314.28 176.45 313.96 174.4 315.79 175.4 317.64 174.47"/><polygon class="cls-1" points="358.81 129.2 358.42 131.24 359.88 132.72 357.82 132.98 356.86 134.82 355.98 132.94 353.93 132.6 355.44 131.18 355.13 129.13 356.95 130.13 358.81 129.2"/><polygon class="cls-1" points="334.45 141.27 334.17 142.74 335.22 143.81 333.74 143.99 333.05 145.32 332.42 143.97 330.94 143.72 332.03 142.7 331.81 141.22 333.12 141.94 334.45 141.27"/><polygon class="cls-1" points="348.94 114.74 348.55 116.78 350.01 118.26 347.95 118.52 346.99 120.37 346.11 118.49 344.06 118.15 345.57 116.73 345.26 114.67 347.08 115.67 348.94 114.74"/><polygon class="cls-1" points="385 117.59 384.61 119.63 386.07 121.11 384 121.37 383.05 123.22 382.17 121.33 380.12 121 381.63 119.58 381.32 117.52 383.14 118.52 385 117.59"/><polygon class="cls-1" points="401.33 233.63 400.94 235.67 402.4 237.15 400.34 237.41 399.39 239.26 398.5 237.38 396.45 237.04 397.97 235.62 397.65 233.56 399.48 234.56 401.33 233.63"/><polygon class="cls-1" points="404.31 161.2 403.92 163.25 405.38 164.72 403.32 164.98 402.36 166.83 401.48 164.95 399.43 164.61 400.94 163.19 400.63 161.13 402.45 162.14 404.31 161.2"/><polygon class="cls-1" points="247.84 166.94 247.45 168.98 248.91 170.46 246.85 170.72 245.9 172.56 245.01 170.68 242.96 170.34 244.48 168.92 244.16 166.87 245.98 167.87 247.84 166.94"/><polygon class="cls-1" points="313.6 138.46 313.03 141.45 315.17 143.62 312.15 144 310.75 146.71 309.45 143.95 306.45 143.46 308.67 141.37 308.21 138.36 310.88 139.83 313.6 138.46"/><polygon class="cls-1" points="273.9 113.39 273.51 115.43 274.97 116.91 272.91 117.17 271.95 119.01 271.07 117.13 269.02 116.79 270.54 115.37 270.22 113.31 272.04 114.32 273.9 113.39"/><polygon class="cls-1" points="291.86 83.87 291.46 85.91 292.93 87.39 290.86 87.65 289.91 89.5 289.02 87.61 286.97 87.28 288.49 85.86 288.18 83.8 290 84.8 291.86 83.87"/><polygon class="cls-1" points="279.85 29.81 279.46 31.86 280.92 33.33 278.86 33.59 277.9 35.44 277.02 33.56 274.97 33.22 276.49 31.8 276.17 29.74 277.99 30.75 279.85 29.81"/><polygon class="cls-1" points="247.49 44.74 247.09 46.78 248.56 48.26 246.49 48.52 245.54 50.37 244.65 48.49 242.6 48.15 244.12 46.73 243.81 44.67 245.63 45.67 247.49 44.74"/><polygon class="cls-1" points="185.75 111.89 185.36 113.94 186.82 115.42 184.75 115.67 183.8 117.52 182.91 115.64 180.86 115.3 182.38 113.88 182.07 111.83 183.89 112.83 185.75 111.89"/><polygon class="cls-1" points="316.36 95.48 315.97 97.52 317.43 99 315.37 99.26 314.41 101.11 313.52 99.22 311.48 98.89 312.99 97.47 312.68 95.41 314.5 96.41 316.36 95.48"/><polygon class="cls-1" points="307.26 61.67 306.87 63.71 308.33 65.19 306.26 65.45 305.31 67.29 304.43 65.41 302.38 65.08 303.89 63.65 303.58 61.6 305.4 62.6 307.26 61.67"/><polygon class="cls-1" points="347.03 52.14 346.64 54.18 348.1 55.66 346.04 55.92 345.08 57.77 344.2 55.89 342.15 55.55 343.66 54.13 343.35 52.07 345.17 53.07 347.03 52.14"/><polygon class="cls-1" points="352.9 335.27 352.51 337.31 353.97 338.79 351.91 339.05 350.95 340.89 350.07 339.01 348.02 338.67 349.54 337.25 349.22 335.2 351.04 336.2 352.9 335.27"/><polygon class="cls-1" points="398.67 372.44 398.28 374.49 399.74 375.96 397.68 376.23 396.72 378.07 395.84 376.19 393.79 375.85 395.3 374.43 394.99 372.38 396.81 373.38 398.67 372.44"/><polygon class="cls-1" points="403.53 420.9 403.14 422.94 404.6 424.42 402.54 424.68 401.59 426.52 400.7 424.64 398.65 424.31 400.17 422.88 399.86 420.83 401.68 421.83 403.53 420.9"/><polygon class="cls-1" points="279.85 291.67 279.46 293.71 280.92 295.19 278.86 295.45 277.9 297.3 277.02 295.42 274.97 295.08 276.49 293.66 276.17 291.6 277.99 292.6 279.85 291.67"/><polygon class="cls-1" points="305.64 309.18 305.25 311.23 306.71 312.7 304.64 312.96 303.69 314.81 302.81 312.93 300.76 312.59 302.27 311.17 301.96 309.11 303.78 310.12 305.64 309.18"/><polygon class="cls-1" points="328.44 271.44 328.05 273.48 329.5 274.96 327.44 275.22 326.49 277.06 325.6 275.18 323.55 274.85 325.07 273.42 324.76 271.37 326.58 272.37 328.44 271.44"/><polygon class="cls-1" points="284.1 320.57 283.71 322.62 285.17 324.09 283.11 324.35 282.15 326.2 281.27 324.32 279.21 323.98 280.73 322.56 280.42 320.5 282.24 321.51 284.1 320.57"/><polygon class="cls-1" points="214.56 411.97 214.17 414.01 215.63 415.49 213.57 415.75 212.62 417.59 211.73 415.71 209.68 415.37 211.2 413.95 210.88 411.9 212.71 412.9 214.56 411.97"/><polygon class="cls-1" points="257.96 398.8 257.57 400.84 259.03 402.32 256.97 402.58 256.02 404.42 255.13 402.54 253.08 402.2 254.6 400.78 254.28 398.73 256.11 399.73 257.96 398.8"/><polygon class="cls-1" points="209.52 476.48 209.13 478.52 210.59 480 208.53 480.26 207.57 482.11 206.69 480.23 204.63 479.89 206.15 478.47 205.84 476.41 207.66 477.41 209.52 476.48"/><polygon class="cls-1" points="193.98 404.34 193.59 406.38 195.05 407.86 192.99 408.12 192.03 409.96 191.15 408.08 189.1 407.74 190.61 406.32 190.3 404.27 192.12 405.27 193.98 404.34"/><polygon class="cls-1" points="242.35 374.26 241.96 376.3 243.42 377.78 241.36 378.04 240.41 379.88 239.52 378 237.47 377.67 238.99 376.25 238.67 374.19 240.49 375.19 242.35 374.26"/><polygon class="cls-1" points="164.1 371.41 163.71 373.45 165.17 374.93 163.11 375.19 162.15 377.04 161.27 375.16 159.22 374.82 160.73 373.4 160.42 371.34 162.24 372.34 164.1 371.41"/><polygon class="cls-1" points="125.89 433.01 125.5 435.05 126.96 436.53 124.9 436.79 123.94 438.63 123.06 436.75 121.01 436.42 122.52 434.99 122.21 432.94 124.03 433.94 125.89 433.01"/><polygon class="cls-1" points="4.88 412.56 4.49 414.6 5.95 416.08 3.89 416.34 2.94 418.18 2.05 416.3 0 415.96 1.52 414.54 1.2 412.49 3.02 413.49 4.88 412.56"/><polygon class="cls-1" points="93.42 411.97 93.03 414.01 94.49 415.49 92.43 415.75 91.48 417.59 90.59 415.71 88.54 415.37 90.06 413.95 89.75 411.9 91.57 412.9 93.42 411.97"/><polygon class="cls-1" points="211.85 384.14 211.17 387.66 213.69 390.21 210.14 390.66 208.49 393.84 206.96 390.6 203.43 390.01 206.04 387.56 205.5 384.02 208.64 385.75 211.85 384.14"/><polygon class="cls-1" points="110.85 394.66 110.17 398.18 112.69 400.73 109.14 401.18 107.49 404.36 105.96 401.12 102.43 400.54 105.04 398.08 104.5 394.54 107.64 396.27 110.85 394.66"/><polygon class="cls-1" points="98.21 332.27 97.16 337.77 101.09 341.75 95.54 342.45 92.97 347.43 90.58 342.36 85.06 341.45 89.14 337.62 88.3 332.08 93.21 334.78 98.21 332.27"/><polygon class="cls-1" points="168.5 238.1 167.45 243.6 171.38 247.59 165.83 248.28 163.25 253.26 160.87 248.19 155.35 247.28 159.43 243.45 158.59 237.91 163.5 240.61 168.5 238.1"/><polygon class="cls-1" points="145.09 391.28 144.04 396.77 147.97 400.76 142.42 401.46 139.85 406.43 137.47 401.36 131.94 400.45 136.03 396.62 135.19 391.09 140.09 393.79 145.09 391.28"/><polygon class="cls-1" points="73.86 357.22 72.81 362.72 76.75 366.7 71.19 367.4 68.62 372.38 66.24 367.31 60.71 366.4 64.8 362.57 63.95 357.03 68.86 359.73 73.86 357.22"/><polygon class="cls-1" points="107.56 464.24 106.51 469.74 110.44 473.72 104.89 474.42 102.32 479.39 99.94 474.33 94.41 473.42 98.49 469.59 97.65 464.05 102.56 466.75 107.56 464.24"/><polygon class="cls-1" points="296.51 456.06 295.46 461.56 299.4 465.54 293.84 466.24 291.27 471.21 288.89 466.15 283.37 465.24 287.45 461.41 286.61 455.87 291.51 458.57 296.51 456.06"/><polygon class="cls-1" points="308.59 374.99 307.54 380.49 311.48 384.47 305.92 385.17 303.35 390.14 300.97 385.08 295.44 384.17 299.53 380.34 298.69 374.8 303.59 377.5 308.59 374.99"/><polygon class="cls-1" points="203.16 251.76 202.11 257.26 206.04 261.24 200.49 261.94 197.91 266.91 195.53 261.85 190.01 260.94 194.09 257.11 193.25 251.57 198.16 254.27 203.16 251.76"/><polygon class="cls-1" points="170.93 255.92 169.39 264 175.17 269.85 167.01 270.88 163.23 278.18 159.73 270.74 151.62 269.4 157.61 263.78 156.38 255.65 163.58 259.61 170.93 255.92"/><polygon class="cls-1" points="116.32 412.6 115.27 418.1 119.2 422.08 113.65 422.78 111.08 427.75 108.69 422.69 103.17 421.78 107.25 417.95 106.41 412.41 111.32 415.11 116.32 412.6"/><polygon class="cls-1" points="144.73 294.74 143.68 300.24 147.61 304.23 142.06 304.93 139.49 309.9 137.1 304.83 131.58 303.92 135.66 300.09 134.82 294.56 139.73 297.25 144.73 294.74"/><polygon class="cls-1" points="98.29 373.64 97.24 379.14 101.17 383.12 95.62 383.82 93.05 388.79 90.67 383.73 85.14 382.82 89.23 378.99 88.39 373.45 93.29 376.15 98.29 373.64"/><polygon class="cls-1" points="261.32 202.51 260.27 208.01 264.2 211.99 258.65 212.69 256.07 217.66 253.69 212.6 248.17 211.69 252.25 207.86 251.41 202.32 256.31 205.02 261.32 202.51"/><polygon class="cls-1" points="265.29 296.81 264.23 302.31 268.17 306.29 262.61 306.99 260.04 311.96 257.66 306.89 252.14 305.99 256.22 302.15 255.38 296.62 260.28 299.32 265.29 296.81"/><polygon class="cls-1" points="251.07 246.52 250.02 252.02 253.95 256 248.4 256.7 245.82 261.68 243.44 256.61 237.92 255.7 242 251.87 241.16 246.33 246.07 249.03 251.07 246.52"/><polygon class="cls-1" points="237.65 190.09 236.6 195.59 240.53 199.57 234.98 200.27 232.4 205.25 230.02 200.18 224.5 199.27 228.58 195.44 227.74 189.9 232.65 192.6 237.65 190.09"/><polygon class="cls-1" points="160.09 314.81 157.54 328.18 167.1 337.86 153.6 339.56 147.34 351.65 141.55 339.33 128.13 337.12 138.05 327.8 136 314.35 147.93 320.91 160.09 314.81"/><polygon class="cls-1" points="241.38 294.71 239.94 302.25 245.33 307.71 237.72 308.67 234.19 315.49 230.93 308.54 223.35 307.29 228.95 302.04 227.79 294.45 234.52 298.15 241.38 294.71"/><polygon class="cls-1" points="318.37 207.13 317.57 211.33 320.58 214.37 316.33 214.91 314.37 218.7 312.55 214.83 308.32 214.14 311.44 211.21 310.8 206.98 314.55 209.04 318.37 207.13"/><polygon class="cls-1" points="190.19 380.71 188.75 388.25 194.14 393.71 186.53 394.67 183 401.49 179.73 394.54 172.16 393.29 177.76 388.04 176.6 380.45 183.33 384.15 190.19 380.71"/><polygon class="cls-1" points="235.52 394.17 234.08 401.7 239.48 407.17 231.86 408.13 228.33 414.94 225.07 408 217.49 406.75 223.09 401.5 221.94 393.91 228.66 397.61 235.52 394.17"/><polygon class="cls-1" points="185.96 445.08 183.52 457.86 192.66 467.12 179.75 468.75 173.77 480.3 168.24 468.53 155.4 466.41 164.89 457.51 162.93 444.65 174.33 450.92 185.96 445.08"/><polygon class="cls-1" points="260.12 410.22 258.68 417.76 264.07 423.22 256.46 424.18 252.93 431 249.66 424.05 242.09 422.8 247.69 417.55 246.53 409.96 253.26 413.66 260.12 410.22"/><polygon class="cls-1" points="113.79 303.19 112.35 310.73 117.75 316.19 110.13 317.15 106.6 323.97 103.34 317.02 95.76 315.77 101.36 310.52 100.21 302.93 106.93 306.63 113.79 303.19"/><polygon class="cls-1" points="183.22 417.99 181.34 427.84 188.38 434.97 178.44 436.22 173.83 445.13 169.57 436.05 159.68 434.42 166.99 427.56 165.48 417.65 174.26 422.49 183.22 417.99"/><polygon class="cls-1" points="135.14 364.28 132.59 377.65 142.15 387.33 128.65 389.03 122.39 401.12 116.6 388.81 103.17 386.59 113.1 377.28 111.05 363.82 122.98 370.38 135.14 364.28"/></svg>