<svg id="Layer_1" data-name="Layer 1" xmlns="http://www.w3.org/2000/svg" viewBox="0 0 1084.94 1006.09"><title>play_button</title><path d="M1042.26-1862.31c85,0,170-.15,255,.19,10.18,0,20.47,2.16,30.5,4.32,11.75,2.53,23.34,5.91,34.85,9.41a126.62,126.62,0,0,1,20,7.86c12.54,6.33,25,12.83,37,20.11,7.66,4.64,14.72,10.45,21.49,16.37,9.35,8.18,18.58,16.57,27.12,25.58,11.4,12,21.65,25,29.7,39.64,4.67,8.47,10.23,16.54,13.93,25.4a401.53,401.53,0,0,1,13.66,39c3.22,10.67,5.53,21.64,7.68,32.59,1.07,5.47,1.13,11.18,1.2,16.79.15,14,.54,28-.12,42a180.3,180.3,0,0,1-4,28.58c-2.61,12.34-5.91,24.55-9.37,36.68a140.75,140.75,0,0,1-6.84,17.69,241.91,241.91,0,0,1-29.26,50.28c-10.81,14.13-23.31,27.14-36.2,39.45-9.17,8.76-20.18,15.59-30.47,23.15a8.15,8.15,0,0,1-4.56,1.22q-136.23.09-272.46-.18c-4,0-8.46-2.66-11.74-5.29-10.92-8.74-21.32-18.13-32.11-27a12,12,0,0,0-6.94-2.73q-48.24-.27-96.49,0a10.41,10.41,0,0,0-6.88,2.81c-11.7,12.47-25.64,22.08-39.61,31.66-1.09.74-2.81.79-4.24.79-90.82,0-181.65.14-272.46-.27-4.54,0-9.26-4.22-13.56-7-17.41-11.21-31.86-25.93-45.5-41.18-9.53-10.66-17.21-23-25.11-35a214.93,214.93,0,0,1-14.14-25.29,217.74,217.74,0,0,1-15.34-43.54c-2.78-11.57-5.79-23-6.07-35-.44-19-2.36-38.17-1.07-57.09,1.11-16.37,4.86-32.76,9.18-48.68A186.91,186.91,0,0,1,579-1726.86c8.18-13.56,17.38-26.51,26.5-39.48,3.39-4.83,7.82-8.91,11.73-13.38,3.14-3.59,5.86-7.65,9.4-10.79,7.61-6.74,15.36-13.41,23.56-19.41a271.94,271.94,0,0,1,28.64-18.91c11.12-6.17,22.89-11.18,34.5-16.42a131.93,131.93,0,0,1,17.4-6.51c8.1-2.33,16.41-3.94,24.59-6,22.89-5.81,46.24-4.52,69.5-4.53Q933.53-1862.34,1042.26-1862.31Zm-424,259.38c.65,6.92,1.26,15,2.2,23,.87,7.26,1.48,14.64,3.32,21.67a211.39,211.39,0,0,0,9.32,28.15c8.74,20.76,21.6,39.05,36.85,55.45,7.82,8.42,17,15.55,25.91,22.93a84.26,84.26,0,0,0,13.4,9c19.29,10.54,39,20.12,61.15,23,10.51,1.39,21,3.72,31.5,4.3,14.29.78,28.39-1.74,42.49-4.27a155.24,155.24,0,0,0,40-12.63c7.95-3.81,16-7.52,23.42-12.26a156.21,156.21,0,0,0,21.38-16.54c8.94-8.25,17.41-17.05,25.51-26.13,2-2.21,3.29-3.61,6.26-3.61q81.23.08,162.46.15c1.65,0,3.63,1.42,4.87,2.73,4,4.18,7.59,8.68,11.48,13,8.93,9.81,19.57,17.56,30,25.71,13.69,10.73,29.25,17.34,45.24,23.12,8.21,3,17.07,4.07,25.51,6.44,12.12,3.41,24.55,4,37,4.41,4.52.15,9.09-.91,13.63-1.47,8-1,16-1.42,23.8-3.19,11.57-2.63,23.34-5.19,34.27-9.64,22.56-9.18,42.35-23.09,60-39.74,6.06-5.7,11.23-12.47,16.19-19.21,6.57-8.94,13.21-18,18.59-27.62a141.39,141.39,0,0,0,15.55-41.43c2.14-10.82,5.08-21.61,5.75-32.54,1.12-18.55.93-37.26-4.47-55.32-4-13.33-8.25-26.62-13.31-39.57-2.77-7.08-7-13.75-11.38-20-7.06-10-14.22-20.12-22.47-29.15a162.1,162.1,0,0,0-24.13-21.16,232.3,232.3,0,0,0-30-18.67c-8.47-4.41-17.84-7.11-26.82-10.56-13.25-5.09-27.25-8.14-41.14-8.09-169.85.63-339.72-2.36-509.55,1.49a85.94,85.94,0,0,0-26.83,5.08c-14.54,5.27-29.09,10.59-42.62,18.59a193.3,193.3,0,0,0-33.51,24.84,187,187,0,0,0-19.89,21.47,230.4,230.4,0,0,0-17.11,25.67,121.33,121.33,0,0,0-10.48,22.17c-4.28,12.7-8.29,25.61-10.92,38.73C618.67-1624.72,619-1614.32,618.25-1602.93Z" transform="translate(-549.47 2392.08)"/><path d="M1006.74-1879.29c.81-8.34,1.83-15.82,2.19-23.33a109.48,109.48,0,0,1,7.93-35.55,214,214,0,0,1,14.64-30.39,224.41,224.41,0,0,1,21.75-30.8c6.27-7.32,14.49-13,21.91-19.28,11.36-9.67,24.29-16.9,37.93-22.56,9.41-3.91,19.44-6.36,29.26-9.19,22-6.34,44.57-4.54,67-4.59,52.66-.12,105.33.13,158-.17,10.92-.06,21.44-3.33,32-6.59,9.49-2.94,17.39-8.25,25.24-13.68a88.47,88.47,0,0,0,28.29-31.16c3.42-6.41,6.38-13.07,9.37-19.7.58-1.27.43-2.92.44-4.4,0-27.17.08-54.33-.09-81.49a17.2,17.2,0,0,0-2.34-8.36q-47.51-79.24-95.34-158.28c-2.13-3.53-1.83-5.94,0-9.4s4.3-3.81,7.64-3.79q29,.15,58,0c3,0,4.73.87,6.32,3.53q30,50.16,60.19,100.17c1.27,2.12,2.56,4.23,4.22,7,6.22-10.29,12.15-20.07,18-29.87q23.17-38.52,46.25-77.08c1.67-2.82,3.46-3.76,6.69-3.73,18,.17,36,.23,54,0,3.79-.06,5.16,1.74,6.79,4.44s2.09,5,.21,8.06q-48.33,79.91-96.31,160a17.26,17.26,0,0,0-2.3,8.36c-.18,23.83-.42,47.67,0,71.49.25,13.06-2.8,25.19-6.87,37.39a158.83,158.83,0,0,1-21.19,42.22c-9.9,13.87-21.17,26.68-35,36.82-8,5.88-16,12.07-24.8,16.71a182.79,182.79,0,0,1-31,12.94c-10,3.13-20.59,4.79-31,6.34a162.63,162.63,0,0,1-23.67,1.53c-60.82.12-121.65-.19-182.48.28-12.31.1-24.5,3-36.21,7.69-16,6.43-29.06,16.85-40.17,29.55-9.48,10.84-17.44,23-20.55,37.41-2,9.34-3.11,18.88-4.83,28.3-.22,1.19-1.69,3.09-2.6,3.1C1052.21-1879.25,1030.24-1879.29,1006.74-1879.29Z" transform="translate(-549.47 2392.08)"/><path d="M672.46-2191.12v6.07q0,28,0,56c0,6.16-3.64,9.93-9.65,9.94q-26.25,0-52.49,0a9.33,9.33,0,0,1-9.68-9.53q0-127,0-253.95a9,9,0,0,1,9.24-9.34c39.16,0,78.32-.2,117.47.27,20.83.26,41.07,4.45,59.7,14.21,36,18.84,52.58,49.19,51.49,89.32-1.28,46.73-29.44,80.67-76.93,91.81-14,3.28-28.61,4.24-43,5C703.49-2190.47,688.31-2191.12,672.46-2191.12Zm.19-61.22c18,0,35.58.19,53.17-.13a53.26,53.26,0,0,0,14.17-2.67c26.87-8.1,35.65-45.16,15.3-64.34a37.12,37.12,0,0,0-23.81-10.36c-19.26-.92-38.56-.82-57.84-1.11-.26,0-.53.3-1,.58Z" transform="translate(-549.47 2392.08)"/><path d="M1235.53-2391.95c9.67,0,19.34.15,29-.08,3.31-.08,4.87.91,6.25,4q39.06,87.77,78.39,175.41,18.13,40.54,36.25,81.1c2.82,6.3-1.09,12.38-7.93,12.38-19.5,0-39-.07-58.5.08-3.15,0-4.63-.94-5.82-3.91-6.45-16.06-13.23-32-19.69-48-1.24-3.07-2.71-4.25-6.16-4.23q-52.5.21-105,0c-3.43,0-4.87,1.14-6.1,4.22-6.46,16.06-13.25,32-19.72,48-1.19,3-2.7,3.95-5.84,3.92-19-.14-38-.06-57-.07-6.87,0-10.74-6.13-7.9-12.5q46.63-104.61,93.29-209.2c7-15.66,14.07-31.26,20.85-47,1.42-3.29,3.18-4.29,6.64-4.2C1216.2-2391.8,1225.87-2391.95,1235.53-2391.95Zm-33.23,159.11h65.44l-32.73-79Z" transform="translate(-549.47 2392.08)"/><path d="M951.46-2179.95h121c6.52,0,10,3.49,10,10q0,20.74,0,41.48a9,9,0,0,1-9.24,9.34q-92,0-183.94,0a9.3,9.3,0,0,1-9.64-9.57q0-127,0-253.92a9,9,0,0,1,9.25-9.33q26,0,52,0c7.24,0,10.59,3.29,10.59,10.42v201.58Z" transform="translate(-549.47 2392.08)"/><path d="M766.9-1564.81c-18.23,0-35.53.17-52.84-.13a29.13,29.13,0,0,1-11.2-2.86c-7.64-3.48-11.12-10.23-11.39-18.21-.42-12-.45-24,0-36s7.62-22,21.53-21.52c16,.5,32,.12,48,.12h5.92v-6q0-21.75,0-43.5c0-7,1.15-13.71,6-19.21,3.29-3.73,6.91-6.84,12.32-6.83,14.5,0,29-.1,43.5,0a17.31,17.31,0,0,1,16.83,17.21q0,26,0,52v6.3h6.1c16.84,0,33.67.07,50.5,0,10.86-.06,16.14,5.48,18.86,14.16a42.62,42.62,0,0,1,1.57,11.61c.21,9.49.17,19,0,28.5-.16,10.72-4,19.24-14.82,23.18a17.44,17.44,0,0,1-5.69,1.12c-16.84.09-33.67,0-50.5,0h-6.06v5.86c0,17.17-.21,34.34.07,51.5.19,10.88-8.58,17.82-18,18.11-14,.44-28,.14-42,.11-7.15,0-16.68-8.16-17.08-15.35-.83-14.86-1.17-29.74-1.63-44.61C766.77-1554.16,766.9-1559.14,766.9-1564.81Z" transform="translate(-549.47 2392.08)"/><path d="M1201.31-1643.4c23.3.14,38.7,17.62,38.87,38.78.18,22.1-16.8,39.86-39.68,39.57-21.88-.28-39-17.26-38.61-40.14C1162.25-1625.66,1177.24-1643.48,1201.31-1643.4Z" transform="translate(-549.47 2392.08)"/><path d="M1391.49-1603.86c0,22.35-16.77,39.54-39.16,38.91-19.46-.55-40-15.18-38-43.42,1.26-17.26,16.19-35.94,41.21-35.18C1370.59-1643.1,1394.69-1627.12,1391.49-1603.86Z" transform="translate(-549.47 2392.08)"/><path d="M1276.85-1566.31c23-2,38.27,17.25,39.13,35.74,1.14,24.59-18.35,42.4-40.91,41.49-19.73-.8-37.79-18.7-37.67-39.31C1237.51-1547.79,1253.49-1568.71,1276.85-1566.31Z" transform="translate(-549.47 2392.08)"/><path d="M1277.1-1641.88c-24.41.77-39.7-17.91-39.56-38.53.13-20.42,15.6-39.92,42.57-38.7,17.17.77,37.18,16.46,35.91,42C1315.27-1662.06,1299.25-1639,1277.1-1641.88Z" transform="translate(-549.47 2392.08)"/></svg>